<?xml version="1.0" standalone="no"?>
<!DOCTYPE svg PUBLIC "-//W3C//DTD SVG 1.1//EN" "http://www.w3.org/Graphics/SVG/1.1/DTD/svg11.dtd" >
<svg xmlns="http://www.w3.org/2000/svg" xmlns:xlink="http://www.w3.org/1999/xlink" version="1.1">
<metadata>
Created by FontForge 20170924 at Wed Jan  7 00:58:08 2015
 By www-data
Copyright (c) 2014 by Typesketchbook. All rights reserved.
</metadata>
<defs>
<font id="MairyExtrabold" horiz-adv-x="213" >
  <font-face 
    font-family="Mairy Extrabold"
    font-weight="400"
    font-stretch="normal"
    units-per-em="1000"
    panose-1="2 0 0 0 0 0 0 0 0 0"
    ascent="750"
    descent="-250"
    x-height="405"
    cap-height="568"
    bbox="-97 -251 951 872"
    underline-thickness="35"
    underline-position="-108"
    stemh="105"
    stemv="147"
    unicode-range="U+0020-FB02"
  />
<missing-glyph horiz-adv-x="567" 
d="M534 0h-511v626h511v-626zM68 43h19v21h-19l-2 -20c1 0 2 0 2 -1zM488 582v-2h2c0 1 -1 2 -2 2zM488 580h-18v-18h18v18zM490 45l-2 19h-18v-19h20zM69 582v-20h18v20l-19 1c0 -1 0 -1 1 -1zM87 562v-498h383v498h-383z" />
    <glyph glyph-name="fi" unicode="fi" horiz-adv-x="538" 
d="M284 283h-78v-252c0 -18 -13 -31 -31 -31h-71c-18 0 -31 13 -31 31v252h-36c-19 0 -32 13 -32 31v60c0 18 13 31 32 31h36c5 112 43 202 167 202c21 0 45 -3 73 -12c18 -6 27 -21 27 -39l-14 -55c-4 -13 -15 -23 -29 -23s-28 4 -43 4c-43 0 -48 -51 -48 -77h78
c18 0 32 -13 32 -31v-60c0 -18 -14 -31 -32 -31zM498 373v-341c0 -18 -14 -32 -32 -32h-70c-18 0 -31 14 -31 32v341c0 18 13 32 31 32h70c18 0 32 -14 32 -32zM360 501c0 40 31 72 71 72s72 -32 72 -72s-32 -71 -72 -71s-71 31 -71 71z" />
    <glyph glyph-name="fl" unicode="fl" horiz-adv-x="551" 
d="M284 283h-78v-252c0 -18 -13 -31 -31 -31h-71c-18 0 -31 13 -31 31v252h-36c-19 0 -32 13 -32 31v60c0 18 13 31 32 31h36c5 112 43 202 167 202c21 0 45 -3 73 -12c18 -6 27 -21 27 -39l-14 -55c-4 -13 -15 -23 -29 -23s-28 4 -43 4c-43 0 -48 -51 -48 -77h78
c18 0 32 -13 32 -31v-60c0 -18 -14 -31 -32 -31zM365 96v440c0 18 13 32 31 32h70c18 0 32 -14 32 -32v-410c0 -17 6 -25 12 -28c10 -6 16 -16 16 -28v-34c0 -17 -10 -26 -28 -32c-23 -8 -39 -9 -54 -9c-75 0 -79 67 -79 101z" />
    <glyph glyph-name=".notdef" horiz-adv-x="567" 
d="M534 0h-511v626h511v-626zM68 43h19v21h-19l-2 -20c1 0 2 0 2 -1zM488 582v-2h2c0 1 -1 2 -2 2zM488 580h-18v-18h18v18zM490 45l-2 19h-18v-19h20zM69 582v-20h18v20l-19 1c0 -1 0 -1 1 -1zM87 562v-498h383v498h-383z" />
    <glyph glyph-name=".null" horiz-adv-x="0" 
 />
    <glyph glyph-name="nonmarkingreturn" horiz-adv-x="283" 
 />
    <glyph glyph-name="space" unicode=" " horiz-adv-x="189" 
 />
    <glyph glyph-name="exclam" unicode="!" horiz-adv-x="223" 
d="M178 536l-11 -331c0 -18 -14 -32 -32 -32h-48c-18 0 -31 14 -31 32l-11 331c0 18 13 32 31 32h70c18 0 32 -14 32 -32zM40 67c0 40 31 71 71 71s72 -31 72 -71s-32 -72 -72 -72s-71 32 -71 72z" />
    <glyph glyph-name="quotedbl" unicode="&#x22;" horiz-adv-x="390" 
d="M72 568h76c18 0 32 -14 32 -33l-13 -155c-1 -19 -14 -31 -32 -31h-50c-18 0 -31 12 -32 31l-13 155c0 19 14 33 32 33zM242 568h76c18 0 32 -14 32 -33l-13 -155c-1 -19 -14 -31 -32 -31h-50c-18 0 -31 12 -32 31l-13 155c0 19 14 33 32 33z" />
    <glyph glyph-name="numbersign" unicode="#" horiz-adv-x="734" 
d="M662 451c19 0 32 -13 32 -32v-58c0 -18 -13 -32 -32 -32h-84c-9 -30 -19 -54 -30 -86h60c19 0 32 -13 32 -31v-59c0 -19 -13 -32 -32 -32h-102c-11 -31 -24 -66 -34 -96c-8 -13 -15 -25 -33 -25h-72c-19 0 -32 15 -32 35l30 86h-101c-10 -31 -24 -66 -34 -96
c-7 -13 -14 -25 -32 -25h-73c-18 0 -32 15 -32 35l30 86h-51c-18 0 -32 13 -32 32v59c0 18 14 31 32 31h95c9 30 19 55 30 86h-71c-18 0 -32 14 -32 32v58c0 19 14 32 32 32h112l33 93c7 13 14 24 33 24h72c19 0 32 -14 32 -32l-30 -85h102c10 30 23 64 33 93
c6 13 13 24 32 24h73c18 0 32 -14 32 -32l-30 -85h42zM408 243l30 86h-101c-10 -30 -20 -54 -30 -86h101z" />
    <glyph glyph-name="dollar" unicode="$" horiz-adv-x="516" 
d="M476 165c0 -99 -57 -152 -168 -167v-61c0 -18 -9 -32 -27 -32h-43c-18 0 -25 14 -25 32v57c-41 3 -96 14 -135 33c-10 5 -25 19 -25 35c0 3 1 7 2 10l21 49c5 14 19 21 32 21c3 0 6 0 12 -2c28 -11 65 -19 93 -23v118c-82 19 -173 47 -173 152c0 99 34 168 173 181v72
c0 18 7 32 25 32h43c18 0 27 -14 27 -32v-73c26 -3 58 -9 88 -18c15 -5 32 -15 32 -32c0 -8 -1 -21 -4 -53c-3 -25 -18 -29 -39 -29l-77 9v-95c80 -18 168 -54 168 -184zM176 405c0 -18 14 -28 37 -35v74c-24 -6 -37 -17 -37 -39zM308 124c18 8 32 20 32 40s-12 33 -32 43
v-83z" />
    <glyph glyph-name="percent" unicode="%" horiz-adv-x="713" 
d="M398 544l-217 -512c0 -19 14 -32 32 -32h67c20 0 26 11 33 24l218 512c0 19 -14 32 -32 32h-68c-18 0 -26 -10 -33 -24zM161 416c8 0 23 4 23 28s-15 29 -23 29s-23 -5 -23 -29s15 -28 23 -28zM161 318c-71 0 -121 39 -121 126s50 128 121 128s121 -41 121 -128
s-50 -126 -121 -126zM552 93c8 0 23 4 23 28s-15 29 -23 29s-23 -5 -23 -29s15 -28 23 -28zM552 -5c-71 0 -121 39 -121 126s50 128 121 128s121 -41 121 -128s-50 -126 -121 -126z" />
    <glyph glyph-name="ampersand" unicode="&#x26;" horiz-adv-x="601" 
d="M265 116c15 0 31 4 45 12l-84 83c-38 -9 -43 -26 -43 -52c0 -29 26 -43 82 -43zM400 40c-31 -27 -75 -45 -137 -45c-135 0 -223 54 -223 165c0 64 17 127 90 149c-25 33 -34 72 -34 103c0 99 52 160 182 160c136 0 190 -61 190 -165c0 -29 -13 -91 -59 -91h-59
c-17 0 -30 7 -30 28c0 7 3 17 4 27c1 11 1 19 1 35c0 18 -1 43 -47 43c-29 0 -39 -16 -39 -42c0 -13 7 -28 20 -40l237 -235c11 -11 17 -13 30 -13c10 0 20 -5 26 -13l20 -27c6 -8 9 -15 9 -22c0 -16 -15 -32 -30 -43c-16 -13 -46 -19 -61 -19c-30 0 -57 19 -90 45z" />
    <glyph glyph-name="quotesingle" unicode="'" horiz-adv-x="220" 
d="M72 568h76c18 0 32 -14 32 -33l-13 -155c-1 -19 -14 -31 -32 -31h-50c-18 0 -31 12 -32 31l-13 155c0 19 14 33 32 33z" />
    <glyph glyph-name="parenleft" unicode="(" horiz-adv-x="277" 
d="M91 -117c-25 121 -41 276 -41 405c0 174 9 277 41 395c5 18 13 29 32 29h72c18 0 32 -14 32 -34c-27 -113 -43 -271 -43 -397c0 -122 20 -269 43 -393c0 -19 -14 -34 -32 -34h-72c-19 0 -27 12 -32 29z" />
    <glyph glyph-name="parenright" unicode=")" horiz-adv-x="277" 
d="M186 -117c-5 -17 -13 -29 -32 -29h-72c-18 0 -32 15 -32 34c23 124 43 271 43 393c0 126 -16 284 -43 397c0 20 14 34 32 34h72c19 0 27 -11 32 -29c32 -118 41 -221 41 -395c0 -129 -16 -284 -41 -405z" />
    <glyph glyph-name="asterisk" unicode="*" horiz-adv-x="434" 
d="M182 568h70c5 0 13 -3 18 -7c8 -5 11 -14 11 -25l-10 -76l44 32c7 5 16 5 19 5c11 0 21 -6 27 -18l30 -63c2 -4 3 -10 3 -13c0 -11 -6 -26 -17 -28l-65 -14l38 -35c5 -5 7 -12 7 -19c0 -11 -4 -23 -11 -28c-53 -40 -64 -41 -68 -41c-10 0 -23 3 -29 14l-32 60l-32 -60
c-6 -11 -19 -14 -29 -14c-4 0 -15 1 -68 41c-7 5 -11 17 -11 28c0 7 2 14 7 19l38 35l-65 14c-11 2 -17 17 -17 28c0 3 1 9 3 13l30 63c6 12 16 18 27 18c3 0 12 0 19 -5l44 -32l-10 76c0 11 3 20 11 25c5 4 13 7 18 7z" />
    <glyph glyph-name="plus" unicode="+" horiz-adv-x="393" 
d="M321 268c19 0 32 -14 32 -32v-57c0 -19 -13 -32 -32 -32h-58v-67c0 -18 -13 -32 -32 -32h-69c-18 0 -32 14 -32 32v67h-58c-18 0 -32 13 -32 32v57c0 18 14 32 32 32h58v68c0 19 14 32 32 32h69c19 0 32 -13 32 -32v-68h58z" />
    <glyph glyph-name="comma" unicode="," horiz-adv-x="187" 
d="M136 114c36 0 36 -63 36 -89c0 -31 -13 -140 -61 -140h-64c-19 0 -32 15 -32 34c9 44 24 48 24 104c0 20 -8 39 -8 63c0 15 18 28 33 28h72z" />
    <glyph glyph-name="hyphen" unicode="-" horiz-adv-x="395" 
d="M323 143h-251c-18 0 -32 14 -32 32v57c0 18 14 32 32 32h251c19 0 32 -14 32 -32v-57c0 -18 -13 -32 -32 -32z" />
    <glyph glyph-name="period" unicode="." horiz-adv-x="223" 
d="M40 67c0 40 31 71 71 71s72 -31 72 -71s-32 -72 -72 -72s-71 32 -71 72z" />
    <glyph glyph-name="slash" unicode="/" horiz-adv-x="440" 
d="M15 -114l277 800c7 14 15 24 33 24h68c18 0 32 -13 32 -32l-278 -800c-7 -13 -13 -24 -33 -24h-67c-18 0 -32 13 -32 32z" />
    <glyph glyph-name="zero" unicode="0" horiz-adv-x="554" 
d="M278 116c38 0 103 15 103 164c0 162 -64 170 -104 170s-104 -8 -104 -170c0 -149 65 -164 105 -164zM276 -5c-135 0 -236 63 -236 285c0 237 102 292 237 292s237 -55 237 -292c0 -222 -101 -285 -238 -285z" />
    <glyph glyph-name="one" unicode="1" horiz-adv-x="348" 
d="M17 459l166 109h93c18 0 32 -14 32 -32v-504c0 -18 -14 -32 -32 -32h-69c-19 0 -32 14 -32 32v372l-132 -87c-19 0 -33 14 -33 32v89c0 8 2 17 7 21z" />
    <glyph glyph-name="two" unicode="2" horiz-adv-x="457" 
d="M90 554c47 13 100 18 122 18c183 0 210 -76 210 -172c0 -177 -259 -152 -259 -272v-7h217c18 0 32 -14 32 -32v-57c0 -18 -14 -32 -32 -32h-318c-18 0 -32 14 -32 32v93c0 237 259 183 259 291c0 30 -22 33 -84 33c-14 0 -66 -6 -103 -10c-21 0 -36 3 -39 29
c-3 32 -4 46 -4 54c0 17 16 28 31 32z" />
    <glyph glyph-name="three" unicode="3" horiz-adv-x="432" 
d="M184 223h-44c-19 0 -32 14 -32 32v57c0 18 13 32 32 32h44c55 0 75 22 75 61c0 24 -26 45 -75 45c-12 0 -84 -4 -121 -8c-21 0 -36 4 -39 29c-3 32 -4 49 -4 57c0 17 16 28 32 31c48 12 111 13 132 13c136 0 208 -69 208 -173c0 -46 -18 -92 -47 -116
c29 -27 47 -67 47 -111c0 -110 -72 -177 -208 -177c-21 0 -84 3 -132 14c-16 4 -32 15 -32 32c0 7 1 23 4 56c3 25 18 29 39 29l40 -5c34 -5 73 -5 81 -5c55 0 75 15 75 55c0 23 -26 51 -75 52z" />
    <glyph glyph-name="four" unicode="4" horiz-adv-x="477" 
d="M430 131h-26v-99c0 -18 -14 -32 -32 -32h-69c-19 0 -32 14 -32 32v99h-224c-19 0 -32 14 -32 32v83l250 296c10 12 26 26 42 26h63c21 0 34 -14 34 -32v-284h26c18 0 32 -13 32 -32v-57c0 -18 -14 -32 -32 -32zM197 252h74v89z" />
    <glyph glyph-name="five" unicode="5" horiz-adv-x="448" 
d="M173 345h49c196 0 201 -125 201 -173c0 -110 -83 -177 -218 -177c-21 0 -84 4 -132 15c-16 4 -32 15 -32 32c0 7 1 23 4 56c2 25 18 29 38 29l41 -5c34 -5 82 -6 91 -6c56 0 75 15 75 59c0 18 -16 47 -64 47h-154c-19 0 -32 14 -32 32v282c0 18 13 32 32 32h303
c18 0 32 -14 32 -32v-57c0 -18 -14 -32 -32 -32h-202v-102z" />
    <glyph glyph-name="six" unicode="6" horiz-adv-x="465" 
d="M40 189v171c0 134 83 212 218 212c45 0 94 -7 139 -41c10 -7 16 -12 16 -24c0 -3 0 -6 -1 -9l-19 -49c-5 -13 -17 -19 -29 -19c-4 0 -11 1 -16 4c-34 17 -59 17 -81 17c-35 0 -94 -16 -94 -80v-24c18 9 51 17 72 17c129 0 190 -40 190 -175c0 -124 -61 -194 -197 -194
s-198 70 -198 194zM238 244c-59 0 -65 -40 -65 -64c0 -23 12 -63 65 -63c55 0 64 38 64 63c0 24 -3 64 -64 64z" />
    <glyph glyph-name="seven" unicode="7" horiz-adv-x="397" 
d="M37 568h303c19 0 32 -14 32 -32v-85l-171 -421c-6 -16 -13 -30 -32 -30h-78c-18 0 -32 14 -32 33l168 414h-190c-18 0 -32 14 -32 32v57c0 18 14 32 32 32z" />
    <glyph glyph-name="eight" unicode="8" horiz-adv-x="474" 
d="M237 118c53 0 64 23 64 53c0 29 -17 50 -64 50s-64 -21 -64 -50c0 -30 11 -53 64 -53zM237 345c47 0 64 16 64 53c0 31 -22 51 -64 51s-64 -20 -64 -51c0 -37 17 -53 64 -53zM237 -5c-136 0 -197 67 -197 177c0 44 18 84 47 111c-29 24 -47 70 -47 116
c0 104 61 173 197 173s197 -69 197 -173c0 -46 -18 -92 -47 -116c29 -27 47 -67 47 -111c0 -110 -61 -177 -197 -177z" />
    <glyph glyph-name="nine" unicode="9" horiz-adv-x="465" 
d="M425 378v-171c0 -134 -83 -212 -218 -212c-45 0 -94 7 -139 41c-10 7 -16 12 -16 24c0 3 0 6 1 9l19 49c5 13 17 19 29 19c4 0 11 -1 16 -4c34 -17 59 -17 81 -17c36 0 89 11 94 78c-18 -9 -44 -15 -65 -15c-136 0 -197 64 -197 199c0 124 61 194 197 194
s198 -70 198 -194zM227 300c59 0 65 42 65 77s-12 73 -65 73c-55 0 -64 -38 -64 -73s3 -77 64 -77z" />
    <glyph glyph-name="colon" unicode=":" horiz-adv-x="228" 
d="M40 337c0 40 34 74 73 74c40 0 74 -34 74 -74c0 -39 -34 -73 -74 -73c-39 0 -73 34 -73 73zM45 67c0 40 31 71 71 71s72 -31 72 -71s-32 -72 -72 -72s-71 32 -71 72z" />
    <glyph glyph-name="semicolon" unicode=";" horiz-adv-x="237" 
d="M50 337c0 40 34 74 73 74c40 0 74 -34 74 -74c0 -39 -34 -73 -74 -73c-39 0 -73 34 -73 73zM161 114c36 0 36 -63 36 -89c0 -31 -13 -140 -61 -140h-64c-19 0 -32 15 -32 34c9 44 24 48 24 104c0 20 -8 39 -8 63c0 15 18 28 33 28h72z" />
    <glyph glyph-name="less" unicode="&#x3c;" horiz-adv-x="385" 
d="M40 173v88c0 16 12 29 28 36l244 110c19 0 33 -14 33 -32v-80c0 -16 -16 -26 -28 -32l-102 -46l102 -46c12 -6 28 -16 28 -32v-80c0 -18 -14 -32 -33 -32l-244 110c-16 7 -28 20 -28 36z" />
    <glyph glyph-name="equal" unicode="=" horiz-adv-x="395" 
d="M323 43h-251c-18 0 -32 14 -32 32v57c0 18 14 32 32 32h251c19 0 32 -14 32 -32v-57c0 -18 -13 -32 -32 -32zM323 201h-251c-18 0 -32 14 -32 32v57c0 18 14 32 32 32h251c19 0 32 -14 32 -32v-57c0 -18 -13 -32 -32 -32z" />
    <glyph glyph-name="greater" unicode="&#x3e;" horiz-adv-x="385" 
d="M345 261v-88c0 -16 -12 -29 -28 -36l-244 -110c-19 0 -33 14 -33 32v80c0 16 16 26 28 32l102 46l-102 46c-12 6 -28 16 -28 32v80c0 18 14 32 33 32l244 -110c16 -7 28 -20 28 -36z" />
    <glyph glyph-name="question" unicode="?" horiz-adv-x="437" 
d="M102 193v15c0 202 162 120 162 198c0 35 -17 43 -79 43c-13 0 -65 -6 -103 -10c-20 0 -36 3 -39 29c-2 32 -3 46 -3 54c0 17 16 28 31 32c47 13 100 18 121 18c184 0 205 -76 205 -172c0 -159 -162 -96 -162 -197v-10c0 -19 -14 -32 -32 -32h-69c-18 0 -32 13 -32 32z
M97 67c0 40 31 71 71 71s72 -31 72 -71s-32 -72 -72 -72s-71 32 -71 72z" />
    <glyph glyph-name="at" unicode="@" horiz-adv-x="629" 
d="M363 174c0 -48 11 -58 50 -58c6 0 31 3 43 8v92c-11 8 -33 10 -40 10c-37 0 -53 -7 -53 -52zM173 302v-292c0 -26 2 -74 49 -74c11 0 36 4 52 8c15 0 27 -10 32 -24l14 -58c0 -18 -6 -35 -20 -39c-30 -9 -68 -14 -93 -14c-137 0 -167 86 -167 219v274
c0 228 148 270 282 270c135 0 267 -47 267 -284v-238c0 -14 -8 -28 -22 -34c-45 -14 -106 -21 -151 -21c-137 0 -192 45 -192 180s65 175 168 175c11 0 41 -1 64 -9c-8 103 -99 109 -134 109c-36 0 -149 -10 -149 -148z" />
    <glyph glyph-name="A" unicode="A" horiz-adv-x="516" 
d="M260 362l-40 -115h80zM516 37c0 -32 -42 -42 -71 -42c-54 0 -71 41 -83 73c-5 13 -6 20 -20 56h-165l-32 -94c-4 -16 -18 -30 -34 -30h-74c-18 0 -32 14 -32 32l175 507c6 17 20 29 36 29h87c16 0 30 -12 36 -29l143 -409c6 -16 11 -28 17 -31c10 -5 17 -16 17 -28v-34z
" />
    <glyph glyph-name="B" unicode="B" horiz-adv-x="474" 
d="M222 446h-49v-102h49c39 0 73 8 73 50c0 43 -34 52 -73 52zM248 121c39 0 73 8 73 53c0 41 -34 49 -73 49h-75v-102h75zM72 568h150c136 0 206 -38 206 -174c0 -39 -10 -78 -52 -100c47 -21 78 -63 78 -121c0 -135 -70 -173 -206 -173h-176c-18 0 -32 15 -32 33v503
c0 18 14 32 32 32z" />
    <glyph glyph-name="C" unicode="C" horiz-adv-x="456" 
d="M421 530c11 -7 20 -19 20 -32c0 -4 -1 -5 -23 -51c-5 -13 -18 -19 -29 -19c-5 0 -13 3 -17 5c-32 14 -62 17 -82 17c-42 0 -132 -8 -132 -170c0 -133 90 -164 132 -164c22 0 40 5 82 20c5 2 11 5 17 5c11 0 24 -6 29 -18l23 -53c0 -13 -10 -25 -20 -32
c-47 -31 -95 -43 -140 -43c-134 0 -256 73 -256 285c0 237 122 292 256 292c45 0 94 -12 140 -42z" />
    <glyph glyph-name="D" unicode="D" horiz-adv-x="482" 
d="M253 0h-181c-18 0 -32 15 -32 33v503c0 18 14 32 32 32h181c136 0 204 -75 204 -209v-150c0 -134 -68 -209 -204 -209zM324 207v153c0 62 -33 86 -73 86h-78v-325h78c40 0 73 24 73 86z" />
    <glyph glyph-name="E" unicode="E" horiz-adv-x="436" 
d="M389 0h-317c-19 0 -32 14 -32 32v504c0 18 13 32 32 32h317c19 0 32 -14 32 -32v-58c0 -18 -13 -32 -32 -32h-216v-102h156c18 0 31 -14 31 -32v-57c0 -18 -13 -32 -31 -32h-156v-102h216c19 0 32 -14 32 -32v-57c0 -18 -13 -32 -32 -32z" />
    <glyph glyph-name="F" unicode="F" horiz-adv-x="436" 
d="M40 32v504c0 18 13 32 32 32h317c19 0 32 -14 32 -32v-58c0 -18 -13 -32 -32 -32h-216v-102h156c18 0 31 -14 31 -32v-57c0 -18 -13 -32 -31 -32h-156v-191c0 -18 -14 -32 -32 -32h-70c-18 0 -31 14 -31 32z" />
    <glyph glyph-name="G" unicode="G" horiz-adv-x="515" 
d="M296 327h152c18 0 32 -13 32 -31v-264c0 -18 -14 -32 -32 -32h-27c-19 0 -30 8 -38 18l-6 7c-37 -27 -71 -30 -96 -30c-135 0 -256 69 -256 285c0 237 121 292 256 292c43 0 118 -10 163 -42c11 -6 19 -19 19 -32c0 -4 -1 -6 -23 -52c-5 -13 -17 -19 -29 -19
c-5 0 -12 3 -16 5c-33 14 -85 18 -106 18c-41 0 -131 -8 -131 -170c0 -86 44 -164 134 -164c13 0 36 1 55 13v77h-51c-18 0 -32 13 -32 32v58c0 18 14 31 32 31z" />
    <glyph glyph-name="H" unicode="H" horiz-adv-x="511" 
d="M338 227h-165v-195c0 -18 -13 -32 -31 -32h-70c-18 0 -32 14 -32 32v504c0 18 14 32 32 32h70c18 0 31 -14 31 -32v-188h165v188c0 18 13 32 31 32h70c18 0 32 -14 32 -32v-504c0 -18 -14 -32 -32 -32h-70c-18 0 -31 14 -31 32v195z" />
    <glyph glyph-name="I" unicode="I" 
d="M173 536v-504c0 -18 -14 -32 -32 -32h-70c-18 0 -31 14 -31 32v504c0 18 13 32 31 32h70c18 0 32 -14 32 -32z" />
    <glyph glyph-name="J" unicode="J" horiz-adv-x="423" 
d="M20 30c-10 7 -20 17 -20 32c0 3 1 7 2 10c2 6 9 17 27 50c8 14 18 18 30 18c5 0 12 -1 17 -4c23 -10 65 -20 84 -20c41 0 90 9 90 123v297c0 18 13 32 32 32h69c18 0 32 -14 32 -32v-295c0 -224 -95 -246 -230 -246c-42 0 -94 11 -133 35z" />
    <glyph glyph-name="K" unicode="K" horiz-adv-x="507" 
d="M464 536c0 -45 -54 -150 -116 -218c14 -18 29 -39 47 -76l102 -208c0 -20 -13 -34 -32 -34h-77c-14 0 -31 14 -38 28c-64 136 -91 188 -101 205c-25 -17 -51 -28 -76 -36v-165c0 -18 -14 -32 -32 -32h-69c-18 0 -32 14 -32 32v504c0 18 14 32 32 32h69
c18 0 32 -14 32 -32v-198c49 13 129 128 152 200c4 16 15 30 32 30h76c18 0 31 -14 31 -32z" />
    <glyph glyph-name="L" unicode="L" horiz-adv-x="417" 
d="M375 0h-303c-19 0 -32 14 -32 32v504c0 18 13 32 32 32h69c18 0 32 -14 32 -32v-415h202c18 0 32 -14 32 -32v-57c0 -18 -14 -32 -32 -32z" />
    <glyph glyph-name="M" unicode="M" horiz-adv-x="622" 
d="M334 93h-47c-11 0 -27 11 -31 22l-77 197c-6 -88 -9 -194 -15 -281c-1 -17 -15 -31 -32 -31h-68c-17 0 -34 18 -34 38c0 0 1 1 27 498c1 18 13 32 31 32h101c12 0 21 -6 26 -14l96 -227l96 227c5 8 14 14 26 14h101c18 0 30 -14 31 -32c26 -497 27 -498 27 -498
c0 -20 -17 -38 -34 -38h-68c-17 0 -31 14 -32 31c-6 87 -9 193 -15 281l-77 -197c-4 -11 -20 -22 -32 -22z" />
    <glyph glyph-name="N" unicode="N" horiz-adv-x="531" 
d="M459 0h-65c-13 0 -28 8 -38 24c-58 98 -123 193 -183 293v-285c0 -18 -14 -32 -32 -32h-69c-18 0 -32 14 -32 32v504c0 18 14 32 32 32h76c14 0 29 -8 39 -24c59 -97 112 -173 171 -271v263c0 18 14 32 32 32h69c18 0 32 -14 32 -32v-504c0 -18 -14 -32 -32 -32z" />
    <glyph glyph-name="O" unicode="O" horiz-adv-x="558" 
d="M280 116c38 0 114 10 114 164c0 162 -75 170 -115 170s-115 -8 -115 -170c0 -154 76 -164 116 -164zM280 -5c-136 0 -250 63 -250 285c0 237 115 292 249 292s249 -55 249 -292c0 -222 -114 -285 -248 -285z" />
    <glyph glyph-name="P" unicode="P" horiz-adv-x="455" 
d="M247 304c39 0 65 25 65 70c0 44 -26 71 -65 71h-74v-141h74zM72 568h165c136 0 208 -59 208 -194s-72 -192 -208 -192h-64v-150c0 -18 -13 -32 -32 -32h-69c-18 0 -32 14 -32 32v504c0 18 14 32 32 32z" />
    <glyph glyph-name="Q" unicode="Q" horiz-adv-x="558" 
d="M528 280c0 -174 -70 -250 -165 -275c2 -2 -16 -12 -18 -29c24 -2 100 -13 124 -21c12 -4 23 -10 23 -23v-65c0 -13 -10 -23 -23 -23c-40 18 -129 24 -168 24c-51 0 -127 -19 -152 -19c-8 0 -15 15 -15 24v65c0 13 10 23 23 23c23 2 68 5 83 36c-118 12 -210 83 -210 283
c0 237 115 292 249 292s249 -55 249 -292zM280 116c38 0 114 10 114 164c0 162 -75 170 -115 170s-115 -8 -115 -170c0 -154 76 -164 116 -164z" />
    <glyph glyph-name="R" unicode="R" horiz-adv-x="474" 
d="M72 568h176c136 0 206 -59 206 -194c0 -76 -22 -128 -66 -159l33 -83c8 -21 12 -31 17 -33c10 -5 16 -16 16 -28v-34c0 -32 -41 -42 -70 -42c-55 0 -66 32 -79 67l-47 120h-85v-150c0 -18 -13 -32 -32 -32h-69c-18 0 -32 14 -32 32v504c0 18 14 32 32 32zM257 304
c39 0 64 25 64 70c0 44 -26 71 -64 71h-84v-141h84z" />
    <glyph glyph-name="S" unicode="S" horiz-adv-x="476" 
d="M105 142c40 -15 96 -26 123 -26c24 0 97 4 97 50c0 98 -300 32 -300 223c0 110 42 183 225 183c21 0 80 -5 131 -21c15 -5 32 -15 32 -32c0 -8 -1 -21 -4 -53c-3 -25 -18 -29 -39 -29l-22 3c-36 4 -81 10 -92 10c-62 0 -95 -7 -95 -43c0 -81 300 1 300 -240
c0 -120 -83 -172 -244 -172c-42 0 -109 12 -154 34c-10 5 -25 19 -25 35c0 3 1 7 2 10l21 49c5 14 19 21 32 21c3 0 6 0 12 -2z" />
    <glyph glyph-name="T" unicode="T" horiz-adv-x="439" 
d="M286 447v-415c0 -18 -14 -32 -32 -32h-70c-18 0 -31 14 -31 32v415h-112c-18 0 -31 14 -31 32v57c0 18 13 32 31 32h356c18 0 32 -14 32 -32v-57c0 -18 -14 -32 -32 -32h-111z" />
    <glyph glyph-name="U" unicode="U" horiz-adv-x="528" 
d="M264 -5c-137 0 -224 36 -224 259v282c0 18 14 32 32 32h69c18 0 32 -14 32 -32v-289c0 -123 52 -131 91 -131s91 8 91 131v289c0 18 14 32 32 32h69c18 0 32 -14 32 -32v-282c0 -223 -87 -259 -224 -259z" />
    <glyph glyph-name="V" unicode="V" horiz-adv-x="518" 
d="M310 0h-102c-17 0 -30 12 -36 29l-167 504c0 20 14 35 32 35h71c16 0 30 -14 35 -30l116 -356l116 356c5 16 19 30 35 30h71c18 0 32 -15 32 -35l-167 -504c-6 -17 -19 -29 -36 -29z" />
    <glyph glyph-name="W" unicode="W" horiz-adv-x="636" 
d="M434 -5c-49 0 -84 13 -112 55c-31 -45 -62 -55 -112 -55c-139 0 -170 59 -170 265v276c0 18 14 32 32 32h69c18 0 32 -14 32 -32v-321c0 -99 24 -99 42 -99c38 0 39 32 39 72v348c0 17 12 32 32 32h69c19 0 32 -14 32 -32v-282c0 -45 3 -138 40 -138c36 0 41 44 41 217
c0 40 -7 158 -20 200c0 20 13 35 32 35h71c18 0 30 -14 32 -30c10 -41 18 -163 18 -206c0 -250 -23 -337 -167 -337z" />
    <glyph glyph-name="X" unicode="X" horiz-adv-x="492" 
d="M334 32l-88 133l-88 -133c-8 -12 -21 -29 -55 -29h-67c-18 0 -31 14 -31 33l162 248c-34 53 -129 197 -162 251c0 19 13 33 31 33h67c33 0 46 -16 55 -30l88 -134l88 134c9 14 22 30 55 30h67c18 0 31 -14 31 -33c-33 -54 -128 -198 -162 -251l162 -248
c0 -19 -13 -33 -31 -33h-67c-34 0 -47 17 -55 29z" />
    <glyph glyph-name="Y" unicode="Y" horiz-adv-x="492" 
d="M313 32c0 -18 -13 -32 -32 -32h-70c-18 0 -32 14 -32 32v133l-174 369c0 20 14 34 32 34h77c15 0 27 -15 34 -29l98 -207l98 207c7 14 19 29 34 29h77c18 0 32 -14 32 -34l-174 -369v-133z" />
    <glyph glyph-name="Z" unicode="Z" horiz-adv-x="414" 
d="M10 116l231 330h-199c-18 0 -32 14 -32 32v58c0 18 14 32 32 32h330c18 0 32 -14 32 -32v-84l-227 -330h195c18 0 32 -14 32 -32v-58c0 -18 -14 -32 -32 -32h-330c-18 0 -32 14 -32 32v84z" />
    <glyph glyph-name="bracketleft" unicode="[" horiz-adv-x="317" 
d="M82 712h153c18 0 32 -14 32 -32v-57c0 -18 -14 -32 -32 -32h-52v-616h52c18 0 32 -14 32 -32v-57c0 -18 -14 -32 -32 -32h-153c-19 0 -32 14 -32 32v794c0 18 13 32 32 32z" />
    <glyph glyph-name="backslash" unicode="\" horiz-adv-x="440" 
d="M148 686l277 -800c0 -19 -14 -32 -32 -32h-67c-20 0 -26 11 -33 24l-278 800c0 19 14 32 32 32h68c18 0 26 -10 33 -24z" />
    <glyph glyph-name="bracketright" unicode="]" horiz-adv-x="317" 
d="M82 712h153c19 0 32 -14 32 -32v-794c0 -18 -13 -32 -32 -32h-153c-18 0 -32 14 -32 32v57c0 18 14 32 32 32h52v616h-52c-18 0 -32 14 -32 32v57c0 18 14 32 32 32z" />
    <glyph glyph-name="asciicircum" unicode="^" horiz-adv-x="388" 
d="M146 568h96c16 0 28 -12 35 -28l71 -154c0 -19 -14 -34 -32 -34h-73c-19 0 -29 12 -34 29l-15 48l-15 -48c-5 -17 -15 -29 -34 -29h-73c-18 0 -32 15 -32 34l71 154c7 16 19 28 35 28z" />
    <glyph glyph-name="underscore" unicode="_" horiz-adv-x="418" 
d="M347 -126h-275c-18 0 -32 13 -32 32v57c0 18 14 32 32 32h275c18 0 31 -14 31 -32v-57c0 -19 -13 -32 -31 -32z" />
    <glyph glyph-name="grave" unicode="`" horiz-adv-x="236" 
d="M175 536l21 -138c0 -18 -13 -33 -32 -33h-56c-17 0 -30 14 -32 30c-10 43 -26 97 -36 139c0 20 13 34 32 34h71c18 0 31 -14 32 -32z" />
    <glyph glyph-name="a" unicode="a" horiz-adv-x="417" 
d="M244 135v154c-71 -4 -91 -48 -91 -98c0 -63 24 -75 51 -75c23 0 40 19 40 19zM356 387c14 -6 21 -19 21 -33v-323c0 -18 -13 -31 -31 -31h-50c-15 0 -23 6 -34 17l-9 11c-41 -31 -78 -33 -92 -33c-111 0 -146 94 -146 197c0 128 76 219 209 219c41 0 82 -7 132 -24z" />
    <glyph glyph-name="b" unicode="b" horiz-adv-x="440" 
d="M277 210c0 60 -28 79 -67 79c-6 0 -25 -2 -37 -10v-157c13 -5 35 -6 41 -6c47 0 63 32 63 94zM40 50v487c0 18 13 31 31 31h71c18 0 31 -13 31 -31v-136c24 9 51 10 61 10c102 0 181 -69 181 -201s-69 -215 -204 -215c-44 0 -104 6 -150 22c-14 6 -21 19 -21 33z" />
    <glyph glyph-name="c" unicode="c" horiz-adv-x="407" 
d="M366 370c11 -8 19 -19 19 -32c0 -4 -1 -6 -23 -52c-5 -13 -16 -18 -28 -18c-5 0 -13 2 -17 5c-34 16 -58 16 -80 16c-39 0 -79 -24 -79 -85c0 -62 40 -88 79 -88c22 0 46 0 80 17c4 3 11 4 17 4c11 0 23 -5 28 -18l23 -52c0 -13 -8 -25 -19 -32c-46 -32 -93 -40 -137 -40
c-134 0 -204 77 -204 209c0 131 70 207 204 207c45 0 92 -8 137 -41z" />
    <glyph glyph-name="d" unicode="d" horiz-adv-x="440" 
d="M163 210c0 -62 16 -94 63 -94c6 0 28 1 41 6v157c-12 8 -31 10 -37 10c-39 0 -67 -19 -67 -79zM400 537v-487c0 -14 -7 -27 -21 -33c-46 -16 -106 -22 -150 -22c-135 0 -204 83 -204 215s79 201 181 201c10 0 37 -1 61 -10v136c0 18 13 31 31 31h71c18 0 31 -13 31 -31z
" />
    <glyph glyph-name="e" unicode="e" horiz-adv-x="414" 
d="M320 135c4 3 11 4 16 4c11 0 20 -6 26 -18l21 -45c1 -3 2 -7 2 -9c0 -13 -8 -24 -18 -32c-47 -37 -100 -40 -144 -40c-135 0 -198 80 -198 212c0 123 57 204 192 204c108 0 170 -56 170 -131c0 -95 -60 -143 -151 -143c-24 0 -52 3 -76 9c0 -25 26 -35 71 -35
c36 0 63 5 89 24zM217 289c-25 0 -48 -14 -58 -34c14 -9 37 -15 49 -15c30 0 46 7 46 25c0 20 -17 24 -37 24z" />
    <glyph glyph-name="f" unicode="f" horiz-adv-x="325" 
d="M284 283h-78v-252c0 -18 -13 -31 -31 -31h-71c-18 0 -31 13 -31 31v252h-36c-19 0 -32 13 -32 31v60c0 18 13 31 32 31h36c5 112 43 202 167 202c21 0 45 -3 73 -12c18 -6 27 -21 27 -39l-14 -55c-4 -13 -15 -23 -29 -23s-28 4 -43 4c-43 0 -48 -51 -48 -77h78
c18 0 32 -13 32 -31v-60c0 -18 -14 -31 -32 -31z" />
    <glyph glyph-name="g" unicode="g" horiz-adv-x="417" 
d="M355 387c15 -6 22 -19 22 -33v-370c0 -64 -1 -203 -195 -203c-41 0 -134 26 -134 122c0 47 18 92 53 113c-57 26 -86 108 -86 176c0 128 76 219 209 219c40 0 83 -7 131 -24zM244 -41v52c-59 -29 -68 -56 -68 -73c0 -11 2 -38 31 -38c22 0 37 27 37 59zM244 125v164
c-71 -3 -91 -48 -91 -98c0 -64 24 -85 51 -85c23 0 40 19 40 19z" />
    <glyph glyph-name="h" unicode="h" horiz-adv-x="427" 
d="M40 31v506c0 18 13 31 31 31h71c18 0 31 -13 31 -31v-154c38 27 70 28 83 28c110 0 141 -80 141 -184v-196c0 -18 -13 -31 -32 -31h-70c-18 0 -31 13 -31 31v192c0 62 -23 66 -51 66c-23 0 -40 -19 -40 -19v-239c0 -18 -13 -31 -31 -31h-71c-18 0 -31 13 -31 31z" />
    <glyph glyph-name="i" unicode="i" 
d="M173 373v-341c0 -18 -14 -32 -32 -32h-70c-18 0 -31 14 -31 32v341c0 18 13 32 31 32h70c18 0 32 -14 32 -32zM35 501c0 40 31 72 71 72s72 -32 72 -72s-32 -71 -72 -71s-71 31 -71 71z" />
    <glyph glyph-name="j" unicode="j" 
d="M-76 -181c-14 3 -20 21 -20 39l14 57c4 14 16 24 32 24c15 -4 31 -8 42 -8c45 0 48 47 48 72v371c0 18 14 31 32 31h69c18 0 32 -13 32 -31v-353c0 -131 -32 -216 -167 -216c-25 0 -53 2 -82 14zM35 501c0 40 31 72 71 72s72 -32 72 -72s-32 -71 -72 -71s-71 31 -71 71z
" />
    <glyph glyph-name="k" unicode="k" horiz-adv-x="423" 
d="M268 29l-27 53c-20 41 -29 51 -42 65c-8 -4 -15 -8 -26 -11v-105c0 -18 -13 -31 -31 -31h-71c-18 0 -31 13 -31 31v506c0 18 13 31 31 31h71c18 0 31 -13 31 -31v-259c34 6 77 48 91 97c4 18 14 30 31 30h71c18 0 31 -14 31 -32c-7 -52 -35 -112 -87 -160
c22 -30 35 -48 54 -81l54 -98c0 -19 -13 -34 -31 -34h-77c-17 0 -34 12 -42 29z" />
    <glyph glyph-name="l" unicode="l" horiz-adv-x="226" 
d="M40 96v440c0 18 13 32 31 32h70c18 0 32 -14 32 -32v-410c0 -17 6 -25 12 -28c10 -6 16 -16 16 -28v-34c0 -17 -10 -26 -28 -32c-23 -8 -39 -9 -54 -9c-75 0 -79 67 -79 101z" />
    <glyph glyph-name="m" unicode="m" horiz-adv-x="578" 
d="M40 31v325c0 14 7 27 21 33c46 15 84 22 128 22c60 0 96 -13 125 -39c41 32 90 38 103 38c112 0 131 -79 131 -183v-196c0 -18 -13 -31 -31 -31h-71c-18 0 -31 13 -31 31v192c0 62 -9 66 -34 66c-7 0 -18 -2 -24 -4c3 -20 4 -42 4 -68v-186c0 -18 -13 -31 -31 -31h-70
c-18 0 -31 13 -31 31v186c0 61 0 73 -37 73c-6 0 -11 -2 -19 -6v-253c0 -18 -13 -31 -31 -31h-71c-18 0 -31 13 -31 31z" />
    <glyph glyph-name="n" unicode="n" horiz-adv-x="427" 
d="M40 31v325c0 14 7 27 21 33c46 15 106 22 150 22c134 0 186 -61 186 -194v-186c0 -18 -13 -31 -32 -31h-70c-18 0 -31 13 -31 31v185c0 61 -4 73 -50 73c-7 0 -29 -1 -41 -6v-252c0 -18 -13 -31 -31 -31h-71c-18 0 -31 13 -31 31z" />
    <glyph glyph-name="o" unicode="o" horiz-adv-x="446" 
d="M223 116c59 0 62 55 62 90s-9 83 -62 83s-62 -48 -62 -83s3 -90 62 -90zM223 -5c-135 0 -198 80 -198 212c0 123 63 204 198 204s198 -81 198 -204c0 -132 -63 -212 -198 -212z" />
    <glyph glyph-name="p" unicode="p" horiz-adv-x="435" 
d="M173 283v-166c9 -1 22 -1 30 -1c39 0 74 20 74 80c0 62 -16 93 -63 93c-6 0 -28 -1 -41 -6zM40 -164v520c0 14 7 27 21 33c46 15 107 22 150 22c135 0 204 -83 204 -215s-69 -201 -204 -201c-11 0 -25 0 -38 2v-161c0 -18 -13 -32 -31 -32h-71c-18 0 -31 14 -31 32z" />
    <glyph glyph-name="q" unicode="q" horiz-adv-x="435" 
d="M158 196c0 -60 36 -80 75 -80c8 0 20 0 29 1v166c-12 5 -34 6 -41 6c-46 0 -63 -31 -63 -93zM395 356v-520c0 -18 -14 -32 -32 -32h-69c-18 0 -32 14 -32 32v161c-12 -1 -29 -2 -38 -2c-134 0 -204 69 -204 201s70 215 204 215c43 0 102 -7 149 -22c13 -6 22 -19 22 -33z
" />
    <glyph glyph-name="r" unicode="r" horiz-adv-x="331" 
d="M211 411c37 0 78 -6 109 -32c10 -8 16 -21 16 -30c0 -4 -2 -9 -3 -13l-19 -46c-4 -12 -17 -20 -29 -20c-7 0 -14 4 -21 7c-18 8 -36 12 -49 12c-11 0 -36 -5 -42 -16v-242c0 -18 -13 -31 -31 -31h-71c-18 0 -31 13 -31 31v308c0 15 8 23 18 32c42 34 106 40 153 40z" />
    <glyph glyph-name="s" unicode="s" horiz-adv-x="380" 
d="M89 121c32 -10 74 -14 91 -14c14 0 52 0 52 20c0 39 -209 1 -209 154c0 69 45 130 175 130c15 0 65 -4 101 -13c15 -2 32 -14 32 -31c0 -8 -1 -21 -5 -53c-5 -20 -12 -26 -23 -26l-12 1c-29 3 -44 5 -64 5c-44 0 -71 -2 -71 -15c0 -41 209 -1 209 -149
c0 -86 -68 -135 -183 -135c-29 0 -88 8 -126 23c-12 6 -25 15 -25 33c2 11 5 24 15 54c4 15 19 17 32 17c3 0 6 0 11 -1z" />
    <glyph glyph-name="t" unicode="t" horiz-adv-x="345" 
d="M254 116c9 0 36 5 40 6c15 0 27 -10 30 -23l16 -51c0 -18 -1 -31 -22 -39c-28 -11 -57 -14 -78 -14c-136 0 -167 85 -167 217v71h-36c-19 0 -32 13 -32 31v60c0 18 13 31 32 31h37l16 133c3 17 13 30 31 30h54c18 0 31 -13 31 -31v-132h81c18 0 32 -13 32 -31v-60
c0 -18 -14 -31 -32 -31h-81v-95c0 -25 2 -72 48 -72z" />
    <glyph glyph-name="u" unicode="u" horiz-adv-x="438" 
d="M265 131v243c0 18 14 31 32 31h69c18 0 32 -13 32 -31v-307c0 -15 -9 -26 -20 -33c-54 -28 -106 -39 -151 -39c-134 0 -197 53 -197 185v194c0 18 13 31 31 31h71c18 0 31 -13 31 -31v-194c0 -60 15 -64 61 -64c8 0 29 2 41 15z" />
    <glyph glyph-name="v" unicode="v" horiz-adv-x="416" 
d="M253 0h-90c-16 0 -28 11 -35 29l-123 345c0 18 13 31 31 31h73c17 0 27 -12 33 -29l67 -195l65 195c5 17 16 29 33 29h73c18 0 31 -13 31 -31l-123 -345c-7 -18 -19 -29 -35 -29z" />
    <glyph glyph-name="w" unicode="w" horiz-adv-x="571" 
d="M391 371c0 21 13 34 31 34h69c17 0 30 -13 32 -30c9 -39 18 -100 18 -142c0 -125 -20 -238 -162 -238c-43 0 -75 17 -96 38c-37 -36 -86 -38 -100 -38c-110 0 -143 77 -143 181v198c0 18 14 31 32 31h69c18 0 32 -13 32 -31v-192c0 -62 9 -66 35 -66c7 0 13 2 18 5
c-2 18 -3 36 -3 57v196c0 18 14 31 32 31h69c18 0 32 -13 32 -31v-192c0 -62 11 -66 25 -66c27 0 27 44 27 118c0 39 -4 95 -17 137z" />
    <glyph glyph-name="x" unicode="x" horiz-adv-x="386" 
d="M228 29l-35 54l-35 -54c-8 -12 -21 -29 -55 -29h-67c-18 0 -31 14 -31 33l109 169c-34 53 -76 116 -109 170c0 19 13 33 31 33h67c33 0 46 -16 55 -30l35 -53l35 53c9 14 22 30 55 30h67c18 0 31 -14 31 -33c-33 -54 -75 -117 -109 -170l109 -169c0 -19 -13 -33 -31 -33
h-67c-34 0 -47 17 -55 29z" />
    <glyph glyph-name="y" unicode="y" horiz-adv-x="427" 
d="M100 7c-47 26 -70 87 -70 156v211c0 18 13 31 31 31h71c18 0 31 -13 31 -31v-207c0 -62 23 -66 51 -66c23 0 40 19 40 19v254c0 18 13 31 31 31h71c18 0 31 -13 31 -31v-390c0 -64 -1 -203 -195 -203c-41 0 -134 26 -134 122c0 39 18 80 42 104zM254 -41v52
c-59 -29 -68 -56 -68 -73c0 -11 2 -38 31 -38c22 0 37 27 37 59z" />
    <glyph glyph-name="z" unicode="z" horiz-adv-x="375" 
d="M355 290l-159 -168h128c18 0 31 -13 31 -31v-60c0 -18 -13 -31 -31 -31h-273c-18 0 -31 13 -31 31v87l156 165h-125c-18 0 -31 13 -31 31v60c0 18 13 31 31 31h273c18 0 31 -13 31 -31v-84z" />
    <glyph glyph-name="braceleft" unicode="{" horiz-adv-x="472" 
d="M81 328h6c40 0 74 8 74 51v114c0 133 20 219 158 219c25 0 53 -5 83 -14c15 -4 20 -22 20 -39l-14 -59c-4 -13 -17 -23 -32 -23c-15 4 -32 8 -42 8c-37 0 -39 -48 -39 -74v-141c0 -40 -13 -80 -56 -102c43 -23 56 -63 56 -103v-110c0 -26 5 -73 39 -73c10 0 27 3 42 7
c15 0 27 -9 32 -24l14 -58c0 -17 -5 -34 -20 -38c-31 -9 -58 -15 -83 -15c-138 0 -158 86 -158 219v84c0 42 -34 50 -74 50h-6c-18 0 -31 13 -31 32v58c0 18 13 31 31 31z" />
    <glyph glyph-name="bar" unicode="|" horiz-adv-x="233" 
d="M183 680v-794c0 -18 -14 -32 -32 -32h-70c-18 0 -31 14 -31 32v794c0 18 13 32 31 32h70c18 0 32 -14 32 -32z" />
    <glyph glyph-name="braceright" unicode="}" horiz-adv-x="472" 
d="M385 328h6c18 0 31 -13 31 -31v-58c0 -19 -13 -32 -31 -32h-6c-40 0 -74 -8 -74 -50v-84c0 -133 -20 -219 -158 -219c-25 0 -52 6 -83 15c-15 4 -20 21 -20 38l14 58c5 15 17 24 32 24c15 -4 32 -7 42 -7c34 0 39 47 39 73v110c0 40 13 80 56 103c-43 22 -56 62 -56 102
v141c0 26 -2 74 -39 74c-10 0 -27 -4 -42 -8c-15 0 -28 10 -32 23l-14 59c0 17 5 35 20 39c30 9 58 14 83 14c138 0 158 -86 158 -219v-114c0 -43 34 -51 74 -51z" />
    <glyph glyph-name="asciitilde" unicode="~" horiz-adv-x="434" 
d="M281 142c-45 0 -82 33 -128 33c-18 0 -32 -15 -52 -15c-10 0 -21 6 -26 14l-29 39c-3 5 -6 13 -6 19c0 8 6 19 14 26c29 22 71 38 99 38c44 0 82 -33 128 -33c18 0 32 14 51 14c10 0 21 -6 26 -13l29 -40c3 -5 7 -12 7 -18c0 -9 -7 -20 -14 -26c-29 -23 -72 -38 -99 -38z
" />
    <glyph glyph-name="ellipsis" unicode="&#x2026;" horiz-adv-x="607" 
d="M40 67c0 40 31 71 71 71s72 -31 72 -71s-32 -72 -72 -72s-71 32 -71 72zM232 67c0 40 31 71 71 71s72 -31 72 -71s-32 -72 -72 -72s-71 32 -71 72zM424 67c0 40 31 71 71 71s72 -31 72 -71s-32 -72 -72 -72s-71 32 -71 72z" />
    <glyph glyph-name="quoteleft" unicode="&#x2018;" horiz-adv-x="264" 
d="M224 540l-2 -5c-31 -47 -43 -82 -43 -140c0 -19 -3 -39 -31 -39h-76c-18 0 -32 15 -32 34c9 44 41 182 108 182h44c18 0 32 -14 32 -32z" />
    <glyph glyph-name="quoteright" unicode="&#x2019;" horiz-adv-x="264" 
d="M40 388l2 5c31 47 42 82 42 140c0 20 3 39 31 39h77c18 0 32 -15 32 -34c-9 -43 -41 -182 -109 -182h-43c-18 0 -32 14 -32 32z" />
    <glyph glyph-name="quotedblleft" unicode="&#x201c;" horiz-adv-x="451" 
d="M223 540l-2 -5c-31 -47 -42 -82 -42 -140c0 -19 -3 -39 -31 -39h-76c-19 0 -32 15 -32 34c8 44 40 182 108 182h43c19 0 32 -14 32 -32zM411 540l-2 -5c-31 -47 -43 -82 -43 -140c0 -19 -3 -39 -31 -39h-76c-18 0 -32 15 -32 34c9 44 41 182 108 182h44
c18 0 32 -14 32 -32z" />
    <glyph glyph-name="quotedblright" unicode="&#x201d;" horiz-adv-x="451" 
d="M227 388l2 5c31 47 43 82 43 140c0 20 2 39 30 39h77c18 0 32 -15 32 -34c-9 -43 -41 -182 -109 -182h-43c-18 0 -32 14 -32 32zM40 388l2 5c31 47 42 82 42 140c0 20 3 39 31 39h76c19 0 32 -15 32 -34c-8 -43 -40 -182 -108 -182h-43c-19 0 -32 14 -32 32z" />
    <glyph glyph-name="bullet" unicode="&#x2022;" horiz-adv-x="223" 
d="M40 184c0 40 31 71 71 71s72 -31 72 -71s-32 -72 -72 -72s-71 32 -71 72z" />
    <glyph glyph-name="endash" unicode="&#x2013;" horiz-adv-x="395" 
d="M323 143h-251c-18 0 -32 14 -32 32v57c0 18 14 32 32 32h251c19 0 32 -14 32 -32v-57c0 -18 -13 -32 -32 -32z" />
    <glyph glyph-name="emdash" unicode="&#x2014;" horiz-adv-x="478" 
d="M406 143h-334c-18 0 -32 14 -32 32v57c0 18 14 32 32 32h334c19 0 32 -14 32 -32v-57c0 -18 -13 -32 -32 -32z" />
    <glyph glyph-name="uni00A0" unicode="&#xa0;" horiz-adv-x="190" 
 />
    <glyph glyph-name="uni25CC" unicode="&#x25cc;" horiz-adv-x="512" 
 />
    <glyph glyph-name="ZWSP" unicode="&#x200b;" horiz-adv-x="0" 
 />
    <glyph glyph-name="onequarter" unicode="&#xbc;" horiz-adv-x="739" 
d="M174 34l247 505c10 17 26 29 44 29h47c18 0 31 -14 31 -34l-246 -505c-8 -14 -19 -29 -35 -29h-56c-18 0 -32 14 -32 34zM46 508l94 60h81c12 0 21 -9 21 -21v-278c0 -13 -9 -22 -21 -22h-68c-11 0 -22 9 -22 22v174l-67 -43c-14 0 -24 10 -24 22v71c0 4 3 12 6 15z
M652 142h20c6 0 13 -7 13 -14v-62c0 -7 -7 -13 -13 -13h-20v-31c0 -13 -9 -22 -21 -22h-60c-11 0 -22 9 -22 22v31h-120c-8 0 -14 6 -14 13v76l120 176c6 7 15 14 23 14h73c12 0 21 -9 21 -21v-169zM518 142h38v57z" />
    <glyph glyph-name="onehalf" unicode="&#xbd;" horiz-adv-x="725" 
d="M174 34l247 505c10 17 26 29 44 29h47c18 0 31 -14 31 -34l-246 -505c-8 -14 -19 -29 -35 -29h-56c-18 0 -32 14 -32 34zM46 508l94 60h81c12 0 21 -9 21 -21v-278c0 -13 -9 -22 -21 -22h-68c-11 0 -22 9 -22 22v174l-67 -43c-14 0 -24 10 -24 22v71c0 4 3 12 6 15z
M479 321c28 8 67 11 79 11c100 0 125 -35 125 -101c0 -102 -103 -104 -103 -128v-5h92c7 0 13 -6 13 -13v-72c0 -7 -6 -13 -13 -13h-201c-7 0 -13 6 -13 13v75c0 98 114 106 114 130c0 9 -3 16 -37 16c-9 0 -29 -3 -51 -5c-8 0 -15 0 -16 10c-2 19 -2 66 -2 70
c0 6 7 11 13 12z" />
    <glyph glyph-name="threequarters" unicode="&#xbe;" horiz-adv-x="714" 
d="M424 539l-247 -505c0 -20 14 -34 32 -34h56c16 0 27 15 35 29l246 505c0 20 -13 34 -31 34h-47c-18 0 -34 -12 -44 -29zM130 365h-26c-7 0 -13 5 -13 12v56c0 7 6 12 13 12h19c32 0 32 3 32 13s-2 16 -25 16c-8 0 -50 -5 -72 -8c-8 0 -15 2 -16 12c-1 19 -2 62 -2 66
c0 13 6 16 13 18c28 7 92 10 104 10c75 0 109 -43 109 -100c0 -28 -19 -56 -36 -67c18 -14 33 -38 33 -64c0 -61 -37 -101 -112 -101c-12 0 -69 4 -97 11c-7 2 -14 6 -14 13c0 4 1 48 2 67c1 10 8 12 16 12c22 -3 58 -6 66 -6c22 0 28 2 28 15s-9 13 -22 13zM641 142h20
c6 0 13 -7 13 -14v-62c0 -7 -7 -13 -13 -13h-20v-31c0 -13 -9 -22 -21 -22h-60c-11 0 -22 9 -22 22v31h-120c-8 0 -14 6 -14 13v76l120 176c6 7 15 14 23 14h73c12 0 21 -9 21 -21v-169zM507 142h38v57z" />
    <glyph glyph-name="questiondown" unicode="&#xbf;" horiz-adv-x="437" 
d="M335 359v15c0 19 -14 32 -32 32h-69c-18 0 -32 -13 -32 -32v-10c0 -101 -162 -38 -162 -197c0 -96 21 -172 205 -172c21 0 74 5 121 18c15 4 31 15 31 32c0 8 -1 22 -3 54c-3 26 -19 29 -39 29c-38 -4 -90 -10 -103 -10c-62 0 -79 8 -79 43c0 78 162 -4 162 198zM340 500
c0 -40 -31 -71 -71 -71s-72 31 -72 71s32 72 72 72s71 -32 71 -72z" />
    <glyph glyph-name="Superstore" horiz-adv-x="585" 
d="M291 505c141 0 254 -113 254 -254c0 -138 -113 -251 -254 -251c-138 0 -251 113 -251 251c0 141 113 254 251 254zM398 90c19 0 32 6 32 27c0 22 -7 30 -24 30v133c0 35 -15 56 -32 71c6 2 13 2 19 2c7 0 13 0 19 -2h11v65c-41 -5 -84 -15 -115 -32c-12 2 -21 2 -37 2
c-31 0 -57 -3 -88 -14v-63h6c25 8 55 16 76 16c24 0 74 0 74 -43l-82 -8c-48 -4 -102 -18 -102 -92c0 -56 43 -92 102 -92c14 0 30 0 43 3v54l-6 4c-9 -4 -15 -4 -23 -4c-21 0 -45 11 -45 41c0 22 14 25 113 41v-71c0 -48 10 -68 50 -68h9z" />
    <glyph glyph-name="yen" unicode="&#xa5;" horiz-adv-x="562" 
d="M348 32c0 -18 -13 -32 -32 -32h-70c-18 0 -32 14 -32 32v45h-75c-16 0 -27 12 -27 28v50c0 16 11 28 27 28h66l-11 23h-55c-16 0 -27 12 -27 28v50c0 16 11 28 27 28h5l-104 222c0 20 14 34 32 34h77c15 0 27 -15 34 -29l98 -207l98 207c7 14 19 29 34 29h77
c18 0 32 -14 32 -34l-105 -222h6c16 0 28 -12 28 -28v-50c0 -16 -12 -28 -28 -28h-56l-11 -23h67c16 0 28 -12 28 -28v-50c0 -16 -12 -28 -28 -28h-75v-45z" />
    <glyph glyph-name="Euro" unicode="&#x20ac;" horiz-adv-x="563" 
d="M72 407h50c37 131 135 165 241 165c45 0 94 -12 140 -42c11 -7 20 -19 20 -32c0 -4 -1 -5 -23 -51c-5 -13 -18 -19 -29 -19c-5 0 -13 3 -17 5c-32 14 -62 17 -82 17c-26 0 -70 -3 -100 -43h48c19 0 32 -14 32 -32v-36c0 -19 -13 -32 -32 -32h-79c-1 -9 -1 -18 -1 -27v-17
h80c19 0 32 -14 32 -32v-36c0 -19 -13 -32 -32 -32h-45c30 -37 72 -47 97 -47c22 0 40 5 82 20c5 2 11 5 17 5c11 0 24 -6 29 -18l23 -53c0 -13 -10 -25 -20 -32c-47 -31 -95 -43 -140 -43c-106 0 -203 45 -240 168h-51c-19 0 -32 13 -32 32v36c0 18 13 32 32 32h35v44h-35
c-19 0 -32 13 -32 32v36c0 18 13 32 32 32z" />
    <glyph glyph-name="ocircumflex" unicode="&#xf4;" horiz-adv-x="446" 
d="M223 116c59 0 62 55 62 90s-9 83 -62 83s-62 -48 -62 -83s3 -90 62 -90zM223 -5c-135 0 -198 80 -198 212c0 123 63 204 198 204s198 -81 198 -204c0 -132 -63 -212 -198 -212zM175 650h96c16 0 28 -12 35 -28l71 -132c0 -19 -14 -34 -32 -34h-67c-19 0 -29 12 -34 29
l-21 48l-20 -48c-5 -17 -15 -29 -34 -29h-68c-18 0 -32 15 -32 34l71 132c7 16 19 28 35 28z" />
    <glyph glyph-name="Agrave" unicode="&#xc0;" horiz-adv-x="516" 
d="M270 799l91 -105c4 -7 6 -14 6 -18c0 -10 -15 -25 -16 -26l-16 -16c-8 -8 -16 -16 -28 -16c-11 0 -22 4 -31 10c-104 85 -105 85 -105 86c-3 6 -4 10 -4 15c0 13 6 20 12 27l43 49c5 4 13 7 24 7c12 -2 14 -3 24 -13zM260 362l-40 -115h80zM516 37c0 -32 -42 -42 -71 -42
c-54 0 -71 41 -83 73c-5 13 -6 20 -20 56h-165l-32 -94c-4 -16 -18 -30 -34 -30h-74c-18 0 -32 14 -32 32l175 507c6 17 20 29 36 29h87c16 0 30 -12 36 -29l143 -409c6 -16 11 -28 17 -31c10 -5 17 -16 17 -28v-34z" />
    <glyph glyph-name="Aacute" unicode="&#xc1;" horiz-adv-x="516" 
d="M168 694l91 105c10 10 12 11 24 13c11 0 19 -3 24 -7l43 -49c6 -7 12 -14 12 -27c0 -5 -1 -9 -4 -15c0 -1 -1 -1 -105 -86c-9 -6 -20 -10 -31 -10c-12 0 -20 8 -28 16l-16 16c-1 1 -16 16 -16 26c0 4 2 11 6 18zM260 362l-40 -115h80zM516 37c0 -32 -42 -42 -71 -42
c-54 0 -71 41 -83 73c-5 13 -6 20 -20 56h-165l-32 -94c-4 -16 -18 -30 -34 -30h-74c-18 0 -32 14 -32 32l175 507c6 17 20 29 36 29h87c16 0 30 -12 36 -29l143 -409c6 -16 11 -28 17 -31c10 -5 17 -16 17 -28v-34z" />
    <glyph glyph-name="Acircumflex" unicode="&#xc2;" horiz-adv-x="516" 
d="M260 362l-40 -115h80zM516 37c0 -32 -42 -42 -71 -42c-54 0 -71 41 -83 73c-5 13 -6 20 -20 56h-165l-32 -94c-4 -16 -18 -30 -34 -30h-74c-18 0 -32 14 -32 32l175 507c6 17 20 29 36 29h87c16 0 30 -12 36 -29l143 -409c6 -16 11 -28 17 -31c10 -5 17 -16 17 -28v-34z
M212 812h96c16 0 28 -12 35 -28l71 -132c0 -19 -14 -34 -32 -34h-67c-19 0 -29 12 -34 29l-21 48l-20 -48c-5 -17 -15 -29 -34 -29h-68c-18 0 -32 15 -32 34l71 132c7 16 19 28 35 28z" />
    <glyph glyph-name="Atilde" unicode="&#xc3;" horiz-adv-x="516" 
d="M260 362l-40 -115h80zM516 37c0 -32 -42 -42 -71 -42c-54 0 -71 41 -83 73c-5 13 -6 20 -20 56h-165l-32 -94c-4 -16 -18 -30 -34 -30h-74c-18 0 -32 14 -32 32l175 507c6 17 20 29 36 29h87c16 0 30 -12 36 -29l143 -409c6 -16 11 -28 17 -31c10 -5 17 -16 17 -28v-34z
M324 618c-45 0 -82 33 -128 33c-18 0 -32 -15 -52 -15c-10 0 -21 6 -26 14l-29 39c-3 5 -6 13 -6 19c0 8 6 19 14 26c29 22 71 38 99 38c44 0 82 -33 128 -33c18 0 32 14 51 14c10 0 21 -6 26 -13l29 -40c3 -5 7 -12 7 -18c0 -9 -7 -20 -14 -26c-29 -23 -72 -38 -99 -38z
" />
    <glyph glyph-name="Adieresis" unicode="&#xc4;" horiz-adv-x="516" 
d="M260 362l-40 -115h80zM516 37c0 -32 -42 -42 -71 -42c-54 0 -71 41 -83 73c-5 13 -6 20 -20 56h-165l-32 -94c-4 -16 -18 -30 -34 -30h-74c-18 0 -32 14 -32 32l175 507c6 17 20 29 36 29h87c16 0 30 -12 36 -29l143 -409c6 -16 11 -28 17 -31c10 -5 17 -16 17 -28v-34z
M101 690c0 40 31 71 71 71s72 -31 72 -71s-32 -72 -72 -72s-71 32 -71 72zM277 690c0 40 31 71 71 71s72 -31 72 -71s-32 -72 -72 -72s-71 32 -71 72z" />
    <glyph glyph-name="copyright" unicode="&#xa9;" horiz-adv-x="657" 
d="M328 572c160 0 289 -129 289 -289s-129 -288 -289 -288s-288 128 -288 288s128 289 288 289zM329 90c108 0 194 86 194 194c0 107 -86 194 -194 194c-107 0 -194 -87 -194 -194c0 -108 87 -194 194 -194zM429 400c6 -4 11 -11 11 -18c0 -2 -1 -10 -16 -43
c-3 -6 -9 -9 -15 -9c-3 0 -7 1 -10 3c-27 12 -45 12 -62 12c-33 0 -58 -13 -58 -63c0 -51 25 -65 58 -65c17 0 36 0 62 14c3 1 7 2 10 2c6 0 12 -3 19 -17c11 -25 12 -35 12 -37c0 -6 -5 -13 -11 -18c-32 -24 -67 -28 -99 -28c-95 0 -145 55 -145 149s50 147 145 147
c32 0 67 -4 99 -29z" />
    <glyph glyph-name="agrave" unicode="&#xe0;" horiz-adv-x="417" 
d="M244 135v154c-71 -4 -91 -48 -91 -98c0 -63 24 -75 51 -75c23 0 40 19 40 19zM356 387c14 -6 21 -19 21 -33v-323c0 -18 -13 -31 -31 -31h-50c-15 0 -23 6 -34 17l-9 11c-41 -31 -78 -33 -92 -33c-111 0 -146 94 -146 197c0 128 76 219 209 219c41 0 82 -7 132 -24z
M215 637l91 -105c4 -7 6 -14 6 -18c0 -10 -15 -25 -16 -26l-16 -16c-8 -8 -16 -16 -28 -16c-11 0 -22 4 -31 10c-104 85 -105 85 -105 86c-3 6 -4 10 -4 15c0 13 6 20 12 27l43 49c5 4 13 7 24 7c12 -2 14 -3 24 -13z" />
    <glyph glyph-name="aacute" unicode="&#xe1;" horiz-adv-x="417" 
d="M244 135v154c-71 -4 -91 -48 -91 -98c0 -63 24 -75 51 -75c23 0 40 19 40 19zM356 387c14 -6 21 -19 21 -33v-323c0 -18 -13 -31 -31 -31h-50c-15 0 -23 6 -34 17l-9 11c-41 -31 -78 -33 -92 -33c-111 0 -146 94 -146 197c0 128 76 219 209 219c41 0 82 -7 132 -24z
M127 532l91 105c10 10 12 11 24 13c11 0 19 -3 24 -7l43 -49c6 -7 12 -14 12 -27c0 -5 -1 -9 -4 -15c0 -1 -1 -1 -105 -86c-9 -6 -20 -10 -31 -10c-12 0 -20 8 -28 16l-16 16c-1 1 -16 16 -16 26c0 4 2 11 6 18z" />
    <glyph glyph-name="acircumflex" unicode="&#xe2;" horiz-adv-x="417" 
d="M244 135v154c-71 -4 -91 -48 -91 -98c0 -63 24 -75 51 -75c23 0 40 19 40 19zM356 387c14 -6 21 -19 21 -33v-323c0 -18 -13 -31 -31 -31h-50c-15 0 -23 6 -34 17l-9 11c-41 -31 -78 -33 -92 -33c-111 0 -146 94 -146 197c0 128 76 219 209 219c41 0 82 -7 132 -24z
M151 650h96c16 0 28 -12 35 -28l71 -132c0 -19 -14 -34 -32 -34h-67c-19 0 -29 12 -34 29l-21 48l-20 -48c-5 -17 -15 -29 -34 -29h-68c-18 0 -32 15 -32 34l71 132c7 16 19 28 35 28z" />
    <glyph glyph-name="atilde" unicode="&#xe3;" horiz-adv-x="417" 
d="M244 135v154c-71 -4 -91 -48 -91 -98c0 -63 24 -75 51 -75c23 0 40 19 40 19zM356 387c14 -6 21 -19 21 -33v-323c0 -18 -13 -31 -31 -31h-50c-15 0 -23 6 -34 17l-9 11c-41 -31 -78 -33 -92 -33c-111 0 -146 94 -146 197c0 128 76 219 209 219c41 0 82 -7 132 -24z
M261 456c-45 0 -82 33 -128 33c-18 0 -32 -15 -52 -15c-10 0 -21 6 -26 14l-29 39c-3 5 -6 13 -6 19c0 8 6 19 14 26c29 22 71 38 99 38c44 0 82 -33 128 -33c18 0 32 14 51 14c10 0 21 -6 26 -13l29 -40c3 -5 7 -12 7 -18c0 -9 -7 -20 -14 -26c-29 -23 -72 -38 -99 -38z
" />
    <glyph glyph-name="adieresis" unicode="&#xe4;" horiz-adv-x="417" 
d="M244 135v154c-71 -4 -91 -48 -91 -98c0 -63 24 -75 51 -75c23 0 40 19 40 19zM356 387c14 -6 21 -19 21 -33v-323c0 -18 -13 -31 -31 -31h-50c-15 0 -23 6 -34 17l-9 11c-41 -31 -78 -33 -92 -33c-111 0 -146 94 -146 197c0 128 76 219 209 219c41 0 82 -7 132 -24z
M34 528c0 40 31 71 71 71s72 -31 72 -71s-32 -72 -72 -72s-71 32 -71 72zM210 528c0 40 31 71 71 71s72 -31 72 -71s-32 -72 -72 -72s-71 32 -71 72z" />
    <glyph glyph-name="egrave" unicode="&#xe8;" horiz-adv-x="414" 
d="M320 135c4 3 11 4 16 4c11 0 20 -6 26 -18l21 -45c1 -3 2 -7 2 -9c0 -13 -8 -24 -18 -32c-47 -37 -100 -40 -144 -40c-135 0 -198 80 -198 212c0 123 57 204 192 204c108 0 170 -56 170 -131c0 -95 -60 -143 -151 -143c-24 0 -52 3 -76 9c0 -25 26 -35 71 -35
c36 0 63 5 89 24zM217 289c-25 0 -48 -14 -58 -34c14 -9 37 -15 49 -15c30 0 46 7 46 25c0 20 -17 24 -37 24zM234 637l91 -105c4 -7 6 -14 6 -18c0 -10 -15 -25 -16 -26l-16 -16c-8 -8 -16 -16 -28 -16c-11 0 -22 4 -31 10c-104 85 -105 85 -105 86c-3 6 -4 10 -4 15
c0 13 6 20 12 27l43 49c5 4 13 7 24 7c12 -2 14 -3 24 -13z" />
    <glyph glyph-name="eacute" unicode="&#xe9;" horiz-adv-x="414" 
d="M320 135c4 3 11 4 16 4c11 0 20 -6 26 -18l21 -45c1 -3 2 -7 2 -9c0 -13 -8 -24 -18 -32c-47 -37 -100 -40 -144 -40c-135 0 -198 80 -198 212c0 123 57 204 192 204c108 0 170 -56 170 -131c0 -95 -60 -143 -151 -143c-24 0 -52 3 -76 9c0 -25 26 -35 71 -35
c36 0 63 5 89 24zM217 289c-25 0 -48 -14 -58 -34c14 -9 37 -15 49 -15c30 0 46 7 46 25c0 20 -17 24 -37 24zM137 532l91 105c10 10 12 11 24 13c11 0 19 -3 24 -7l43 -49c6 -7 12 -14 12 -27c0 -5 -1 -9 -4 -15c0 -1 -1 -1 -105 -86c-9 -6 -20 -10 -31 -10
c-12 0 -20 8 -28 16l-16 16c-1 1 -16 16 -16 26c0 4 2 11 6 18z" />
    <glyph glyph-name="ecircumflex" unicode="&#xea;" horiz-adv-x="414" 
d="M320 135c4 3 11 4 16 4c11 0 20 -6 26 -18l21 -45c1 -3 2 -7 2 -9c0 -13 -8 -24 -18 -32c-47 -37 -100 -40 -144 -40c-135 0 -198 80 -198 212c0 123 57 204 192 204c108 0 170 -56 170 -131c0 -95 -60 -143 -151 -143c-24 0 -52 3 -76 9c0 -25 26 -35 71 -35
c36 0 63 5 89 24zM217 289c-25 0 -48 -14 -58 -34c14 -9 37 -15 49 -15c30 0 46 7 46 25c0 20 -17 24 -37 24zM173 650h96c16 0 28 -12 35 -28l71 -132c0 -19 -14 -34 -32 -34h-67c-19 0 -29 12 -34 29l-21 48l-20 -48c-5 -17 -15 -29 -34 -29h-68c-18 0 -32 15 -32 34
l71 132c7 16 19 28 35 28z" />
    <glyph glyph-name="edieresis" unicode="&#xeb;" horiz-adv-x="414" 
d="M320 135c4 3 11 4 16 4c11 0 20 -6 26 -18l21 -45c1 -3 2 -7 2 -9c0 -13 -8 -24 -18 -32c-47 -37 -100 -40 -144 -40c-135 0 -198 80 -198 212c0 123 57 204 192 204c108 0 170 -56 170 -131c0 -95 -60 -143 -151 -143c-24 0 -52 3 -76 9c0 -25 26 -35 71 -35
c36 0 63 5 89 24zM217 289c-25 0 -48 -14 -58 -34c14 -9 37 -15 49 -15c30 0 46 7 46 25c0 20 -17 24 -37 24zM44 528c0 40 31 71 71 71s72 -31 72 -71s-32 -72 -72 -72s-71 32 -71 72zM220 528c0 40 31 71 71 71s72 -31 72 -71s-32 -72 -72 -72s-71 32 -71 72z" />
    <glyph glyph-name="Ograve" unicode="&#xd2;" horiz-adv-x="558" 
d="M280 116c38 0 114 10 114 164c0 162 -75 170 -115 170s-115 -8 -115 -170c0 -154 76 -164 116 -164zM280 -5c-136 0 -250 63 -250 285c0 237 115 292 249 292s249 -55 249 -292c0 -222 -114 -285 -248 -285zM281 798l91 -105c4 -7 6 -14 6 -18c0 -10 -15 -25 -16 -26
l-16 -16c-8 -8 -16 -16 -28 -16c-11 0 -22 4 -31 10c-104 85 -105 85 -105 86c-3 6 -4 10 -4 15c0 13 6 20 12 27l43 49c5 4 13 7 24 7c12 -2 14 -3 24 -13z" />
    <glyph glyph-name="Oacute" unicode="&#xd3;" horiz-adv-x="558" 
d="M278 116c40 0 116 10 116 164c0 162 -75 170 -115 170s-115 -8 -115 -170c0 -154 76 -164 114 -164zM278 -5c-134 0 -248 63 -248 285c0 237 115 292 249 292s249 -55 249 -292c0 -222 -114 -285 -250 -285zM186 693l91 105c10 10 12 11 24 13c11 0 19 -3 24 -7l43 -49
c6 -7 12 -14 12 -27c0 -5 -1 -9 -4 -15c0 -1 -1 -1 -105 -86c-9 -6 -20 -10 -31 -10c-12 0 -20 8 -28 16l-16 16c-1 1 -16 16 -16 26c0 4 2 11 6 18z" />
    <glyph glyph-name="Ocircumflex" unicode="&#xd4;" horiz-adv-x="558" 
d="M280 116c38 0 114 10 114 164c0 162 -75 170 -115 170s-115 -8 -115 -170c0 -154 76 -164 116 -164zM280 -5c-136 0 -250 63 -250 285c0 237 115 292 249 292s249 -55 249 -292c0 -222 -114 -285 -248 -285zM231 812h96c16 0 28 -12 35 -28l71 -132
c0 -19 -14 -34 -32 -34h-67c-19 0 -29 12 -34 29l-21 48l-20 -48c-5 -17 -15 -29 -34 -29h-68c-18 0 -32 15 -32 34l71 132c7 16 19 28 35 28z" />
    <glyph glyph-name="Otilde" unicode="&#xd5;" horiz-adv-x="558" 
d="M280 116c38 0 114 10 114 164c0 162 -75 170 -115 170s-115 -8 -115 -170c0 -154 76 -164 116 -164zM280 -5c-136 0 -250 63 -250 285c0 237 115 292 249 292s249 -55 249 -292c0 -222 -114 -285 -248 -285zM342 618c-45 0 -82 33 -128 33c-18 0 -32 -15 -52 -15
c-10 0 -21 6 -26 14l-29 39c-3 5 -6 13 -6 19c0 8 6 19 14 26c29 22 71 38 99 38c44 0 82 -33 128 -33c18 0 32 14 51 14c10 0 21 -6 26 -13l29 -40c3 -5 7 -12 7 -18c0 -9 -7 -20 -14 -26c-29 -23 -72 -38 -99 -38z" />
    <glyph glyph-name="Odieresis" unicode="&#xd6;" horiz-adv-x="558" 
d="M280 116c38 0 114 10 114 164c0 162 -75 170 -115 170s-115 -8 -115 -170c0 -154 76 -164 116 -164zM280 -5c-136 0 -250 63 -250 285c0 237 115 292 249 292s249 -55 249 -292c0 -222 -114 -285 -248 -285zM119 690c0 40 31 71 71 71s72 -31 72 -71s-32 -72 -72 -72
s-71 32 -71 72zM295 690c0 40 31 71 71 71s72 -31 72 -71s-32 -72 -72 -72s-71 32 -71 72z" />
    <glyph glyph-name="igrave" unicode="&#xec;" 
d="M173 373v-341c0 -18 -14 -32 -32 -32h-70c-18 0 -31 14 -31 32v341c0 18 13 32 31 32h70c18 0 32 -14 32 -32zM106 636l91 -105c4 -7 6 -14 6 -18c0 -10 -15 -25 -16 -26l-16 -16c-8 -8 -16 -16 -28 -16c-11 0 -22 4 -31 10c-104 85 -105 85 -105 86c-3 6 -4 10 -4 15
c0 13 6 20 12 27l43 49c5 4 13 7 24 7c12 -2 14 -3 24 -13z" />
    <glyph glyph-name="iacute" unicode="&#xed;" horiz-adv-x="214" 
d="M40 32v341c0 18 14 32 32 32h70c18 0 31 -14 31 -32v-341c0 -18 -13 -32 -31 -32h-70c-18 0 -32 14 -32 32zM16 531l91 105c10 10 12 11 24 13c11 0 19 -3 24 -7l43 -49c6 -7 12 -14 12 -27c0 -5 -1 -9 -4 -15c0 -1 -1 -1 -105 -86c-9 -6 -20 -10 -31 -10
c-12 0 -20 8 -28 16l-16 16c-1 1 -16 16 -16 26c0 4 2 11 6 18z" />
    <glyph glyph-name="icircumflex" unicode="&#xee;" 
d="M40 32v341c0 18 14 32 32 32h70c18 0 31 -14 31 -32v-341c0 -18 -13 -32 -31 -32h-70c-18 0 -32 14 -32 32zM58 650h96c16 0 28 -12 35 -28l71 -132c0 -19 -14 -34 -32 -34h-67c-19 0 -29 12 -34 29l-21 48l-20 -48c-5 -17 -15 -29 -34 -29h-68c-18 0 -32 15 -32 34
l71 132c7 16 19 28 35 28z" />
    <glyph glyph-name="idieresis" unicode="&#xef;" 
d="M40 32v341c0 18 14 32 32 32h70c18 0 31 -14 31 -32v-341c0 -18 -13 -32 -31 -32h-70c-18 0 -32 14 -32 32zM-53 528c0 40 31 71 71 71s72 -31 72 -71s-32 -72 -72 -72s-71 32 -71 72zM123 528c0 40 31 71 71 71s72 -31 72 -71s-32 -72 -72 -72s-71 32 -71 72z" />
    <glyph glyph-name="oacute" unicode="&#xf3;" horiz-adv-x="446" 
d="M223 116c59 0 62 55 62 90s-9 83 -62 83s-62 -48 -62 -83s3 -90 62 -90zM223 -5c-135 0 -198 80 -198 212c0 123 63 204 198 204s198 -81 198 -204c0 -132 -63 -212 -198 -212zM130 532l91 105c10 10 12 11 24 13c11 0 19 -3 24 -7l43 -49c6 -7 12 -14 12 -27
c0 -5 -1 -9 -4 -15c0 -1 -1 -1 -105 -86c-9 -6 -20 -10 -31 -10c-12 0 -20 8 -28 16l-16 16c-1 1 -16 16 -16 26c0 4 2 11 6 18z" />
    <glyph glyph-name="ograve" unicode="&#xf2;" horiz-adv-x="446" 
d="M223 116c59 0 62 55 62 90s-9 83 -62 83s-62 -48 -62 -83s3 -90 62 -90zM223 -5c-135 0 -198 80 -198 212c0 123 63 204 198 204s198 -81 198 -204c0 -132 -63 -212 -198 -212zM225 637l91 -105c4 -7 6 -14 6 -18c0 -10 -15 -25 -16 -26l-16 -16c-8 -8 -16 -16 -28 -16
c-11 0 -22 4 -31 10c-104 85 -105 85 -105 86c-3 6 -4 10 -4 15c0 13 6 20 12 27l43 49c5 4 13 7 24 7c12 -2 14 -3 24 -13z" />
    <glyph glyph-name="ntilde" unicode="&#xf1;" horiz-adv-x="427" 
d="M40 31v325c0 14 7 27 21 33c46 15 106 22 150 22c134 0 186 -61 186 -194v-186c0 -18 -13 -31 -32 -31h-70c-18 0 -31 13 -31 31v185c0 61 -4 73 -50 73c-7 0 -29 -1 -41 -6v-252c0 -18 -13 -31 -31 -31h-71c-18 0 -31 13 -31 31zM283 456c-45 0 -82 33 -128 33
c-18 0 -32 -15 -52 -15c-10 0 -21 6 -26 14l-29 39c-3 5 -6 13 -6 19c0 8 6 19 14 26c29 22 71 38 99 38c44 0 82 -33 128 -33c18 0 32 14 51 14c10 0 21 -6 26 -13l29 -40c3 -5 7 -12 7 -18c0 -9 -7 -20 -14 -26c-29 -23 -72 -38 -99 -38z" />
    <glyph glyph-name="ydieresis" unicode="&#xff;" horiz-adv-x="427" 
d="M100 7c-47 26 -70 87 -70 156v211c0 18 13 31 31 31h71c18 0 31 -13 31 -31v-207c0 -62 23 -66 51 -66c23 0 40 19 40 19v254c0 18 13 31 31 31h71c18 0 31 -13 31 -31v-390c0 -64 -1 -203 -195 -203c-41 0 -134 26 -134 122c0 39 18 80 42 104zM254 -41v52
c-59 -29 -68 -56 -68 -73c0 -11 2 -38 31 -38c22 0 37 27 37 59zM48 528c0 40 31 71 71 71s72 -31 72 -71s-32 -72 -72 -72s-71 32 -71 72zM224 528c0 40 31 71 71 71s72 -31 72 -71s-32 -72 -72 -72s-71 32 -71 72z" />
    <glyph glyph-name="plusminus" unicode="&#xb1;" horiz-adv-x="393" 
d="M321 373c19 0 32 -14 32 -32v-57c0 -19 -13 -32 -32 -32h-58v-67c0 -18 -13 -32 -32 -32h-69c-18 0 -32 14 -32 32v67h-58c-18 0 -32 13 -32 32v57c0 18 14 32 32 32h58v68c0 19 14 32 32 32h69c19 0 32 -13 32 -32v-68h58zM321 0h-249c-18 0 -32 14 -32 32v57
c0 18 14 32 32 32h249c19 0 32 -14 32 -32v-57c0 -18 -13 -32 -32 -32z" />
    <glyph glyph-name="onesuperior" unicode="&#xb9;" horiz-adv-x="282" 
d="M46 508l94 60h81c12 0 21 -9 21 -21v-278c0 -13 -9 -22 -21 -22h-68c-11 0 -22 9 -22 22v174l-67 -43c-14 0 -24 10 -24 22v71c0 4 3 12 6 15z" />
    <glyph glyph-name="twosuperior" unicode="&#xb2;" horiz-adv-x="307" 
d="M61 561c28 8 67 11 79 11c100 0 125 -35 125 -101c0 -102 -103 -104 -103 -128v-5h92c7 0 13 -6 13 -13v-72c0 -7 -6 -13 -13 -13h-201c-7 0 -13 6 -13 13v75c0 98 114 106 114 130c0 9 -3 16 -37 16c-9 0 -29 -3 -51 -5c-8 0 -15 0 -16 10c-2 19 -2 66 -2 70
c0 6 7 11 13 12z" />
    <glyph glyph-name="threesuperior" unicode="&#xb3;" horiz-adv-x="306" 
d="M130 365h-26c-7 0 -13 5 -13 12v56c0 7 6 12 13 12h19c32 0 32 3 32 13s-2 16 -25 16c-8 0 -50 -5 -72 -8c-8 0 -15 2 -16 12c-1 19 -2 62 -2 66c0 13 6 16 13 18c28 7 92 10 104 10c75 0 109 -43 109 -100c0 -28 -19 -56 -36 -67c18 -14 33 -38 33 -64
c0 -61 -37 -101 -112 -101c-12 0 -69 4 -97 11c-7 2 -14 6 -14 13c0 4 1 48 2 67c1 10 8 12 16 12c22 -3 58 -6 66 -6c22 0 28 2 28 15s-9 13 -22 13z" />
    <glyph glyph-name="Aring" unicode="&#xc5;" horiz-adv-x="516" 
d="M260 362l-40 -115h80zM516 37c0 -32 -42 -42 -71 -42c-54 0 -71 41 -83 73c-5 13 -6 20 -20 56h-165l-32 -94c-4 -16 -18 -30 -34 -30h-74c-18 0 -32 14 -32 32l175 507c6 17 20 29 36 29h87c16 0 30 -12 36 -29l143 -409c6 -16 11 -28 17 -31c10 -5 17 -16 17 -28v-34z
M260 714c7 0 27 4 27 31c0 25 -20 30 -27 30c-8 0 -28 -5 -28 -30c0 -27 20 -31 28 -31zM260 618c-72 0 -122 40 -122 127s50 127 122 127c71 0 121 -40 121 -127s-50 -127 -121 -127z" />
    <glyph glyph-name="degree" unicode="&#xb0;" horiz-adv-x="323" 
d="M162 414c7 0 27 4 27 31c0 25 -20 30 -27 30c-8 0 -28 -5 -28 -30c0 -27 20 -31 28 -31zM162 318c-72 0 -122 40 -122 127s50 127 122 127c71 0 121 -40 121 -127s-50 -127 -121 -127z" />
    <glyph glyph-name="aring" unicode="&#xe5;" horiz-adv-x="417" 
d="M244 135v154c-71 -4 -91 -48 -91 -98c0 -63 24 -75 51 -75c23 0 40 19 40 19zM356 387c14 -6 21 -19 21 -33v-323c0 -18 -13 -31 -31 -31h-50c-15 0 -23 6 -34 17l-9 11c-41 -31 -78 -33 -92 -33c-111 0 -146 94 -146 197c0 128 76 219 209 219c41 0 82 -7 132 -24z
M220 552c7 0 27 4 27 31c0 25 -20 30 -27 30c-8 0 -28 -5 -28 -30c0 -27 20 -31 28 -31zM220 456c-72 0 -122 40 -122 127s50 127 122 127c71 0 121 -40 121 -127s-50 -127 -121 -127z" />
    <glyph glyph-name="Ugrave" unicode="&#xd9;" horiz-adv-x="528" 
d="M264 -5c-137 0 -224 36 -224 259v282c0 18 14 32 32 32h69c18 0 32 -14 32 -32v-289c0 -123 52 -131 91 -131s91 8 91 131v289c0 18 14 32 32 32h69c18 0 32 -14 32 -32v-282c0 -223 -87 -259 -224 -259zM266 798l91 -105c4 -7 6 -14 6 -18c0 -10 -15 -25 -16 -26
l-16 -16c-8 -8 -16 -16 -28 -16c-11 0 -22 4 -31 10c-104 85 -105 85 -105 86c-3 6 -4 10 -4 15c0 13 6 20 12 27l43 49c5 4 13 7 24 7c12 -2 14 -3 24 -13z" />
    <glyph glyph-name="Uacute" unicode="&#xda;" horiz-adv-x="528" 
d="M264 -5c-137 0 -224 36 -224 259v282c0 18 14 32 32 32h69c18 0 32 -14 32 -32v-289c0 -123 52 -131 91 -131s91 8 91 131v289c0 18 14 32 32 32h69c18 0 32 -14 32 -32v-282c0 -223 -87 -259 -224 -259zM171 693l91 105c10 10 12 11 24 13c11 0 19 -3 24 -7l43 -49
c6 -7 12 -14 12 -27c0 -5 -1 -9 -4 -15c0 -1 -1 -1 -105 -86c-9 -6 -20 -10 -31 -10c-12 0 -20 8 -28 16l-16 16c-1 1 -16 16 -16 26c0 4 2 11 6 18z" />
    <glyph glyph-name="otilde" unicode="&#xf5;" horiz-adv-x="446" 
d="M223 116c59 0 62 55 62 90s-9 83 -62 83s-62 -48 -62 -83s3 -90 62 -90zM223 -5c-135 0 -198 80 -198 212c0 123 63 204 198 204s198 -81 198 -204c0 -132 -63 -212 -198 -212zM286 456c-45 0 -82 33 -128 33c-18 0 -32 -15 -52 -15c-10 0 -21 6 -26 14l-29 39
c-3 5 -6 13 -6 19c0 8 6 19 14 26c29 22 71 38 99 38c44 0 82 -33 128 -33c18 0 32 14 51 14c10 0 21 -6 26 -13l29 -40c3 -5 7 -12 7 -18c0 -9 -7 -20 -14 -26c-29 -23 -72 -38 -99 -38z" />
    <glyph glyph-name="odieresis" unicode="&#xf6;" horiz-adv-x="446" 
d="M223 116c59 0 62 55 62 90s-9 83 -62 83s-62 -48 -62 -83s3 -90 62 -90zM223 -5c-135 0 -198 80 -198 212c0 123 63 204 198 204s198 -81 198 -204c0 -132 -63 -212 -198 -212zM64 528c0 40 31 71 71 71s72 -31 72 -71s-32 -72 -72 -72s-71 32 -71 72zM240 528
c0 40 31 71 71 71s72 -31 72 -71s-32 -72 -72 -72s-71 32 -71 72z" />
    <glyph glyph-name="Ucircumflex" unicode="&#xdb;" horiz-adv-x="528" 
d="M264 -5c-137 0 -224 36 -224 259v282c0 18 14 32 32 32h69c18 0 32 -14 32 -32v-289c0 -123 52 -131 91 -131s91 8 91 131v289c0 18 14 32 32 32h69c18 0 32 -14 32 -32v-282c0 -223 -87 -259 -224 -259zM215 812h96c16 0 28 -12 35 -28l71 -132c0 -19 -14 -34 -32 -34
h-67c-19 0 -29 12 -34 29l-21 48l-20 -48c-5 -17 -15 -29 -34 -29h-68c-18 0 -32 15 -32 34l71 132c7 16 19 28 35 28z" />
    <glyph glyph-name="Udieresis" unicode="&#xdc;" horiz-adv-x="528" 
d="M264 -5c-137 0 -224 36 -224 259v282c0 18 14 32 32 32h69c18 0 32 -14 32 -32v-289c0 -123 52 -131 91 -131s91 8 91 131v289c0 18 14 32 32 32h69c18 0 32 -14 32 -32v-282c0 -223 -87 -259 -224 -259zM104 690c0 40 31 71 71 71s72 -31 72 -71s-32 -72 -72 -72
s-71 32 -71 72zM280 690c0 40 31 71 71 71s72 -31 72 -71s-32 -72 -72 -72s-71 32 -71 72z" />
    <glyph glyph-name="Ydieresis" unicode="&#x178;" horiz-adv-x="492" 
d="M313 32c0 -18 -13 -32 -32 -32h-70c-18 0 -32 14 -32 32v133l-174 369c0 20 14 34 32 34h77c15 0 27 -15 34 -29l98 -207l98 207c7 14 19 29 34 29h77c18 0 32 -14 32 -34l-174 -369v-133zM86 690c0 40 31 71 71 71s72 -31 72 -71s-32 -72 -72 -72s-71 32 -71 72z
M262 690c0 40 31 71 71 71s72 -31 72 -71s-32 -72 -72 -72s-71 32 -71 72z" />
    <glyph glyph-name="Egrave" unicode="&#xc8;" horiz-adv-x="436" 
d="M389 0h-317c-19 0 -32 14 -32 32v504c0 18 13 32 32 32h317c19 0 32 -14 32 -32v-58c0 -18 -13 -32 -32 -32h-216v-102h156c18 0 31 -14 31 -32v-57c0 -18 -13 -32 -31 -32h-156v-102h216c19 0 32 -14 32 -32v-57c0 -18 -13 -32 -32 -32zM242 799l91 -105
c4 -7 6 -14 6 -18c0 -10 -15 -25 -16 -26l-16 -16c-8 -8 -16 -16 -28 -16c-11 0 -22 4 -31 10c-104 85 -105 85 -105 86c-3 6 -4 10 -4 15c0 13 6 20 12 27l43 49c5 4 13 7 24 7c12 -2 14 -3 24 -13z" />
    <glyph glyph-name="Eacute" unicode="&#xc9;" horiz-adv-x="436" 
d="M389 0h-317c-19 0 -32 14 -32 32v504c0 18 13 32 32 32h317c19 0 32 -14 32 -32v-58c0 -18 -13 -32 -32 -32h-216v-102h156c18 0 31 -14 31 -32v-57c0 -18 -13 -32 -31 -32h-156v-102h216c19 0 32 -14 32 -32v-57c0 -18 -13 -32 -32 -32zM145 694l91 105
c10 10 12 11 24 13c11 0 19 -3 24 -7l43 -49c6 -7 12 -14 12 -27c0 -5 -1 -9 -4 -15c0 -1 -1 -1 -105 -86c-9 -6 -20 -10 -31 -10c-12 0 -20 8 -28 16l-16 16c-1 1 -16 16 -16 26c0 4 2 11 6 18z" />
    <glyph glyph-name="Ecircumflex" unicode="&#xca;" horiz-adv-x="436" 
d="M178 812h96c16 0 28 -12 35 -28l71 -132c0 -19 -14 -34 -32 -34h-67c-19 0 -29 12 -34 29l-21 48l-20 -48c-5 -17 -15 -29 -34 -29h-68c-18 0 -32 15 -32 34l71 132c7 16 19 28 35 28zM389 0h-317c-19 0 -32 14 -32 32v504c0 18 13 32 32 32h317c19 0 32 -14 32 -32v-58
c0 -18 -13 -32 -32 -32h-216v-102h156c18 0 31 -14 31 -32v-57c0 -18 -13 -32 -31 -32h-156v-102h216c19 0 32 -14 32 -32v-57c0 -18 -13 -32 -32 -32z" />
    <glyph glyph-name="Edieresis" unicode="&#xcb;" horiz-adv-x="436" 
d="M389 0h-317c-19 0 -32 14 -32 32v504c0 18 13 32 32 32h317c19 0 32 -14 32 -32v-58c0 -18 -13 -32 -32 -32h-216v-102h156c18 0 31 -14 31 -32v-57c0 -18 -13 -32 -31 -32h-156v-102h216c19 0 32 -14 32 -32v-57c0 -18 -13 -32 -32 -32zM72 690c0 40 31 71 71 71
s72 -31 72 -71s-32 -72 -72 -72s-71 32 -71 72zM248 690c0 40 31 71 71 71s72 -31 72 -71s-32 -72 -72 -72s-71 32 -71 72z" />
    <glyph glyph-name="Igrave" unicode="&#xcc;" 
d="M173 536v-504c0 -18 -14 -32 -32 -32h-70c-18 0 -31 14 -31 32v504c0 18 13 32 31 32h70c18 0 32 -14 32 -32zM106 799l91 -105c4 -7 6 -14 6 -18c0 -10 -15 -25 -16 -26l-16 -16c-8 -8 -16 -16 -28 -16c-11 0 -22 4 -31 10c-104 85 -105 85 -105 86c-3 6 -4 10 -4 15
c0 13 6 20 12 27l43 49c5 4 13 7 24 7c12 -2 14 -3 24 -13z" />
    <glyph glyph-name="Iacute" unicode="&#xcd;" horiz-adv-x="214" 
d="M40 32v504c0 18 14 32 32 32h70c18 0 31 -14 31 -32v-504c0 -18 -13 -32 -31 -32h-70c-18 0 -32 14 -32 32zM16 694l91 105c10 10 12 11 24 13c11 0 19 -3 24 -7l43 -49c6 -7 12 -14 12 -27c0 -5 -1 -9 -4 -15c0 -1 -1 -1 -105 -86c-9 -6 -20 -10 -31 -10
c-12 0 -20 8 -28 16l-16 16c-1 1 -16 16 -16 26c0 4 2 11 6 18z" />
    <glyph glyph-name="Icircumflex" unicode="&#xce;" 
d="M40 32v504c0 18 14 32 32 32h70c18 0 31 -14 31 -32v-504c0 -18 -13 -32 -31 -32h-70c-18 0 -32 14 -32 32zM58 812h96c16 0 28 -12 35 -28l71 -132c0 -19 -14 -34 -32 -34h-67c-19 0 -29 12 -34 29l-21 48l-20 -48c-5 -17 -15 -29 -34 -29h-68c-18 0 -32 15 -32 34
l71 132c7 16 19 28 35 28z" />
    <glyph glyph-name="Idieresis" unicode="&#xcf;" 
d="M40 32v504c0 18 14 32 32 32h70c18 0 31 -14 31 -32v-504c0 -18 -13 -32 -31 -32h-70c-18 0 -32 14 -32 32zM-53 690c0 40 31 71 71 71s72 -31 72 -71s-32 -72 -72 -72s-71 32 -71 72zM123 690c0 40 31 71 71 71s72 -31 72 -71s-32 -72 -72 -72s-71 32 -71 72z" />
    <glyph glyph-name="Eth" unicode="&#xd0;" horiz-adv-x="529" 
d="M300 0h-181c-18 0 -32 15 -32 33v186h-50c-18 0 -32 14 -32 32v57c0 18 14 32 32 32h50v196c0 18 14 32 32 32h181c136 0 204 -75 204 -209v-150c0 -134 -68 -209 -204 -209zM371 207v153c0 62 -33 86 -73 86h-78v-106h68c19 0 32 -14 32 -32v-57c0 -18 -13 -32 -32 -32
h-68v-98h78c40 0 73 24 73 86z" />
    <glyph glyph-name="Ntilde" unicode="&#xd1;" horiz-adv-x="531" 
d="M459 0h-65c-13 0 -28 8 -38 24c-58 98 -123 193 -183 293v-285c0 -18 -14 -32 -32 -32h-69c-18 0 -32 14 -32 32v504c0 18 14 32 32 32h76c14 0 29 -8 39 -24c59 -97 112 -173 171 -271v263c0 18 14 32 32 32h69c18 0 32 -14 32 -32v-504c0 -18 -14 -32 -32 -32zM332 618
c-45 0 -82 33 -128 33c-18 0 -32 -15 -52 -15c-10 0 -21 6 -26 14l-29 39c-3 5 -6 13 -6 19c0 8 6 19 14 26c29 22 71 38 99 38c44 0 82 -33 128 -33c18 0 32 14 51 14c10 0 21 -6 26 -13l29 -40c3 -5 7 -12 7 -18c0 -9 -7 -20 -14 -26c-29 -23 -72 -38 -99 -38z" />
    <glyph glyph-name="Yacute" unicode="&#xdd;" horiz-adv-x="492" 
d="M313 32c0 -18 -13 -32 -32 -32h-70c-18 0 -32 14 -32 32v133l-174 369c0 20 14 34 32 34h77c15 0 27 -15 34 -29l98 -207l98 207c7 14 19 29 34 29h77c18 0 32 -14 32 -34l-174 -369v-133zM153 694l91 105c10 10 12 11 24 13c11 0 19 -3 24 -7l43 -49c6 -7 12 -14 12 -27
c0 -5 -1 -9 -4 -15c0 -1 -1 -1 -105 -86c-9 -6 -20 -10 -31 -10c-12 0 -20 8 -28 16l-16 16c-1 1 -16 16 -16 26c0 4 2 11 6 18z" />
    <glyph glyph-name="yacute" unicode="&#xfd;" horiz-adv-x="427" 
d="M100 7c-47 26 -70 87 -70 156v211c0 18 13 31 31 31h71c18 0 31 -13 31 -31v-207c0 -62 23 -66 51 -66c23 0 40 19 40 19v254c0 18 13 31 31 31h71c18 0 31 -13 31 -31v-390c0 -64 -1 -203 -195 -203c-41 0 -134 26 -134 122c0 39 18 80 42 104zM254 -41v52
c-59 -29 -68 -56 -68 -73c0 -11 2 -38 31 -38c22 0 37 27 37 59zM115 532l91 105c10 10 12 11 24 13c11 0 19 -3 24 -7l43 -49c6 -7 12 -14 12 -27c0 -5 -1 -9 -4 -15c0 -1 -1 -1 -105 -86c-9 -6 -20 -10 -31 -10c-12 0 -20 8 -28 16l-16 16c-1 1 -16 16 -16 26
c0 4 2 11 6 18z" />
    <glyph glyph-name="ugrave" unicode="&#xf9;" horiz-adv-x="438" 
d="M265 131v243c0 18 14 31 32 31h69c18 0 32 -13 32 -31v-307c0 -15 -9 -26 -20 -33c-54 -28 -106 -39 -151 -39c-134 0 -197 53 -197 185v194c0 18 13 31 31 31h71c18 0 31 -13 31 -31v-194c0 -60 15 -64 61 -64c8 0 29 2 41 15zM215 637l91 -105c4 -7 6 -14 6 -18
c0 -10 -15 -25 -16 -26l-16 -16c-8 -8 -16 -16 -28 -16c-11 0 -22 4 -31 10c-104 85 -105 85 -105 86c-3 6 -4 10 -4 15c0 13 6 20 12 27l43 49c5 4 13 7 24 7c12 -2 14 -3 24 -13z" />
    <glyph glyph-name="uacute" unicode="&#xfa;" horiz-adv-x="438" 
d="M265 131v243c0 18 14 31 32 31h69c18 0 32 -13 32 -31v-307c0 -15 -9 -26 -20 -33c-54 -28 -106 -39 -151 -39c-134 0 -197 53 -197 185v194c0 18 13 31 31 31h71c18 0 31 -13 31 -31v-194c0 -60 15 -64 61 -64c8 0 29 2 41 15zM118 532l91 105c10 10 12 11 24 13
c11 0 19 -3 24 -7l43 -49c6 -7 12 -14 12 -27c0 -5 -1 -9 -4 -15c0 -1 -1 -1 -105 -86c-9 -6 -20 -10 -31 -10c-12 0 -20 8 -28 16l-16 16c-1 1 -16 16 -16 26c0 4 2 11 6 18z" />
    <glyph glyph-name="ucircumflex" unicode="&#xfb;" horiz-adv-x="438" 
d="M265 131v243c0 18 14 31 32 31h69c18 0 32 -13 32 -31v-307c0 -15 -9 -26 -20 -33c-54 -28 -106 -39 -151 -39c-134 0 -197 53 -197 185v194c0 18 13 31 31 31h71c18 0 31 -13 31 -31v-194c0 -60 15 -64 61 -64c8 0 29 2 41 15zM166 650h96c16 0 28 -12 35 -28l71 -132
c0 -19 -14 -34 -32 -34h-67c-19 0 -29 12 -34 29l-21 48l-20 -48c-5 -17 -15 -29 -34 -29h-68c-18 0 -32 15 -32 34l71 132c7 16 19 28 35 28z" />
    <glyph glyph-name="scaron" unicode="&#x161;" horiz-adv-x="380" 
d="M89 121c-5 1 -8 1 -11 1c-13 0 -28 -2 -32 -17c-10 -30 -13 -43 -15 -54c0 -18 13 -27 25 -33c38 -15 97 -23 126 -23c115 0 183 49 183 135c0 148 -209 108 -209 149c0 13 27 15 71 15c20 0 35 -2 64 -5l12 -1c11 0 18 6 23 26c4 32 5 45 5 53c0 17 -17 29 -32 31
c-36 9 -86 13 -101 13c-130 0 -175 -61 -175 -130c0 -153 209 -115 209 -154c0 -20 -38 -20 -52 -20c-17 0 -59 4 -91 14zM240 456h-96c-16 0 -28 12 -35 28l-71 132c0 19 14 34 32 34h68c19 0 29 -12 34 -29l20 -48l21 48c5 17 15 29 34 29h67c18 0 32 -15 32 -34l-71 -132
c-7 -16 -19 -28 -35 -28z" />
    <glyph glyph-name="Scaron" unicode="&#x160;" horiz-adv-x="476" 
d="M105 142c-6 2 -9 2 -12 2c-13 0 -27 -7 -32 -21l-21 -49c-1 -3 -2 -7 -2 -10c0 -16 15 -30 25 -35c45 -22 112 -34 154 -34c161 0 244 52 244 172c0 241 -300 159 -300 240c0 36 33 43 95 43c11 0 56 -6 92 -10l22 -3c21 0 36 4 39 29c3 32 4 45 4 53c0 17 -17 27 -32 32
c-51 16 -110 21 -131 21c-183 0 -225 -73 -225 -183c0 -191 300 -125 300 -223c0 -46 -73 -50 -97 -50c-27 0 -83 11 -123 26zM287 618h-96c-16 0 -28 12 -35 28l-71 132c0 19 14 34 32 34h68c19 0 29 -12 34 -29l20 -48l21 48c5 17 15 29 34 29h67c18 0 32 -15 32 -34
l-71 -132c-7 -16 -19 -28 -35 -28z" />
    <glyph glyph-name="multiply" unicode="&#xd7;" horiz-adv-x="436" 
d="M243 78l-25 30l-25 -30c-9 -11 -24 -29 -58 -29h-64c-18 0 -31 14 -31 33l99 145c-34 53 -56 83 -89 137c0 19 13 33 31 33h67c32 0 44 -16 54 -29c0 0 1 -1 16 -21c15 20 16 21 16 21c10 13 22 29 54 29h67c18 0 31 -14 31 -33c-33 -54 -55 -84 -89 -137l99 -145
c0 -19 -13 -33 -31 -33h-64c-34 0 -49 18 -58 29z" />
    <glyph glyph-name="divide" unicode="&#xf7;" horiz-adv-x="395" 
d="M323 159h-251c-18 0 -32 14 -32 32v57c0 18 14 32 32 32h251c19 0 32 -14 32 -32v-57c0 -18 -13 -32 -32 -32zM126 67c0 40 31 71 71 71s72 -31 72 -71s-32 -72 -72 -72s-71 32 -71 72zM126 372c0 40 31 72 71 72s72 -32 72 -72s-32 -71 -72 -71s-71 31 -71 71z" />
    <glyph glyph-name="zcaron" unicode="&#x17e;" horiz-adv-x="375" 
d="M355 290l-159 -168h128c18 0 31 -13 31 -31v-60c0 -18 -13 -31 -31 -31h-273c-18 0 -31 13 -31 31v87l156 165h-125c-18 0 -31 13 -31 31v60c0 18 13 31 31 31h273c18 0 31 -13 31 -31v-84zM237 456h-96c-16 0 -28 12 -35 28l-71 132c0 19 14 34 32 34h68
c19 0 29 -12 34 -29l20 -48l21 48c5 17 15 29 34 29h67c18 0 32 -15 32 -34l-71 -132c-7 -16 -19 -28 -35 -28z" />
    <glyph glyph-name="ordmasculine" unicode="&#xba;" horiz-adv-x="323" 
d="M162 414c7 0 27 4 27 31c0 25 -20 30 -27 30c-8 0 -28 -5 -28 -30c0 -27 20 -31 28 -31zM162 318c-72 0 -122 40 -122 127s50 127 122 127c71 0 121 -40 121 -127s-50 -127 -121 -127z" />
    <glyph glyph-name="guillemotright" unicode="&#xbb;" horiz-adv-x="479" 
d="M305 232l-50 150c0 13 10 23 23 23h86c13 0 20 -10 23 -23l49 -150c1 -3 3 -10 3 -14v-28c0 -4 -2 -11 -3 -14l-49 -153c-3 -13 -10 -23 -23 -23h-86c-13 0 -23 10 -23 23l50 153c1 3 3 10 3 14v28c0 4 -2 11 -3 14zM90 232l-50 150c0 13 10 23 23 23h86
c13 0 20 -10 23 -23l49 -150c1 -3 3 -10 3 -14v-28c0 -4 -2 -11 -3 -14l-49 -153c-3 -13 -10 -23 -23 -23h-86c-13 0 -23 10 -23 23l50 153c1 3 3 10 3 14v28c0 4 -2 11 -3 14z" />
    <glyph glyph-name="cent" unicode="&#xa2;" horiz-adv-x="496" 
d="M244 -61v60c-112 17 -204 97 -204 281c0 206 92 274 204 288v74c0 18 7 32 25 32h43c18 0 27 -14 27 -32v-74c32 -5 65 -18 97 -38c11 -7 20 -19 20 -32c0 -4 -1 -5 -23 -51c-5 -13 -18 -19 -29 -19c-5 0 -13 3 -17 5c-17 7 -34 12 -48 14v-327c12 3 27 8 48 16
c5 2 11 5 17 5c11 0 24 -6 29 -18l23 -53c0 -13 -10 -25 -20 -32c-33 -22 -65 -34 -97 -39v-60c0 -18 -9 -32 -27 -32h-43c-18 0 -25 14 -25 32zM173 280c0 -83 34 -126 71 -147v305c-37 -17 -71 -58 -71 -158z" />
    <glyph glyph-name="registered" unicode="&#xae;" horiz-adv-x="657" 
d="M328 572c160 0 289 -129 289 -289s-129 -288 -289 -288s-288 128 -288 288s128 289 288 289zM329 90c108 0 194 86 194 194c0 107 -86 194 -194 194c-107 0 -194 -87 -194 -194c0 -108 87 -194 194 -194zM241 437h90c69 0 115 -41 115 -108c0 -41 -10 -72 -34 -87l15 -34
c5 -12 7 -17 12 -20c3 -2 5 -7 5 -11v-10c0 -23 -43 -25 -56 -25c-36 0 -38 24 -58 77h-10v-62c0 -7 -5 -12 -12 -12h-67c-7 0 -12 5 -12 12v268c0 7 5 12 12 12zM324 296c25 0 28 3 28 31c0 27 -4 33 -28 33h-4v-64h4z" />
    <glyph glyph-name="acute" unicode="&#xb4;" horiz-adv-x="280" 
d="M46 454l91 105c10 10 12 11 24 13c11 0 19 -3 24 -7l43 -49c6 -7 12 -14 12 -27c0 -5 -1 -9 -4 -15c0 -1 -1 -1 -105 -86c-9 -6 -20 -10 -31 -10c-12 0 -20 8 -28 16l-16 16c-1 1 -16 16 -16 26c0 4 2 11 6 18z" />
    <glyph glyph-name="brokenbar" unicode="&#xa6;" 
d="M173 680v-280c0 -18 -14 -32 -32 -32h-70c-18 0 -31 14 -31 32v280c0 18 13 32 31 32h70c18 0 32 -14 32 -32zM173 166v-280c0 -18 -14 -32 -32 -32h-70c-18 0 -31 14 -31 32v280c0 18 13 32 31 32h70c18 0 32 -14 32 -32z" />
    <glyph glyph-name="dieresis" unicode="&#xa8;" horiz-adv-x="399" 
d="M40 501c0 40 31 71 71 71s72 -31 72 -71s-32 -72 -72 -72s-71 32 -71 72zM216 501c0 40 31 71 71 71s72 -31 72 -71s-32 -72 -72 -72s-71 32 -71 72z" />
    <glyph glyph-name="guillemotleft" unicode="&#xab;" horiz-adv-x="479" 
d="M224 382l-50 -150c-1 -3 -3 -10 -3 -14v-28c0 -4 2 -11 3 -14l50 -153c0 -13 -10 -23 -23 -23h-86c-13 0 -20 10 -23 23l-49 153c-1 3 -3 10 -3 14v28c0 4 2 11 3 14l49 150c3 13 10 23 23 23h86c13 0 23 -10 23 -23zM439 382l-50 -150c-1 -3 -3 -10 -3 -14v-28
c0 -4 2 -11 3 -14l50 -153c0 -13 -10 -23 -23 -23h-86c-13 0 -20 10 -23 23l-49 153c-1 3 -3 10 -3 14v28c0 4 2 11 3 14l49 150c3 13 10 23 23 23h86c13 0 23 -10 23 -23z" />
    <glyph glyph-name="Oslash" unicode="&#xd8;" horiz-adv-x="558" 
d="M444 632l-31 -89c68 -36 115 -113 115 -263c0 -222 -114 -285 -248 -285c-19 0 -37 1 -55 4l-25 -75c-7 -14 -13 -25 -29 -25h-33c-18 0 -29 13 -29 31l33 96c-67 38 -112 114 -112 254c0 237 115 292 249 292c17 0 33 -1 49 -3l25 72c8 14 11 25 29 25h34
c18 0 28 -15 28 -34zM280 116c38 0 114 10 114 164c0 63 -12 102 -28 127l-100 -291h14zM164 280c0 -57 10 -93 25 -118l98 288h-8c-40 0 -115 -8 -115 -170z" />
    <glyph glyph-name="ccedilla" unicode="&#xe7;" horiz-adv-x="407" 
d="M334 137c11 0 23 -5 28 -18l23 -52c0 -13 -8 -25 -19 -32c-24 -17 -49 -27 -73 -33c2 -14 3 -31 3 -48c0 -80 -41 -109 -113 -109c-42 0 -94 14 -94 32v40c0 25 8 31 27 31c14 -3 19 -5 30 -5c22 0 35 3 35 24c0 20 -5 29 -16 35c-92 21 -140 93 -140 202
c0 131 70 207 204 207c45 0 92 -8 137 -41c11 -8 19 -19 19 -32c0 -4 -1 -6 -23 -52c-5 -13 -16 -18 -28 -18c-5 0 -13 2 -17 5c-34 16 -58 16 -80 16c-39 0 -79 -24 -79 -85c0 -62 40 -88 79 -88c22 0 46 0 80 17c4 3 11 4 17 4z" />
    <glyph glyph-name="cedilla" unicode="&#xb8;" horiz-adv-x="287" 
d="M131 -35c0 15 11 30 28 30h57c15 0 30 -17 30 -32c1 -9 1 -19 1 -28c0 -80 -41 -109 -113 -109c-42 0 -94 14 -94 32v40c0 25 8 31 27 31c14 -3 19 -5 30 -5c22 0 35 3 35 24c0 6 0 13 -1 17z" />
    <glyph glyph-name="Ccedilla" unicode="&#xc7;" horiz-adv-x="456" 
d="M421 530c11 -7 20 -19 20 -32c0 -4 -1 -5 -23 -51c-5 -13 -18 -19 -29 -19c-5 0 -13 3 -17 5c-32 14 -62 17 -82 17c-42 0 -132 -8 -132 -170c0 -133 90 -164 132 -164c22 0 40 5 82 20c5 2 11 5 17 5c11 0 24 -6 29 -18l23 -53c0 -13 -10 -25 -20 -32
c-26 -17 -52 -28 -77 -35c2 -13 3 -31 3 -49c0 -80 -41 -109 -113 -109c-42 0 -94 14 -94 32v40c0 25 8 31 27 31c14 -3 19 -5 30 -5c22 0 35 3 35 24c0 19 -4 28 -13 33c-108 21 -194 101 -194 280c0 237 122 292 256 292c45 0 94 -12 140 -42z" />
    <glyph glyph-name="oslash" unicode="&#xf8;" horiz-adv-x="446" 
d="M362 469l-29 -83c59 -33 88 -97 88 -179c0 -132 -63 -212 -198 -212c-8 0 -16 1 -24 1l-23 -68c-7 -14 -13 -25 -29 -25h-33c-18 0 -29 13 -29 31l29 85c-60 33 -89 99 -89 188c0 123 63 204 198 204c8 0 16 -1 24 -1l24 68c8 14 11 25 29 25h34c18 0 28 -15 28 -34z
M161 206c0 -12 0 -27 3 -40l41 121c-37 -10 -44 -51 -44 -81zM285 206c0 9 -1 20 -3 30l-41 -118c41 10 44 57 44 88z" />
    <glyph glyph-name="exclamdown" unicode="&#xa1;" horiz-adv-x="223" 
d="M167 358l11 -331c0 -18 -14 -32 -32 -32h-70c-18 0 -31 14 -31 32l11 331c0 18 13 32 31 32h48c18 0 32 -14 32 -32zM40 496c0 40 31 72 71 72s72 -32 72 -72s-32 -71 -72 -71s-71 31 -71 71z" />
    <glyph glyph-name="Thorn" unicode="&#xde;" horiz-adv-x="455" 
d="M173 536v-63h64c136 0 208 -59 208 -194s-72 -192 -208 -192h-64v-55c0 -18 -13 -32 -32 -32h-69c-18 0 -32 14 -32 32v504c0 18 13 32 31 32h70c18 0 32 -14 32 -32zM247 209c39 0 65 25 65 70c0 44 -26 71 -65 71h-74v-141h74z" />
    <glyph glyph-name="lessequal" unicode="&#x2264;" horiz-adv-x="344" 
d="M40 265v80c0 16 12 28 28 35l203 91c19 0 33 -13 33 -32v-64c0 -19 -12 -26 -27 -33l-93 -37l93 -37c15 -7 27 -14 27 -33v-64c0 -19 -14 -32 -33 -32l-203 91c-16 7 -28 19 -28 35zM272 0h-200c-18 0 -32 14 -32 32v57c0 18 14 32 32 32h200c19 0 32 -14 32 -32v-57
c0 -18 -13 -32 -32 -32z" />
    <glyph glyph-name="greaterequal" unicode="&#x2265;" horiz-adv-x="344" 
d="M304 345v-80c0 -16 -12 -28 -28 -35l-203 -91c-19 0 -33 13 -33 32v64c0 19 12 26 27 33l93 37l-93 37c-15 7 -27 14 -27 33v64c0 19 14 32 33 32l203 -91c16 -7 28 -19 28 -35zM272 0h-200c-19 0 -32 14 -32 32v57c0 18 13 32 32 32h200c18 0 32 -14 32 -32v-57
c0 -18 -14 -32 -32 -32z" />
    <glyph glyph-name="mu" unicode="&#xb5;" horiz-adv-x="448" 
d="M173 374v-203c0 -52 17 -55 61 -55c8 0 29 2 41 15v243c0 18 14 31 32 31h69c18 0 32 -13 32 -31v-307c0 -15 -9 -26 -20 -33c-54 -28 -106 -39 -151 -39c-24 0 -45 2 -64 5v-164c0 -18 -14 -32 -32 -32h-70c-18 0 -31 14 -31 32v538c0 18 13 31 31 31h71
c18 0 31 -13 31 -31z" />
    <glyph glyph-name="guilsinglleft" unicode="&#x2039;" horiz-adv-x="385" 
d="M40 173v88c0 16 12 29 28 36l244 110c19 0 33 -14 33 -32v-80c0 -16 -16 -26 -28 -32l-102 -46l102 -46c12 -6 28 -16 28 -32v-80c0 -18 -14 -32 -33 -32l-244 110c-16 7 -28 20 -28 36z" />
    <glyph glyph-name="guilsinglright" unicode="&#x203a;" horiz-adv-x="385" 
d="M345 261v-88c0 -16 -12 -29 -28 -36l-244 -110c-19 0 -33 14 -33 32v80c0 16 16 26 28 32l102 46l-102 46c-12 6 -28 16 -28 32v80c0 18 14 32 33 32l244 -110c16 -7 28 -20 28 -36z" />
    <glyph glyph-name="circumflex" unicode="&#x2c6;" horiz-adv-x="388" 
d="M146 572h96c16 0 28 -12 35 -28l71 -132c0 -19 -14 -34 -32 -34h-67c-19 0 -29 12 -34 29l-21 48l-20 -48c-5 -17 -15 -29 -34 -29h-68c-18 0 -32 15 -32 34l71 132c7 16 19 28 35 28z" />
    <glyph glyph-name="caron" unicode="&#x2c7;" horiz-adv-x="388" 
d="M242 378h-96c-16 0 -28 12 -35 28l-71 132c0 19 14 34 32 34h68c19 0 29 -12 34 -29l20 -48l21 48c5 17 15 29 34 29h67c18 0 32 -15 32 -34l-71 -132c-7 -16 -19 -28 -35 -28z" />
    <glyph glyph-name="breve" unicode="&#x2d8;" horiz-adv-x="431" 
d="M215 371c-114 0 -175 34 -175 169c0 19 13 32 32 32h67c18 0 32 -13 32 -32c0 -33 11 -49 44 -49c34 0 45 16 45 49c0 19 14 32 32 32h67c19 0 32 -13 32 -32c0 -135 -61 -169 -176 -169z" />
    <glyph glyph-name="germandbls" unicode="&#xdf;" horiz-adv-x="500" 
d="M277 443h-46c-48 0 -58 -47 -58 -72v-340c0 -18 -14 -31 -32 -31h-69c-18 0 -32 13 -32 31v317c0 131 53 216 187 216h48c134 0 194 -68 194 -170c0 -44 -16 -90 -41 -115c28 -26 47 -66 47 -109c0 -109 -52 -175 -186 -175c-24 0 -82 5 -82 44c0 7 1 25 4 57
c2 19 11 31 27 31s31 -11 51 -11c43 0 53 34 53 53c0 18 -16 49 -63 50h-17c-18 0 -31 14 -31 32v58c0 18 13 31 31 31h8c53 0 66 34 66 53c0 18 -11 50 -59 50z" />
    <glyph glyph-name="fraction" unicode="&#x2044;" horiz-adv-x="440" 
d="M15 -114l277 800c7 14 15 24 33 24h68c18 0 32 -13 32 -32l-278 -800c-7 -13 -13 -24 -33 -24h-67c-18 0 -32 13 -32 32z" />
    <glyph glyph-name="Zcaron" unicode="&#x17d;" horiz-adv-x="414" 
d="M10 116l231 330h-199c-18 0 -32 14 -32 32v58c0 18 14 32 32 32h330c18 0 32 -14 32 -32v-84l-227 -330h195c18 0 32 -14 32 -32v-58c0 -18 -14 -32 -32 -32h-330c-18 0 -32 14 -32 32v84zM264 618h-96c-16 0 -28 12 -35 28l-71 132c0 19 14 34 32 34h68
c19 0 29 -12 34 -29l20 -48l21 48c5 17 15 29 34 29h67c18 0 32 -15 32 -34l-71 -132c-7 -16 -19 -28 -35 -28z" />
    <glyph glyph-name="florin" unicode="&#x192;" horiz-adv-x="325" 
d="M206 283v-262c0 -131 -32 -216 -167 -216c-25 0 -53 2 -82 14c-14 3 -20 21 -20 39l14 57c4 14 16 24 32 24c15 -4 31 -8 42 -8c45 0 48 47 48 72v280h-36c-19 0 -32 13 -32 31v60c0 18 13 31 32 31h36c5 112 43 202 167 202c21 0 45 -3 73 -12c18 -6 27 -21 27 -39
l-14 -55c-4 -13 -15 -23 -29 -23s-28 4 -43 4c-43 0 -48 -51 -48 -77h78c18 0 32 -13 32 -31v-60c0 -18 -14 -31 -32 -31h-78z" />
    <glyph glyph-name="eth" unicode="&#xf0;" horiz-adv-x="445" 
d="M378 581l-33 -51c48 -36 75 -94 75 -170v-171c0 -124 -62 -194 -198 -194s-197 70 -197 194c0 135 61 175 190 175c21 0 54 -8 72 -17v24c0 19 -5 35 -14 46l-8 -12c-6 -10 -18 -23 -45 -23h-53c-14 0 -26 13 -26 27l26 41c-16 -1 -34 -6 -55 -16c-5 -3 -12 -4 -16 -4
c-12 0 -24 6 -29 19l-19 49c-1 3 -1 6 -1 9c0 12 6 17 16 24c45 34 94 41 139 41c14 0 28 -1 41 -3l11 17c7 10 17 23 44 23h54c15 0 26 -12 26 -28zM222 244c-61 0 -64 -40 -64 -64c0 -25 9 -63 64 -63c53 0 65 40 65 63c0 24 -6 64 -65 64z" />
    <glyph glyph-name="paragraph" unicode="&#xb6;" horiz-adv-x="551" 
d="M479 568c18 0 32 -14 32 -32v-504c0 -18 -14 -32 -32 -32h-69c-19 0 -32 14 -32 32v415h-55v-415c0 -18 -13 -32 -31 -32h-70c-18 0 -32 14 -32 32v197c-85 9 -150 80 -150 168c0 95 75 171 170 171h269z" />
    <glyph glyph-name="uni00AD" unicode="&#xad;" horiz-adv-x="189" 
 />
    <glyph glyph-name="logicalnot" unicode="&#xac;" horiz-adv-x="447" 
d="M72 263h303c19 0 32 -14 32 -32v-150c0 -18 -13 -32 -32 -32h-69c-18 0 -32 14 -32 32v61h-202c-18 0 -32 14 -32 32v57c0 18 14 32 32 32z" />
    <glyph glyph-name="ordfeminine" unicode="&#xaa;" horiz-adv-x="370" 
d="M219 355v120c-50 -4 -68 -40 -68 -77c0 -47 18 -58 38 -58c17 0 30 15 30 15zM310 553c13 -4 20 -15 20 -27v-252c0 -15 -12 -27 -27 -27h-42c-13 0 -20 5 -28 15l-6 7c-20 -17 -43 -26 -71 -26c-88 0 -116 75 -116 156c0 101 60 173 165 173c33 0 67 -5 105 -19z" />
    <glyph glyph-name="sterling" unicode="&#xa3;" horiz-adv-x="523" 
d="M323 226h-74v-105h202c18 0 32 -14 32 -32v-57c0 -18 -14 -32 -32 -32h-303c-19 0 -32 14 -32 32v194h-44c-18 0 -32 14 -32 32v57c0 18 14 32 32 32h44v16c0 132 70 209 204 209c44 0 91 -8 137 -40c11 -7 19 -19 19 -32l-23 -52c-5 -13 -17 -18 -28 -18
c-6 0 -13 1 -17 4c-34 17 -58 17 -80 17c-39 0 -79 -26 -79 -88v-16h74c19 0 32 -14 32 -32v-57c0 -18 -13 -32 -32 -32z" />
    <glyph glyph-name="macron" unicode="&#xaf;" horiz-adv-x="395" 
d="M323 447h-251c-18 0 -32 14 -32 32v57c0 18 14 32 32 32h251c19 0 32 -14 32 -32v-57c0 -18 -13 -32 -32 -32z" />
    <glyph glyph-name="periodcentered" unicode="&#xb7;" horiz-adv-x="223" 
d="M40 181c0 40 31 71 71 71s72 -31 72 -71s-32 -72 -72 -72s-71 32 -71 72z" />
    <glyph glyph-name="section" unicode="&#xa7;" horiz-adv-x="447" 
d="M106 121c32 -10 74 -14 91 -14c14 0 52 0 52 20c0 39 -209 1 -209 154c0 36 13 71 44 95c-12 17 -19 38 -19 66c0 69 45 130 175 130c15 0 65 -4 101 -13c15 -2 32 -14 32 -31c0 -8 -1 -21 -5 -53c-5 -20 -12 -26 -23 -26l-12 1c-29 3 -44 5 -64 5c-44 0 -71 -2 -71 -15
c0 -41 209 -1 209 -149c0 -41 -15 -73 -44 -96c12 -17 19 -38 19 -65c0 -86 -68 -135 -183 -135c-29 0 -88 8 -126 23c-12 6 -25 15 -25 33c2 11 5 24 15 54c4 15 19 17 32 17c3 0 6 0 11 -1zM244 294c-44 0 -71 -1 -71 -14c0 -12 40 -12 49 -12c14 0 52 1 52 14
c0 11 -27 12 -30 12z" />
    <glyph glyph-name="OE" unicode="&#x152;" horiz-adv-x="694" 
d="M647 0h-316c-17 -3 -34 -5 -50 -5c-134 0 -256 73 -256 285c0 237 122 292 256 292c14 0 30 -2 45 -4h321c19 0 32 -14 32 -32v-58c0 -18 -13 -32 -32 -32h-216v-102h156c18 0 31 -14 31 -32v-57c0 -18 -13 -32 -31 -32h-156v-102h216c19 0 32 -14 32 -32v-57
c0 -18 -13 -32 -32 -32zM290 116h8v334h-8c-42 0 -132 -8 -132 -170c0 -133 90 -164 132 -164z" />
    <glyph glyph-name="oe" unicode="&#x153;" horiz-adv-x="674" 
d="M580 135c4 3 11 4 16 4c11 0 20 -6 26 -18l21 -45c1 -3 2 -7 2 -9c0 -13 -8 -24 -18 -32c-47 -37 -100 -40 -144 -40c-55 0 -99 13 -130 38c-32 -25 -75 -38 -130 -38c-135 0 -198 80 -198 212c0 123 63 204 198 204c54 0 96 -13 128 -37c30 24 72 37 126 37
c108 0 170 -56 170 -131c0 -95 -60 -143 -151 -143c-24 0 -52 3 -76 9c0 -25 26 -35 71 -35c36 0 63 5 89 24zM223 116c59 0 62 55 62 91v7c-2 34 -13 75 -62 75c-53 0 -62 -48 -62 -83s3 -90 62 -90zM477 289c-25 0 -48 -14 -58 -34c14 -9 37 -15 49 -15c30 0 46 7 46 25
c0 20 -17 24 -37 24z" />
    <glyph glyph-name="ae" unicode="&#xe6;" horiz-adv-x="633" 
d="M581 121l21 -45c1 -3 2 -7 2 -9c0 -13 -8 -24 -18 -32c-47 -37 -100 -40 -144 -40c-66 0 -115 19 -148 55c-46 -55 -120 -55 -133 -55c-111 0 -146 94 -146 197c0 128 76 219 209 219c36 0 73 -6 115 -19c27 12 59 19 97 19c108 0 170 -56 170 -131
c0 -95 -60 -143 -151 -143c-24 0 -52 3 -76 9c0 -25 26 -35 71 -35c36 0 63 5 89 24c4 3 11 4 16 4c11 0 20 -6 26 -18zM244 135v154c-71 -4 -91 -48 -91 -98c0 -63 24 -75 51 -75c23 0 40 19 40 19zM436 289c-25 0 -48 -14 -58 -34c14 -9 37 -15 49 -15c30 0 46 7 46 25
c0 20 -17 24 -37 24z" />
    <glyph glyph-name="AE" unicode="&#xc6;" horiz-adv-x="769" 
d="M328 568h384c19 0 32 -14 32 -32v-58c0 -18 -13 -32 -32 -32h-216v-102h156c18 0 31 -14 31 -32v-57c0 -18 -13 -32 -31 -32h-156v-102h216c19 0 32 -14 32 -32v-57c0 -18 -13 -32 -32 -32h-317c-19 0 -32 14 -32 32v94h-159l-55 -98c-8 -14 -17 -28 -34 -28h-83
c-19 0 -32 15 -32 35l285 506c9 14 26 27 43 27zM271 247h92v163c-30 -55 -60 -106 -92 -163z" />
    <glyph glyph-name="thorn" unicode="&#xfe;" horiz-adv-x="435" 
d="M173 536v-127c13 1 26 2 38 2c135 0 204 -83 204 -215s-69 -201 -204 -201c-11 0 -25 0 -38 2v-161c0 -18 -13 -32 -31 -32h-71c-18 0 -31 14 -31 32v700c0 18 13 32 31 32h70c18 0 32 -14 32 -32zM173 283v-166c9 -1 22 -1 30 -1c39 0 74 20 74 80c0 62 -16 93 -63 93
c-6 0 -28 -1 -41 -6z" />
    <glyph glyph-name="dotlessi" unicode="&#x131;" 
d="M173 373v-341c0 -18 -14 -32 -32 -32h-70c-18 0 -31 14 -31 32v341c0 18 13 32 31 32h70c18 0 32 -14 32 -32z" />
    <glyph glyph-name="Lslash" unicode="&#x141;" horiz-adv-x="452" 
d="M280 274l-72 -19v-134h202c18 0 32 -14 32 -32v-57c0 -18 -14 -32 -32 -32h-303c-19 0 -32 14 -32 32v188l-45 -11c-19 0 -35 13 -35 32v58c0 19 13 28 29 32l51 13v192c0 18 13 32 32 32h69c18 0 32 -14 32 -32v-157l67 18c20 0 35 -14 35 -32v-59
c0 -17 -14 -28 -30 -32z" />
    <glyph glyph-name="lslash" unicode="&#x142;" horiz-adv-x="305" 
d="M280 274l-61 -16v-226c0 -18 -14 -32 -32 -32h-70c-18 0 -31 14 -31 32v191l-56 -14c-19 0 -35 13 -35 32v58c0 19 13 28 29 32l62 16v189c0 18 13 32 31 32h70c18 0 32 -14 32 -32v-154l56 15c20 0 35 -14 35 -32v-59c0 -17 -14 -28 -30 -32z" />
    <glyph glyph-name="trademark" unicode="&#x2122;" horiz-adv-x="700" 
d="M215 471v-201c0 -12 -9 -23 -23 -23h-65c-12 0 -23 11 -23 23v201h-42c-14 0 -22 11 -22 23v52c0 13 8 22 22 22h195c12 0 22 -9 22 -22v-52c0 -12 -10 -23 -22 -23h-42zM468 309h26c16 0 23 12 25 16l25 52l6 -105c0 -7 4 -25 24 -25h60c7 0 25 6 26 26
c0 0 -1 -14 -15 272c-1 8 -8 23 -32 23h-53c-10 0 -29 -7 -35 -22l-44 -110l-44 110c-6 15 -25 22 -35 22h-53c-24 0 -31 -15 -32 -23c-14 -286 -15 -272 -15 -272c1 -20 19 -26 26 -26h60c20 0 24 18 24 25l6 105l25 -52c2 -4 9 -16 25 -16z" />
    <glyph glyph-name="dotaccent" unicode="&#x2d9;" horiz-adv-x="223" 
d="M40 501c0 40 31 71 71 71s72 -31 72 -71s-32 -72 -72 -72s-71 32 -71 72z" />
    <glyph glyph-name="ring" unicode="&#x2da;" horiz-adv-x="323" 
d="M162 414c7 0 27 4 27 31c0 25 -20 30 -27 30c-8 0 -28 -5 -28 -30c0 -27 20 -31 28 -31zM162 318c-72 0 -122 40 -122 127s50 127 122 127c71 0 121 -40 121 -127s-50 -127 -121 -127z" />
    <glyph glyph-name="currency" unicode="&#xa4;" horiz-adv-x="484" 
d="M242 172c21 0 39 17 39 39c0 21 -18 38 -39 38s-39 -17 -39 -38c0 -22 18 -39 39 -39zM242 56c-25 0 -46 4 -65 15l-46 -47c-6 -5 -14 -9 -22 -9c-9 0 -17 4 -23 10l-36 37c-7 7 -10 15 -10 23s4 17 11 23l46 47c-7 18 -10 36 -10 56c0 18 4 39 11 56l-47 47
c-7 6 -11 15 -11 23s3 17 10 23l36 37c6 6 14 10 23 10c8 0 16 -4 22 -9l46 -47c20 10 40 14 65 14s45 -4 65 -14l46 47c6 5 14 9 22 9c9 0 17 -4 23 -10l36 -37c7 -6 10 -15 10 -23s-4 -17 -11 -23l-47 -47c7 -17 11 -38 11 -56c0 -20 -3 -38 -10 -56l46 -47
c7 -6 11 -15 11 -23s-3 -16 -10 -23l-36 -37c-6 -6 -14 -10 -23 -10c-8 0 -16 4 -22 9l-46 47c-19 -11 -40 -15 -65 -15z" />
    <glyph glyph-name="dagger" unicode="&#x2020;" horiz-adv-x="425" 
d="M279 536v-131h74c18 0 32 -14 32 -32v-57c0 -18 -14 -32 -32 -32h-74v-448c0 -18 -14 -32 -32 -32h-70c-18 0 -31 14 -31 32v448h-75c-18 0 -31 14 -31 32v57c0 18 13 32 31 32h75v131c0 18 13 32 31 32h70c18 0 32 -14 32 -32z" />
    <glyph glyph-name="daggerdbl" unicode="&#x2021;" horiz-adv-x="425" 
d="M71 121h75v163h-75c-18 0 -31 14 -31 32v57c0 18 13 32 31 32h75v131c0 18 13 32 31 32h70c18 0 32 -14 32 -32v-131h74c18 0 32 -14 32 -32v-57c0 -18 -14 -32 -32 -32h-74v-163h74c18 0 32 -14 32 -32v-57c0 -18 -14 -32 -32 -32h-74v-164c0 -18 -14 -32 -32 -32h-70
c-18 0 -31 14 -31 32v164h-75c-18 0 -31 14 -31 32v57c0 18 13 32 31 32z" />
    <glyph glyph-name="tilde" unicode="&#x2dc;" horiz-adv-x="434" 
d="M281 418c-45 0 -82 33 -128 33c-18 0 -32 -15 -52 -15c-10 0 -21 6 -26 14l-29 39c-3 5 -6 13 -6 19c0 8 6 19 14 26c29 22 71 38 99 38c44 0 82 -33 128 -33c18 0 32 14 51 14c10 0 21 -6 26 -13l29 -40c3 -5 7 -12 7 -18c0 -9 -7 -20 -14 -26c-29 -23 -72 -38 -99 -38z
" />
    <glyph glyph-name="ogonek" unicode="&#x2db;" horiz-adv-x="287" 
d="M156 -35c-1 -4 -1 -11 -1 -17c0 -21 13 -24 35 -24c11 0 16 2 30 5c19 0 27 -6 27 -31v-40c0 -18 -52 -32 -94 -32c-72 0 -113 29 -113 109c0 9 0 19 1 28c0 15 15 32 30 32h57c17 0 28 -15 28 -30z" />
    <glyph glyph-name="Delta" unicode="&#x2206;" horiz-adv-x="704" 
d="M234 121h236l-118 212zM632 0h-559c-18 0 -33 18 -33 36c0 6 3 15 6 19c86 158 187 341 273 498c6 10 18 19 33 19s27 -9 33 -19c86 -157 187 -340 273 -498c3 -4 6 -13 6 -19c0 -18 -15 -36 -32 -36z" />
    <glyph glyph-name="pi" unicode="&#x3c0;" horiz-adv-x="667" 
d="M382 31v253h-96v-253c0 -18 -13 -31 -31 -31h-71c-18 0 -31 13 -31 31v253h-81c-18 0 -32 13 -32 31v59c0 18 14 31 32 31h524c18 0 31 -13 31 -31v-59c0 -18 -13 -31 -31 -31h-81v-253c0 -18 -13 -31 -31 -31h-71c-18 0 -31 13 -31 31z" />
    <glyph glyph-name="hungarumlaut" unicode="&#x2dd;" horiz-adv-x="404" 
d="M40 433l27 109c4 16 15 30 32 30h70c18 0 32 -15 32 -33l-44 -111c-6 -15 -18 -28 -35 -28h-51c-18 0 -31 14 -31 33zM203 433l27 109c4 16 15 30 32 30h70c18 0 32 -15 32 -33l-44 -111c-6 -15 -18 -28 -35 -28h-51c-18 0 -31 14 -31 33z" />
    <glyph glyph-name="quotesinglbase" unicode="&#x201a;" horiz-adv-x="264" 
d="M40 -105l2 5c31 47 42 82 42 140c0 19 3 38 31 38h77c18 0 32 -14 32 -34c-9 -43 -41 -181 -109 -181h-43c-18 0 -32 13 -32 32z" />
    <glyph glyph-name="quotedblbase" unicode="&#x201e;" horiz-adv-x="451" 
d="M227 -105l2 5c31 47 43 82 43 140c0 19 2 38 30 38h77c18 0 32 -14 32 -34c-9 -43 -41 -181 -109 -181h-43c-18 0 -32 13 -32 32zM40 -105l2 5c31 47 42 82 42 140c0 19 3 38 31 38h76c19 0 32 -14 32 -34c-8 -43 -40 -181 -108 -181h-43c-19 0 -32 13 -32 32z" />
    <glyph glyph-name="perthousand" unicode="&#x2030;" horiz-adv-x="990" 
d="M398 544l-217 -512c0 -19 14 -32 32 -32h67c20 0 26 11 33 24l218 512c0 19 -14 32 -32 32h-68c-18 0 -26 -10 -33 -24zM161 416c8 0 23 4 23 28s-15 29 -23 29s-23 -5 -23 -29s15 -28 23 -28zM161 318c-71 0 -121 39 -121 126s50 128 121 128s121 -41 121 -128
s-50 -126 -121 -126zM552 93c8 0 23 4 23 28s-15 29 -23 29s-23 -5 -23 -29s15 -28 23 -28zM552 -5c-71 0 -121 39 -121 126s50 128 121 128s121 -41 121 -128s-50 -126 -121 -126zM829 93c8 0 23 4 23 28s-15 29 -23 29s-23 -5 -23 -29s15 -28 23 -28zM829 -5
c-71 0 -121 39 -121 126s50 128 121 128s121 -41 121 -128s-50 -126 -121 -126z" />
    <glyph glyph-name="partialdiff" unicode="&#x2202;" horiz-adv-x="430" 
d="M164 174c0 -48 11 -58 50 -58c6 0 31 3 43 8v92c-11 8 -33 10 -40 10c-37 0 -53 -7 -53 -52zM257 341v22c0 62 -40 88 -79 88c-22 0 -38 0 -70 -13c-5 -2 -11 -4 -17 -4c-11 0 -23 5 -28 18l-23 52c0 13 8 25 19 32c46 32 83 36 127 36c134 0 204 -77 204 -209v-313
c0 -14 -8 -28 -22 -34c-45 -14 -106 -21 -151 -21c-137 0 -192 45 -192 180s65 175 168 175c11 0 41 -1 64 -9z" />
    <glyph glyph-name="Omega" unicode="&#x2126;" horiz-adv-x="660" 
d="M330 456c-40 0 -116 -14 -116 -176c0 -45 7 -128 29 -173c2 -6 6 -10 6 -22v-28c0 -35 -22 -57 -56 -57h-122c-18 0 -31 14 -31 32v57c0 18 13 32 31 32h30c-14 40 -20 129 -20 159c0 237 115 292 249 292s249 -55 249 -292c0 -30 -6 -119 -20 -159h30
c18 0 31 -14 31 -32v-57c0 -18 -13 -32 -31 -32h-122c-34 0 -56 22 -56 57v28c0 12 4 16 6 22c22 45 29 128 29 173c0 162 -76 176 -116 176z" />
    <glyph glyph-name="product" unicode="&#x220f;" horiz-adv-x="667" 
d="M382 31v416h-96v-416c0 -18 -13 -31 -31 -31h-71c-18 0 -31 13 -31 31v416h-81c-18 0 -32 13 -32 31v59c0 18 14 31 32 31h524c18 0 31 -13 31 -31v-59c0 -18 -13 -31 -31 -31h-81v-416c0 -18 -13 -31 -31 -31h-71c-18 0 -31 13 -31 31z" />
    <glyph glyph-name="summation" unicode="&#x2211;" horiz-adv-x="447" 
d="M151 295l-111 155v86c0 18 13 32 32 32h303c18 0 32 -14 32 -32v-58c0 -18 -14 -32 -32 -32h-168l105 -146v-31l-105 -148h168c18 0 32 -14 32 -32v-57c0 -18 -14 -32 -32 -32h-303c-19 0 -32 14 -32 32v86l111 156v21z" />
    <glyph glyph-name="minus" unicode="&#x2212;" horiz-adv-x="395" 
d="M323 143h-251c-18 0 -32 14 -32 32v57c0 18 14 32 32 32h251c19 0 32 -14 32 -32v-57c0 -18 -13 -32 -32 -32z" />
    <glyph glyph-name="lozenge" unicode="&#x25ca;" horiz-adv-x="478" 
d="M239 213l48 73l-48 73l-48 -73zM239 0c-14 0 -25 8 -31 18l-159 239c-5 8 -9 16 -9 28c0 11 4 19 9 27l159 242c4 8 14 18 31 18s27 -10 31 -18l159 -242c5 -8 9 -16 9 -27c0 -12 -4 -20 -9 -28l-159 -239c-6 -10 -17 -18 -31 -18z" />
    <glyph glyph-name="notequal" unicode="&#x2260;" horiz-adv-x="395" 
d="M323 227h-67l-12 -37h79c19 0 32 -14 32 -32v-57c0 -18 -13 -32 -32 -32h-121l-15 -44c-8 -13 -15 -25 -33 -25h-43c-18 0 -32 15 -32 35l11 34h-18c-18 0 -32 14 -32 32v57c0 18 14 32 32 32h60l13 37h-73c-18 0 -32 14 -32 32v57c0 18 14 32 32 32h114l12 33
c6 17 18 30 36 30h43c18 0 31 -16 31 -35l-10 -28h25c19 0 32 -14 32 -32v-57c0 -18 -13 -32 -32 -32z" />
    <glyph glyph-name="radical" unicode="&#x221a;" horiz-adv-x="684" 
d="M612 447h-141l-148 -418c-7 -18 -19 -29 -35 -29h-90c-16 0 -28 11 -35 29l-123 345c0 18 13 31 31 31h73c17 0 27 -12 33 -29l67 -195l122 358c6 17 16 29 33 29h213c19 0 32 -14 32 -32v-57c0 -18 -13 -32 -32 -32z" />
    <glyph glyph-name="infinity" unicode="&#x221e;" horiz-adv-x="968" 
d="M484 107c-54 -52 -129 -85 -214 -85c-114 0 -230 63 -230 199c0 128 88 205 230 205c80 0 142 -18 214 -100c72 82 134 100 214 100c142 0 230 -77 230 -205c0 -136 -116 -199 -230 -199c-85 0 -160 33 -214 85zM270 305c-40 0 -97 -14 -97 -85c0 -50 43 -77 97 -77
c63 0 107 17 166 69c-50 66 -106 93 -166 93zM698 305c-60 0 -116 -27 -166 -93c59 -52 103 -69 166 -69c54 0 97 27 97 77c0 71 -57 85 -97 85z" />
    <glyph glyph-name="integral" unicode="&#x222b;" horiz-adv-x="485" 
d="M425 558c14 -3 20 -21 20 -39l-14 -57c-4 -14 -16 -24 -32 -24c-15 4 -31 8 -42 8c-45 0 -48 -47 -48 -72v-376c0 -118 -40 -193 -167 -193c-25 0 -53 2 -82 14c-14 3 -20 21 -20 39l14 57c4 14 16 24 32 24c15 -4 31 -8 42 -8c45 0 48 47 48 72v353
c0 131 32 216 167 216c25 0 53 -2 82 -14z" />
    <glyph glyph-name="approxequal" unicode="&#x2248;" horiz-adv-x="434" 
d="M281 41c-45 0 -82 33 -128 33c-18 0 -32 -15 -52 -15c-10 0 -21 6 -26 14l-29 39c-3 5 -6 13 -6 19c0 8 6 19 14 26c29 22 71 38 99 38c44 0 82 -33 128 -33c18 0 32 14 51 14c10 0 21 -6 26 -13l29 -40c3 -5 7 -12 7 -18c0 -9 -7 -20 -14 -26c-29 -23 -72 -38 -99 -38z
M281 201c-45 0 -82 33 -128 33c-18 0 -32 -15 -52 -15c-10 0 -21 6 -26 14l-29 39c-3 5 -6 13 -6 19c0 8 6 19 14 26c29 22 71 38 99 38c44 0 82 -33 128 -33c18 0 32 14 51 14c10 0 21 -6 26 -13l29 -40c3 -5 7 -12 7 -18c0 -9 -7 -20 -14 -26c-29 -23 -72 -38 -99 -38z
" />
    <glyph glyph-name="udieresis" unicode="&#xfc;" horiz-adv-x="438" 
d="M265 131v243c0 18 14 31 32 31h69c18 0 32 -13 32 -31v-307c0 -15 -9 -26 -20 -33c-54 -28 -106 -39 -151 -39c-134 0 -197 53 -197 185v194c0 18 13 31 31 31h71c18 0 31 -13 31 -31v-194c0 -60 15 -64 61 -64c8 0 29 2 41 15zM53 528c0 40 31 71 71 71s72 -31 72 -71
s-32 -72 -72 -72s-71 32 -71 72zM229 528c0 40 31 71 71 71s72 -31 72 -71s-32 -72 -72 -72s-71 32 -71 72z" />
    <glyph glyph-name="aogonek" unicode="&#x105;" horiz-adv-x="417" 
d="M244 135v154c-71 -4 -91 -48 -91 -98c0 -63 24 -75 51 -75c23 0 40 19 40 19zM363 5c-18 -13 -34 -18 -34 -30c0 -8 1 -15 12 -15c7 0 14 4 19 4c13 -1 17 -8 17 -33v-39c0 -18 -42 -29 -83 -29c-48 0 -82 18 -82 78c0 36 27 60 50 78l-9 9c-41 -31 -78 -33 -92 -33
c-111 0 -146 94 -146 197c0 128 76 219 209 219c41 0 82 -7 132 -24c14 -6 21 -19 21 -33v-323c0 -9 -3 -18 -14 -26z" />
    <glyph glyph-name="Zdotaccent" unicode="&#x17b;" horiz-adv-x="414" 
d="M10 116l231 330h-199c-18 0 -32 14 -32 32v58c0 18 14 32 32 32h330c18 0 32 -14 32 -32v-84l-227 -330h195c18 0 32 -14 32 -32v-58c0 -18 -14 -32 -32 -32h-330c-18 0 -32 14 -32 32v84zM139 690c0 40 31 71 71 71s72 -31 72 -71s-32 -72 -72 -72s-71 32 -71 72z" />
    <glyph glyph-name="Zacute" unicode="&#x179;" horiz-adv-x="414" 
d="M10 116l231 330h-199c-18 0 -32 14 -32 32v58c0 18 14 32 32 32h330c18 0 32 -14 32 -32v-84l-227 -330h195c18 0 32 -14 32 -32v-58c0 -18 -14 -32 -32 -32h-330c-18 0 -32 14 -32 32v84zM151 694l91 105c10 10 12 11 24 13c11 0 19 -3 24 -7l43 -49c6 -7 12 -14 12 -27
c0 -5 -1 -9 -4 -15c0 -1 -1 -1 -105 -86c-9 -6 -20 -10 -31 -10c-12 0 -20 8 -28 16l-16 16c-1 1 -16 16 -16 26c0 4 2 11 6 18z" />
    <glyph glyph-name="Tcaron" unicode="&#x164;" horiz-adv-x="439" 
d="M286 447v-415c0 -18 -14 -32 -32 -32h-70c-18 0 -31 14 -31 32v415h-112c-18 0 -31 14 -31 32v57c0 18 13 32 31 32h356c18 0 32 -14 32 -32v-57c0 -18 -14 -32 -32 -32h-111zM266 618h-96c-16 0 -28 12 -35 28l-71 132c0 19 14 34 32 34h68c19 0 29 -12 34 -29l20 -48
l21 48c5 17 15 29 34 29h67c18 0 32 -15 32 -34l-71 -132c-7 -16 -19 -28 -35 -28z" />
    <glyph glyph-name="Scedilla" unicode="&#x15e;" horiz-adv-x="476" 
d="M105 142c40 -15 96 -26 123 -26c24 0 97 4 97 50c0 98 -300 32 -300 223c0 110 42 183 225 183c21 0 80 -5 131 -21c15 -5 32 -15 32 -32c0 -8 -1 -21 -4 -53c-3 -25 -18 -29 -39 -29l-22 3c-36 4 -81 10 -92 10c-62 0 -95 -7 -95 -43c0 -81 300 1 300 -240
c0 -90 -47 -142 -139 -162c2 -14 4 -34 4 -42c0 -80 -41 -109 -113 -109c-42 0 -94 14 -94 32v40c0 25 8 31 27 31c14 -3 19 -5 30 -5c22 0 35 3 35 24c0 7 -1 13 -3 19c-42 2 -103 13 -145 34c-10 5 -25 19 -25 35c0 3 1 7 2 10l21 49c5 14 19 21 32 21c3 0 6 0 12 -2z" />
    <glyph glyph-name="Abreve" unicode="&#x102;" horiz-adv-x="516" 
d="M260 362l-40 -115h80zM516 37c0 -32 -42 -42 -71 -42c-54 0 -71 41 -83 73c-5 13 -6 20 -20 56h-165l-32 -94c-4 -16 -18 -30 -34 -30h-74c-18 0 -32 14 -32 32l175 507c6 17 20 29 36 29h87c16 0 30 -12 36 -29l143 -409c6 -16 11 -28 17 -31c10 -5 17 -16 17 -28v-34z
M260 618c-114 0 -175 34 -175 169c0 19 13 32 32 32h67c18 0 32 -13 32 -32c0 -33 11 -49 44 -49c34 0 45 16 45 49c0 19 14 32 32 32h67c19 0 32 -13 32 -32c0 -135 -61 -169 -176 -169z" />
    <glyph glyph-name="Racute" unicode="&#x154;" horiz-adv-x="474" 
d="M72 568h176c136 0 206 -59 206 -194c0 -76 -22 -128 -66 -159l33 -83c8 -21 12 -31 17 -33c10 -5 16 -16 16 -28v-34c0 -32 -41 -42 -70 -42c-55 0 -66 32 -79 67l-47 120h-85v-150c0 -18 -13 -32 -32 -32h-69c-18 0 -32 14 -32 32v504c0 18 14 32 32 32zM257 304
c39 0 64 25 64 70c0 44 -26 71 -64 71h-84v-141h84zM168 694l91 105c10 10 12 11 24 13c11 0 19 -3 24 -7l43 -49c6 -7 12 -14 12 -27c0 -5 -1 -9 -4 -15c0 -1 -1 -1 -105 -86c-9 -6 -20 -10 -31 -10c-12 0 -20 8 -28 16l-16 16c-1 1 -16 16 -16 26c0 4 2 11 6 18z" />
    <glyph glyph-name="zdotaccent" unicode="&#x17c;" horiz-adv-x="375" 
d="M355 290l-159 -168h128c18 0 31 -13 31 -31v-60c0 -18 -13 -31 -31 -31h-273c-18 0 -31 13 -31 31v87l156 165h-125c-18 0 -31 13 -31 31v60c0 18 13 31 31 31h273c18 0 31 -13 31 -31v-84zM203 552c7 0 27 4 27 31c0 25 -20 30 -27 30c-8 0 -28 -5 -28 -30
c0 -27 20 -31 28 -31zM203 456c-72 0 -122 40 -122 127s50 127 122 127c71 0 121 -40 121 -127s-50 -127 -121 -127z" />
    <glyph glyph-name="Sacute" unicode="&#x15a;" horiz-adv-x="476" 
d="M105 142c-6 2 -9 2 -12 2c-13 0 -27 -7 -32 -21l-21 -49c-1 -3 -2 -7 -2 -10c0 -16 15 -30 25 -35c45 -22 112 -34 154 -34c161 0 244 52 244 172c0 241 -300 159 -300 240c0 36 33 43 95 43c11 0 56 -6 92 -10l22 -3c21 0 36 4 39 29c3 32 4 45 4 53c0 17 -17 27 -32 32
c-51 16 -110 21 -131 21c-183 0 -225 -73 -225 -183c0 -191 300 -125 300 -223c0 -46 -73 -50 -97 -50c-27 0 -83 11 -123 26zM168 694l91 105c10 10 12 11 24 13c11 0 19 -3 24 -7l43 -49c6 -7 12 -14 12 -27c0 -5 -1 -9 -4 -15c0 -1 -1 -1 -105 -86c-9 -6 -20 -10 -31 -10
c-12 0 -20 8 -28 16l-16 16c-1 1 -16 16 -16 26c0 4 2 11 6 18z" />
    <glyph glyph-name="Lcaron" unicode="&#x13d;" horiz-adv-x="417" 
d="M375 0h-303c-19 0 -32 14 -32 32v504c0 18 13 32 32 32h69c18 0 32 -14 32 -32v-415h202c18 0 32 -14 32 -32v-57c0 -18 -14 -32 -32 -32zM227 400l37 138c4 16 13 30 32 30h71c18 0 32 -14 32 -33l-53 -142c-5 -14 -19 -28 -36 -28h-51c-18 0 -32 16 -32 35z" />
    <glyph glyph-name="Cacute" unicode="&#x106;" horiz-adv-x="456" 
d="M421 530c11 -7 20 -19 20 -32c0 -4 -1 -5 -23 -51c-5 -13 -18 -19 -29 -19c-5 0 -13 3 -17 5c-32 14 -62 17 -82 17c-42 0 -132 -8 -132 -170c0 -133 90 -164 132 -164c22 0 40 5 82 20c5 2 11 5 17 5c11 0 24 -6 29 -18l23 -53c0 -13 -10 -25 -20 -32
c-47 -31 -95 -43 -140 -43c-134 0 -256 73 -256 285c0 237 122 292 256 292c45 0 94 -12 140 -42zM168 694l91 105c10 10 12 11 24 13c11 0 19 -3 24 -7l43 -49c6 -7 12 -14 12 -27c0 -5 -1 -9 -4 -15c0 -1 -1 -1 -105 -86c-9 -6 -20 -10 -31 -10c-12 0 -20 8 -28 16l-16 16
c-1 1 -16 16 -16 26c0 4 2 11 6 18z" />
    <glyph glyph-name="racute" unicode="&#x155;" horiz-adv-x="331" 
d="M211 411c37 0 78 -6 109 -32c10 -8 16 -21 16 -30c0 -4 -2 -9 -3 -13l-19 -46c-4 -12 -17 -20 -29 -20c-7 0 -14 4 -21 7c-18 8 -36 12 -49 12c-11 0 -36 -5 -42 -16v-242c0 -18 -13 -31 -31 -31h-71c-18 0 -31 13 -31 31v308c0 15 8 23 18 32c42 34 106 40 153 40z
M87 532l91 105c10 10 12 11 24 13c11 0 19 -3 24 -7l43 -49c6 -7 12 -14 12 -27c0 -5 -1 -9 -4 -15c0 -1 -1 -1 -105 -86c-9 -6 -20 -10 -31 -10c-12 0 -20 8 -28 16l-16 16c-1 1 -16 16 -16 26c0 4 2 11 6 18z" />
    <glyph glyph-name="cacute" unicode="&#x107;" horiz-adv-x="407" 
d="M366 370c11 -8 19 -19 19 -32c0 -4 -1 -6 -23 -52c-5 -13 -16 -18 -28 -18c-5 0 -13 2 -17 5c-34 16 -58 16 -80 16c-39 0 -79 -24 -79 -85c0 -62 40 -88 79 -88c22 0 46 0 80 17c4 3 11 4 17 4c11 0 23 -5 28 -18l23 -52c0 -13 -8 -25 -19 -32c-46 -32 -93 -40 -137 -40
c-134 0 -204 77 -204 209c0 131 70 207 204 207c45 0 92 -8 137 -41zM118 532l91 105c10 10 12 11 24 13c11 0 19 -3 24 -7l43 -49c6 -7 12 -14 12 -27c0 -5 -1 -9 -4 -15c0 -1 -1 -1 -105 -86c-9 -6 -20 -10 -31 -10c-12 0 -20 8 -28 16l-16 16c-1 1 -16 16 -16 26
c0 4 2 11 6 18z" />
    <glyph glyph-name="zacute" unicode="&#x17a;" horiz-adv-x="375" 
d="M355 290l-159 -168h128c18 0 31 -13 31 -31v-60c0 -18 -13 -31 -31 -31h-273c-18 0 -31 13 -31 31v87l156 165h-125c-18 0 -31 13 -31 31v60c0 18 13 31 31 31h273c18 0 31 -13 31 -31v-84zM105 532l91 105c10 10 12 11 24 13c11 0 19 -3 24 -7l43 -49
c6 -7 12 -14 12 -27c0 -5 -1 -9 -4 -15c0 -1 -1 -1 -105 -86c-9 -6 -20 -10 -31 -10c-12 0 -20 8 -28 16l-16 16c-1 1 -16 16 -16 26c0 4 2 11 6 18z" />
    <glyph glyph-name="scedilla" unicode="&#x15f;" horiz-adv-x="380" 
d="M89 121c32 -10 74 -14 91 -14c14 0 52 0 52 20c0 39 -209 1 -209 154c0 69 45 130 175 130c15 0 65 -4 101 -13c15 -2 32 -14 32 -31c0 -8 -1 -21 -5 -53c-5 -20 -12 -26 -23 -26l-12 1c-29 3 -44 5 -64 5c-44 0 -71 -2 -71 -15c0 -41 209 -1 209 -149
c0 -56 -29 -96 -81 -118c2 -15 4 -43 4 -58c0 -80 -41 -109 -113 -109c-42 0 -94 14 -94 32v40c0 25 8 31 27 31c14 -3 19 -5 30 -5c22 0 35 3 35 24c0 14 -3 23 -8 29c-31 2 -78 9 -109 22c-12 6 -25 15 -25 33c2 11 5 24 15 54c4 15 19 17 32 17c3 0 6 0 11 -1z" />
    <glyph glyph-name="sacute" unicode="&#x15b;" horiz-adv-x="380" 
d="M89 121c-5 1 -8 1 -11 1c-13 0 -28 -2 -32 -17c-10 -30 -13 -43 -15 -54c0 -18 13 -27 25 -33c38 -15 97 -23 126 -23c115 0 183 49 183 135c0 148 -209 108 -209 149c0 13 27 15 71 15c20 0 35 -2 64 -5l12 -1c11 0 18 6 23 26c4 32 5 45 5 53c0 17 -17 29 -32 31
c-36 9 -86 13 -101 13c-130 0 -175 -61 -175 -130c0 -153 209 -115 209 -154c0 -20 -38 -20 -52 -20c-17 0 -59 4 -91 14zM110 532l91 105c10 10 12 11 24 13c11 0 19 -3 24 -7l43 -49c6 -7 12 -14 12 -27c0 -5 -1 -9 -4 -15c0 -1 -1 -1 -105 -86c-9 -6 -20 -10 -31 -10
c-12 0 -20 8 -28 16l-16 16c-1 1 -16 16 -16 26c0 4 2 11 6 18z" />
    <glyph glyph-name="tcaron" unicode="&#x165;" horiz-adv-x="397" 
d="M247 477l12 62c1 17 13 29 31 29h71c18 0 31 -14 31 -33l-28 -64c-7 -13 -20 -28 -35 -28h-51c-18 0 -31 14 -31 34zM264 116c9 0 36 5 40 6c15 0 27 -10 30 -23l16 -51c0 -18 -1 -31 -22 -39c-28 -11 -57 -14 -78 -14c-136 0 -167 85 -167 217v71h-36
c-19 0 -32 13 -32 31v60c0 18 13 31 32 31h37l16 133c3 17 13 30 31 30h54c18 0 31 -13 31 -31v-132h81c18 0 32 -13 32 -31v-60c0 -18 -14 -31 -32 -31h-81v-95c0 -25 2 -72 48 -72z" />
    <glyph glyph-name="nacute" unicode="&#x144;" horiz-adv-x="427" 
d="M40 31v325c0 14 7 27 21 33c46 15 106 22 150 22c134 0 186 -61 186 -194v-186c0 -18 -13 -31 -32 -31h-70c-18 0 -31 13 -31 31v185c0 61 -4 73 -50 73c-7 0 -29 -1 -41 -6v-252c0 -18 -13 -31 -31 -31h-71c-18 0 -31 13 -31 31zM153 532l91 105c10 10 12 11 24 13
c11 0 19 -3 24 -7l43 -49c6 -7 12 -14 12 -27c0 -5 -1 -9 -4 -15c0 -1 -1 -1 -105 -86c-9 -6 -20 -10 -31 -10c-12 0 -20 8 -28 16l-16 16c-1 1 -16 16 -16 26c0 4 2 11 6 18z" />
    <glyph glyph-name="ncaron" unicode="&#x148;" horiz-adv-x="427" 
d="M40 31v325c0 14 7 27 21 33c46 15 106 22 150 22c134 0 186 -61 186 -194v-186c0 -18 -13 -31 -32 -31h-70c-18 0 -31 13 -31 31v185c0 61 -4 73 -50 73c-7 0 -29 -1 -41 -6v-252c0 -18 -13 -31 -31 -31h-71c-18 0 -31 13 -31 31zM266 456h-96c-16 0 -28 12 -35 28
l-71 132c0 19 14 34 32 34h68c19 0 29 -12 34 -29l20 -48l21 48c5 17 15 29 34 29h67c18 0 32 -15 32 -34l-71 -132c-7 -16 -19 -28 -35 -28z" />
    <glyph glyph-name="ecaron" unicode="&#x11b;" horiz-adv-x="414" 
d="M320 135c4 3 11 4 16 4c11 0 20 -6 26 -18l21 -45c1 -3 2 -7 2 -9c0 -13 -8 -24 -18 -32c-47 -37 -100 -40 -144 -40c-135 0 -198 80 -198 212c0 123 57 204 192 204c108 0 170 -56 170 -131c0 -95 -60 -143 -151 -143c-24 0 -52 3 -76 9c0 -25 26 -35 71 -35
c36 0 63 5 89 24zM217 289c-25 0 -48 -14 -58 -34c14 -9 37 -15 49 -15c30 0 46 7 46 25c0 20 -17 24 -37 24zM252 456h-96c-16 0 -28 12 -35 28l-71 132c0 19 14 34 32 34h68c19 0 29 -12 34 -29l20 -48l21 48c5 17 15 29 34 29h67c18 0 32 -15 32 -34l-71 -132
c-7 -16 -19 -28 -35 -28z" />
    <glyph glyph-name="eogonek" unicode="&#x119;" horiz-adv-x="414" 
d="M320 135c4 3 11 4 16 4c11 0 20 -6 26 -18l21 -45c1 -3 2 -7 2 -9c0 -13 -8 -24 -18 -32c-24 -19 -49 -29 -74 -34c-1 -4 -1 -10 -1 -17c0 -21 13 -24 35 -24c11 0 16 2 30 5c19 0 27 -6 27 -31v-40c0 -18 -52 -32 -94 -32c-72 0 -113 29 -113 109v28
c-104 16 -152 92 -152 208c0 123 57 204 192 204c108 0 170 -56 170 -131c0 -95 -60 -143 -151 -143c-24 0 -52 3 -76 9c0 -25 26 -35 71 -35c36 0 63 5 89 24zM217 289c-25 0 -48 -14 -58 -34c14 -9 37 -15 49 -15c30 0 46 7 46 25c0 20 -17 24 -37 24z" />
    <glyph glyph-name="ccaron" unicode="&#x10d;" horiz-adv-x="407" 
d="M366 370c11 -8 19 -19 19 -32c0 -4 -1 -6 -23 -52c-5 -13 -16 -18 -28 -18c-5 0 -13 2 -17 5c-34 16 -58 16 -80 16c-39 0 -79 -24 -79 -85c0 -62 40 -88 79 -88c22 0 46 0 80 17c4 3 11 4 17 4c11 0 23 -5 28 -18l23 -52c0 -13 -8 -25 -19 -32c-46 -32 -93 -40 -137 -40
c-134 0 -204 77 -204 209c0 131 70 207 204 207c45 0 92 -8 137 -41zM255 456h-96c-16 0 -28 12 -35 28l-71 132c0 19 14 34 32 34h68c19 0 29 -12 34 -29l20 -48l21 48c5 17 15 29 34 29h67c18 0 32 -15 32 -34l-71 -132c-7 -16 -19 -28 -35 -28z" />
    <glyph glyph-name="Eogonek" unicode="&#x118;" horiz-adv-x="436" 
d="M389 0h-60v-16c0 -21 13 -24 35 -24c11 0 16 2 30 5c19 0 27 -6 27 -31v-40c0 -18 -52 -32 -94 -32c-72 0 -113 29 -113 109v29h-142c-19 0 -32 14 -32 32v504c0 18 13 32 32 32h317c19 0 32 -14 32 -32v-58c0 -18 -13 -32 -32 -32h-216v-102h156c18 0 31 -14 31 -32v-57
c0 -18 -13 -32 -31 -32h-156v-102h216c19 0 32 -14 32 -32v-57c0 -18 -13 -32 -32 -32z" />
    <glyph glyph-name="ohungarumlaut" unicode="&#x151;" horiz-adv-x="446" 
d="M223 116c59 0 62 55 62 90s-9 83 -62 83s-62 -48 -62 -83s3 -90 62 -90zM223 -5c-135 0 -198 80 -198 212c0 123 63 204 198 204s198 -81 198 -204c0 -132 -63 -212 -198 -212zM76 489l27 109c4 16 15 30 32 30h70c18 0 32 -15 32 -33l-44 -111c-6 -15 -18 -28 -35 -28
h-51c-18 0 -31 14 -31 33zM239 489l27 109c4 16 15 30 32 30h70c18 0 32 -15 32 -33l-44 -111c-6 -15 -18 -28 -35 -28h-51c-18 0 -31 14 -31 33z" />
    <glyph glyph-name="Ohungarumlaut" unicode="&#x150;" horiz-adv-x="558" 
d="M280 116c38 0 114 10 114 164c0 162 -75 170 -115 170s-115 -8 -115 -170c0 -154 76 -164 116 -164zM280 -5c-136 0 -250 63 -250 285c0 237 115 292 249 292s249 -55 249 -292c0 -222 -114 -285 -248 -285zM135 651l27 109c4 16 15 30 32 30h70c18 0 32 -15 32 -33
l-44 -111c-6 -15 -18 -28 -35 -28h-51c-18 0 -31 14 -31 33zM298 651l27 109c4 16 15 30 32 30h70c18 0 32 -15 32 -33l-44 -111c-6 -15 -18 -28 -35 -28h-51c-18 0 -31 14 -31 33z" />
    <glyph glyph-name="Ncaron" unicode="&#x147;" horiz-adv-x="531" 
d="M459 0h-65c-13 0 -28 8 -38 24c-58 98 -123 193 -183 293v-285c0 -18 -14 -32 -32 -32h-69c-18 0 -32 14 -32 32v504c0 18 14 32 32 32h76c14 0 29 -8 39 -24c59 -97 112 -173 171 -271v263c0 18 14 32 32 32h69c18 0 32 -14 32 -32v-504c0 -18 -14 -32 -32 -32zM300 618
h-96c-16 0 -28 12 -35 28l-71 132c0 19 14 34 32 34h68c19 0 29 -12 34 -29l20 -48l21 48c5 17 15 29 34 29h67c18 0 32 -15 32 -34l-71 -132c-7 -16 -19 -28 -35 -28z" />
    <glyph glyph-name="Nacute" unicode="&#x143;" horiz-adv-x="531" 
d="M459 0h-65c-13 0 -28 8 -38 24c-58 98 -123 193 -183 293v-285c0 -18 -14 -32 -32 -32h-69c-18 0 -32 14 -32 32v504c0 18 14 32 32 32h76c14 0 29 -8 39 -24c59 -97 112 -173 171 -271v263c0 18 14 32 32 32h69c18 0 32 -14 32 -32v-504c0 -18 -14 -32 -32 -32zM164 694
l91 105c10 10 12 11 24 13c11 0 19 -3 24 -7l43 -49c6 -7 12 -14 12 -27c0 -5 -1 -9 -4 -15c0 -1 -1 -1 -105 -86c-9 -6 -20 -10 -31 -10c-12 0 -20 8 -28 16l-16 16c-1 1 -16 16 -16 26c0 4 2 11 6 18z" />
    <glyph glyph-name="Dcroat" unicode="&#x110;" horiz-adv-x="529" 
d="M300 0h-181c-18 0 -32 15 -32 33v186h-50c-18 0 -32 14 -32 32v57c0 18 14 32 32 32h50v196c0 18 14 32 32 32h181c136 0 204 -75 204 -209v-150c0 -134 -68 -209 -204 -209zM371 207v153c0 62 -33 86 -73 86h-78v-106h68c19 0 32 -14 32 -32v-57c0 -18 -13 -32 -32 -32
h-68v-98h78c40 0 73 24 73 86z" />
    <glyph glyph-name="Lacute" unicode="&#x139;" horiz-adv-x="417" 
d="M375 0h-303c-19 0 -32 14 -32 32v504c0 18 13 32 32 32h69c18 0 32 -14 32 -32v-415h202c18 0 32 -14 32 -32v-57c0 -18 -14 -32 -32 -32zM46 694l91 105c10 10 12 11 24 13c11 0 19 -3 24 -7l43 -49c6 -7 12 -14 12 -27c0 -5 -1 -9 -4 -15c0 -1 -1 -1 -105 -86
c-9 -6 -20 -10 -31 -10c-12 0 -20 8 -28 16l-16 16c-1 1 -16 16 -16 26c0 4 2 11 6 18z" />
    <glyph glyph-name="lcaron" unicode="&#x13e;" horiz-adv-x="369" 
d="M204 403l36 136c4 16 14 29 32 29h70c18 0 32 -14 32 -32l-53 -140c-5 -14 -18 -28 -35 -28h-50c-19 0 -32 15 -32 35zM173 536v-504c0 -18 -14 -32 -32 -32h-70c-18 0 -31 14 -31 32v504c0 18 13 32 31 32h70c18 0 32 -14 32 -32z" />
    <glyph glyph-name="Ccaron" unicode="&#x10c;" horiz-adv-x="456" 
d="M421 530c11 -7 20 -19 20 -32c0 -4 -1 -5 -23 -51c-5 -13 -18 -19 -29 -19c-5 0 -13 3 -17 5c-32 14 -62 17 -82 17c-42 0 -132 -8 -132 -170c0 -133 90 -164 132 -164c22 0 40 5 82 20c5 2 11 5 17 5c11 0 24 -6 29 -18l23 -53c0 -13 -10 -25 -20 -32
c-47 -31 -95 -43 -140 -43c-134 0 -256 73 -256 285c0 237 122 292 256 292c45 0 94 -12 140 -42zM301 618h-96c-16 0 -28 12 -35 28l-71 132c0 19 14 34 32 34h68c19 0 29 -12 34 -29l20 -48l21 48c5 17 15 29 34 29h67c18 0 32 -15 32 -34l-71 -132
c-7 -16 -19 -28 -35 -28z" />
    <glyph glyph-name="Ecaron" unicode="&#x11a;" horiz-adv-x="436" 
d="M389 0h-317c-19 0 -32 14 -32 32v504c0 18 13 32 32 32h317c19 0 32 -14 32 -32v-58c0 -18 -13 -32 -32 -32h-216v-102h156c18 0 31 -14 31 -32v-57c0 -18 -13 -32 -31 -32h-156v-102h216c19 0 32 -14 32 -32v-57c0 -18 -13 -32 -32 -32zM282 618h-96
c-16 0 -28 12 -35 28l-71 132c0 19 14 34 32 34h68c19 0 29 -12 34 -29l20 -48l21 48c5 17 15 29 34 29h67c18 0 32 -15 32 -34l-71 -132c-7 -16 -19 -28 -35 -28z" />
    <glyph glyph-name="Dcaron" unicode="&#x10e;" horiz-adv-x="482" 
d="M253 0h-181c-18 0 -32 15 -32 33v503c0 18 14 32 32 32h181c136 0 204 -75 204 -209v-150c0 -134 -68 -209 -204 -209zM324 207v153c0 62 -33 86 -73 86h-78v-325h78c40 0 73 24 73 86zM283 618h-96c-16 0 -28 12 -35 28l-71 132c0 19 14 34 32 34h68c19 0 29 -12 34 -29
l20 -48l21 48c5 17 15 29 34 29h67c18 0 32 -15 32 -34l-71 -132c-7 -16 -19 -28 -35 -28z" />
    <glyph glyph-name="Aogonek" unicode="&#x104;" horiz-adv-x="516" 
d="M260 362l-40 -115h80zM476 0c-15 -3 -26 -9 -26 -22c0 -8 1 -16 11 -16h6l14 4c19 0 27 -6 27 -31v-39c0 -19 -53 -32 -94 -32c-48 0 -83 18 -83 79c0 42 20 64 50 86c-7 11 -15 28 -19 39c-5 13 -6 20 -20 56h-165l-32 -94c-4 -16 -18 -30 -34 -30h-74
c-18 0 -32 14 -32 32l175 507c6 17 20 29 36 29h87c16 0 30 -12 36 -29l143 -409c6 -16 11 -28 17 -31c10 -5 17 -16 17 -28v-34c0 -20 -20 -33 -40 -37z" />
    <glyph glyph-name="abreve" unicode="&#x103;" horiz-adv-x="417" 
d="M244 135v154c-71 -4 -91 -48 -91 -98c0 -63 24 -75 51 -75c23 0 40 19 40 19zM356 387c14 -6 21 -19 21 -33v-323c0 -18 -13 -31 -31 -31h-50c-15 0 -23 6 -34 17l-9 11c-41 -31 -78 -33 -92 -33c-111 0 -146 94 -146 197c0 128 76 219 209 219c41 0 82 -7 132 -24z
M194 456c-114 0 -175 34 -175 169c0 19 13 32 32 32h67c18 0 32 -13 32 -32c0 -33 11 -49 44 -49c34 0 45 16 45 49c0 19 14 32 32 32h67c19 0 32 -13 32 -32c0 -135 -61 -169 -176 -169z" />
    <glyph glyph-name="Uhungarumlaut" unicode="&#x170;" horiz-adv-x="528" 
d="M264 -5c-137 0 -224 36 -224 259v282c0 18 14 32 32 32h69c18 0 32 -14 32 -32v-289c0 -123 52 -131 91 -131s91 8 91 131v289c0 18 14 32 32 32h69c18 0 32 -14 32 -32v-282c0 -223 -87 -259 -224 -259zM124 651l27 109c4 16 15 30 32 30h70c18 0 32 -15 32 -33
l-44 -111c-6 -15 -18 -28 -35 -28h-51c-18 0 -31 14 -31 33zM287 651l27 109c4 16 15 30 32 30h70c18 0 32 -15 32 -33l-44 -111c-6 -15 -18 -28 -35 -28h-51c-18 0 -31 14 -31 33z" />
    <glyph glyph-name="Uring" unicode="&#x16e;" horiz-adv-x="528" 
d="M264 -5c-137 0 -224 36 -224 259v282c0 18 14 32 32 32h69c18 0 32 -14 32 -32v-289c0 -123 52 -131 91 -131s91 8 91 131v289c0 18 14 32 32 32h69c18 0 32 -14 32 -32v-282c0 -223 -87 -259 -224 -259zM266 714c7 0 27 4 27 31c0 25 -20 30 -27 30c-8 0 -28 -5 -28 -30
c0 -27 20 -31 28 -31zM266 618c-72 0 -122 40 -122 127s50 127 122 127c71 0 121 -40 121 -127s-50 -127 -121 -127z" />
    <glyph glyph-name="Rcaron" unicode="&#x158;" horiz-adv-x="474" 
d="M72 568h176c136 0 206 -59 206 -194c0 -76 -22 -128 -66 -159l33 -83c8 -21 12 -31 17 -33c10 -5 16 -16 16 -28v-34c0 -32 -41 -42 -70 -42c-55 0 -66 32 -79 67l-47 120h-85v-150c0 -18 -13 -32 -32 -32h-69c-18 0 -32 14 -32 32v504c0 18 14 32 32 32zM257 304
c39 0 64 25 64 70c0 44 -26 71 -64 71h-84v-141h84zM295 618h-96c-16 0 -28 12 -35 28l-71 132c0 19 14 34 32 34h68c19 0 29 -12 34 -29l20 -48l21 48c5 17 15 29 34 29h67c18 0 32 -15 32 -34l-71 -132c-7 -16 -19 -28 -35 -28z" />
    <glyph glyph-name="uni0162" unicode="&#x162;" horiz-adv-x="439" 
d="M286 447v-415c0 -18 -14 -32 -32 -32h-70c-18 0 -31 14 -31 32v415h-112c-18 0 -31 14 -31 32v57c0 18 13 32 31 32h356c18 0 32 -14 32 -32v-57c0 -18 -14 -32 -32 -32h-111zM119 -219l1 5c18 36 26 51 35 115c3 18 5 33 31 33h75c18 0 31 -14 31 -33
c-8 -43 -32 -152 -99 -152h-43c-18 0 -31 14 -31 32z" />
    <glyph glyph-name="lacute" unicode="&#x13a;" 
d="M40 32v504c0 18 14 32 32 32h70c18 0 31 -14 31 -32v-504c0 -18 -13 -32 -31 -32h-70c-18 0 -32 14 -32 32zM16 694l91 105c10 10 12 11 24 13c11 0 19 -3 24 -7l43 -49c6 -7 12 -14 12 -27c0 -5 -1 -9 -4 -15c0 -1 -1 -1 -105 -86c-9 -6 -20 -10 -31 -10
c-12 0 -20 8 -28 16l-16 16c-1 1 -16 16 -16 26c0 4 2 11 6 18z" />
    <glyph glyph-name="uni0163" unicode="&#x163;" horiz-adv-x="355" 
d="M264 116c9 0 36 5 40 6c15 0 27 -10 30 -23l16 -51c0 -18 -1 -31 -22 -39c-1 0 -2 -1 -3 -1c-10 -4 -19 -7 -29 -8c1 -13 2 -28 2 -37c0 -80 -41 -109 -113 -109c-42 0 -94 14 -94 32v40c0 25 8 31 27 31c14 -3 19 -5 30 -5c22 0 35 3 35 24c0 11 -3 23 -7 30
c-74 28 -93 102 -93 206v71h-36c-19 0 -32 13 -32 31v60c0 18 13 31 32 31h37l16 133c3 17 13 30 31 30h54c18 0 31 -13 31 -31v-132h81c18 0 32 -13 32 -31v-60c0 -18 -14 -31 -32 -31h-81v-95c0 -25 2 -72 48 -72z" />
    <glyph glyph-name="uhungarumlaut" unicode="&#x171;" horiz-adv-x="438" 
d="M265 131v243c0 18 14 31 32 31h69c18 0 32 -13 32 -31v-307c0 -15 -9 -26 -20 -33c-54 -28 -106 -39 -151 -39c-134 0 -197 53 -197 185v194c0 18 13 31 31 31h71c18 0 31 -13 31 -31v-194c0 -60 15 -64 61 -64c8 0 29 2 41 15zM73 489l27 109c4 16 15 30 32 30h70
c18 0 32 -15 32 -33l-44 -111c-6 -15 -18 -28 -35 -28h-51c-18 0 -31 14 -31 33zM236 489l27 109c4 16 15 30 32 30h70c18 0 32 -15 32 -33l-44 -111c-6 -15 -18 -28 -35 -28h-51c-18 0 -31 14 -31 33z" />
    <glyph glyph-name="uring" unicode="&#x16f;" horiz-adv-x="438" 
d="M265 131v243c0 18 14 31 32 31h69c18 0 32 -13 32 -31v-307c0 -15 -9 -26 -20 -33c-54 -28 -106 -39 -151 -39c-134 0 -197 53 -197 185v194c0 18 13 31 31 31h71c18 0 31 -13 31 -31v-194c0 -60 15 -64 61 -64c8 0 29 2 41 15zM214 552c7 0 27 4 27 31
c0 25 -20 30 -27 30c-8 0 -28 -5 -28 -30c0 -27 20 -31 28 -31zM214 456c-72 0 -122 40 -122 127s50 127 122 127c71 0 121 -40 121 -127s-50 -127 -121 -127z" />
    <glyph glyph-name="rcaron" unicode="&#x159;" horiz-adv-x="331" 
d="M211 411c37 0 78 -6 109 -32c10 -8 16 -21 16 -30c0 -4 -2 -9 -3 -13l-19 -46c-4 -12 -17 -20 -29 -20c-7 0 -14 4 -21 7c-18 8 -36 12 -49 12c-11 0 -36 -5 -42 -16v-242c0 -18 -13 -31 -31 -31h-71c-18 0 -31 13 -31 31v308c0 15 8 23 18 32c42 34 106 40 153 40z
M236 456h-96c-16 0 -28 12 -35 28l-60 132c0 19 14 34 32 34h61c19 0 29 -12 34 -29l16 -48l18 48c5 17 15 29 34 29h60c18 0 32 -15 32 -34l-61 -132c-7 -16 -19 -28 -35 -28z" />
    <glyph glyph-name="dcaron" unicode="&#x10f;" horiz-adv-x="596" 
d="M431 403l36 136c4 16 14 29 32 29h70c18 0 32 -14 32 -32l-53 -140c-5 -14 -18 -28 -35 -28h-50c-19 0 -32 15 -32 35zM163 210c0 -62 16 -94 63 -94c6 0 28 1 41 6v157c-12 8 -31 10 -37 10c-39 0 -67 -19 -67 -79zM400 537v-487c0 -14 -7 -27 -21 -33
c-46 -16 -106 -22 -150 -22c-135 0 -204 83 -204 215s79 201 181 201c10 0 37 -1 61 -10v136c0 18 13 31 31 31h71c18 0 31 -13 31 -31z" />
    <glyph glyph-name="dcroat" unicode="&#x111;" horiz-adv-x="475" 
d="M163 210c0 -62 16 -94 63 -94c6 0 28 1 41 6v157c-12 8 -31 10 -37 10c-39 0 -67 -19 -67 -79zM267 437h-65c-18 0 -31 13 -31 32v30c0 18 13 31 31 31h64v7c0 18 14 31 32 31h70c18 0 32 -13 32 -31v-7h48c18 0 32 -13 32 -31v-30c0 -19 -14 -32 -32 -32h-48v-387
c0 -14 -7 -27 -21 -33c-46 -16 -106 -22 -150 -22c-135 0 -204 83 -204 215s79 201 181 201c10 0 37 -1 61 -10v36z" />
    <glyph glyph-name="Amacron" unicode="&#x100;" horiz-adv-x="516" 
d="M260 362l-40 -115h80zM516 37c0 -32 -42 -42 -71 -42c-54 0 -71 41 -83 73c-5 13 -6 20 -20 56h-165l-32 -94c-4 -16 -18 -30 -34 -30h-74c-18 0 -32 14 -32 32l175 507c6 17 20 29 36 29h87c16 0 30 -12 36 -29l143 -409c6 -16 11 -28 17 -31c10 -5 17 -16 17 -28v-34z
M386 618h-251c-18 0 -32 14 -32 32v57c0 18 14 32 32 32h251c19 0 32 -14 32 -32v-57c0 -18 -13 -32 -32 -32z" />
    <glyph glyph-name="umacron" unicode="&#x16b;" horiz-adv-x="438" 
d="M265 131v243c0 18 14 31 32 31h69c18 0 32 -13 32 -31v-307c0 -15 -9 -26 -20 -33c-54 -28 -106 -39 -151 -39c-134 0 -197 53 -197 185v194c0 18 13 31 31 31h71c18 0 31 -13 31 -31v-194c0 -60 15 -64 61 -64c8 0 29 2 41 15zM337 456h-251c-18 0 -32 14 -32 32v57
c0 18 14 32 32 32h251c19 0 32 -14 32 -32v-57c0 -18 -13 -32 -32 -32z" />
    <glyph glyph-name="tbar" unicode="&#x167;" horiz-adv-x="355" 
d="M297 146h-74c7 -19 19 -30 41 -30c9 0 36 5 40 6c15 0 27 -10 30 -23l16 -51c0 -18 -1 -31 -22 -39c-28 -11 -57 -14 -78 -14c-110 0 -151 54 -163 151h-40c-19 0 -32 13 -32 31v50c0 18 13 31 32 31h36v36h-36c-19 0 -32 13 -32 31v49c0 18 13 31 32 31h37l16 133
c3 17 13 30 31 30h54c18 0 31 -13 31 -31v-132h81c18 0 32 -13 32 -31v-49c0 -18 -14 -31 -32 -31h-81v-36h81c18 0 32 -13 32 -31v-50c0 -18 -14 -31 -32 -31z" />
    <glyph glyph-name="uni0137" unicode="&#x137;" horiz-adv-x="423" 
d="M118 -219l1 5c18 36 26 51 35 115c3 18 5 33 31 33h75c18 0 31 -14 31 -33c-8 -43 -32 -152 -99 -152h-43c-18 0 -31 14 -31 32zM268 29l-27 53c-20 41 -29 51 -42 65c-8 -4 -15 -8 -26 -11v-105c0 -18 -13 -31 -31 -31h-71c-18 0 -31 13 -31 31v506c0 18 13 31 31 31h71
c18 0 31 -13 31 -31v-259c34 6 77 48 91 97c4 18 14 30 31 30h71c18 0 31 -14 31 -32c-7 -52 -35 -112 -87 -160c22 -30 35 -48 54 -81l54 -98c0 -19 -13 -34 -31 -34h-77c-17 0 -34 12 -42 29z" />
    <glyph glyph-name="uni013C" unicode="&#x13c;" 
d="M173 536v-504c0 -18 -14 -32 -32 -32h-70c-18 0 -31 14 -31 32v504c0 18 13 32 31 32h70c18 0 32 -14 32 -32zM6 -219l1 5c18 36 26 51 35 115c3 18 5 33 31 33h75c18 0 31 -14 31 -33c-8 -43 -32 -152 -99 -152h-43c-18 0 -31 14 -31 32z" />
    <glyph glyph-name="itilde" unicode="&#x129;" 
d="M173 373v-341c0 -18 -14 -32 -32 -32h-70c-18 0 -31 14 -31 32v341c0 18 13 32 31 32h70c18 0 32 -14 32 -32zM155 456c-45 0 -54 28 -100 28c-18 0 -24 -15 -44 -15c-10 0 -21 6 -26 14l-29 39c-3 5 -6 13 -6 19c0 8 6 19 14 26c29 22 63 38 91 38c44 0 54 -28 100 -28
c18 0 24 14 43 14c10 0 21 -6 26 -13l29 -40c3 -5 7 -12 7 -18c0 -9 -7 -20 -14 -26c-29 -23 -64 -38 -91 -38z" />
    <glyph glyph-name="uni0123" unicode="&#x123;" horiz-adv-x="417" 
d="M355 387c15 -6 22 -19 22 -33v-370c0 -64 -1 -203 -195 -203c-41 0 -134 26 -134 122c0 47 18 92 53 113c-57 26 -86 108 -86 176c0 128 76 219 209 219c40 0 83 -7 131 -24zM244 -41v52c-59 -29 -68 -56 -68 -73c0 -11 2 -38 31 -38c22 0 37 27 37 59zM244 125v164
c-71 -3 -91 -48 -91 -98c0 -64 24 -85 51 -85c23 0 40 19 40 19zM326 609l-1 -5c-18 -36 -26 -51 -35 -115c-3 -18 -5 -33 -31 -33h-75c-18 0 -31 14 -31 33c8 43 32 152 99 152h43c18 0 31 -14 31 -32z" />
    <glyph glyph-name="uni0122" unicode="&#x122;" horiz-adv-x="515" 
d="M296 327h152c18 0 32 -13 32 -31v-264c0 -18 -14 -32 -32 -32h-27c-19 0 -30 8 -38 18l-6 7c-37 -27 -71 -30 -96 -30c-135 0 -256 69 -256 285c0 237 121 292 256 292c43 0 118 -10 163 -42c11 -6 19 -19 19 -32c0 -4 -1 -6 -23 -52c-5 -13 -17 -19 -29 -19
c-5 0 -12 3 -16 5c-33 14 -85 18 -106 18c-41 0 -131 -8 -131 -170c0 -86 44 -164 134 -164c13 0 36 1 55 13v77h-51c-18 0 -32 13 -32 32v58c0 18 14 31 32 31zM171 -219l1 5c18 36 26 51 35 115c3 18 5 33 31 33h75c18 0 31 -14 31 -33c-8 -43 -32 -152 -99 -152h-43
c-18 0 -31 14 -31 32z" />
    <glyph glyph-name="Emacron" unicode="&#x112;" horiz-adv-x="436" 
d="M389 0h-317c-19 0 -32 14 -32 32v504c0 18 13 32 32 32h317c19 0 32 -14 32 -32v-58c0 -18 -13 -32 -32 -32h-216v-102h156c18 0 31 -14 31 -32v-57c0 -18 -13 -32 -31 -32h-156v-102h216c19 0 32 -14 32 -32v-57c0 -18 -13 -32 -32 -32zM354 618h-251
c-18 0 -32 14 -32 32v57c0 18 14 32 32 32h251c19 0 32 -14 32 -32v-57c0 -18 -13 -32 -32 -32z" />
    <glyph glyph-name="Imacron" unicode="&#x12a;" 
d="M173 536v-504c0 -18 -14 -32 -32 -32h-70c-18 0 -31 14 -31 32v504c0 18 13 32 31 32h70c18 0 32 -14 32 -32zM185 618h-158c-18 0 -32 14 -32 32v57c0 18 14 32 32 32h158c19 0 32 -14 32 -32v-57c0 -18 -13 -32 -32 -32z" />
    <glyph glyph-name="Itilde" unicode="&#x128;" 
d="M173 536v-504c0 -18 -14 -32 -32 -32h-70c-18 0 -31 14 -31 32v504c0 18 13 32 31 32h70c18 0 32 -14 32 -32zM155 618c-45 0 -54 28 -100 28c-18 0 -24 -15 -44 -15c-10 0 -21 6 -26 14l-29 39c-3 5 -6 13 -6 19c0 8 6 19 14 26c29 22 63 38 91 38c44 0 54 -28 100 -28
c18 0 24 14 43 14c10 0 21 -6 26 -13l29 -40c3 -5 7 -12 7 -18c0 -9 -7 -20 -14 -26c-29 -23 -64 -38 -91 -38z" />
    <glyph glyph-name="uni0136" unicode="&#x136;" horiz-adv-x="507" 
d="M464 536c0 -45 -54 -150 -116 -218c14 -18 29 -39 47 -76l102 -208c0 -20 -13 -34 -32 -34h-77c-14 0 -31 14 -38 28c-64 136 -91 188 -101 205c-25 -17 -51 -28 -76 -36v-165c0 -18 -14 -32 -32 -32h-69c-18 0 -32 14 -32 32v504c0 18 14 32 32 32h69
c18 0 32 -14 32 -32v-198c49 13 129 128 152 200c4 16 15 30 32 30h76c18 0 31 -14 31 -32zM139 -219l1 5c18 36 26 51 35 115c3 18 5 33 31 33h75c18 0 31 -14 31 -33c-8 -43 -32 -152 -99 -152h-43c-18 0 -31 14 -31 32z" />
    <glyph glyph-name="uni013B" unicode="&#x13b;" horiz-adv-x="417" 
d="M375 0h-303c-19 0 -32 14 -32 32v504c0 18 13 32 32 32h69c18 0 32 -14 32 -32v-415h202c18 0 32 -14 32 -32v-57c0 -18 -14 -32 -32 -32zM126 -219l1 5c18 36 26 51 35 115c3 18 5 33 31 33h75c18 0 31 -14 31 -33c-8 -43 -32 -152 -99 -152h-43c-18 0 -31 14 -31 32z
" />
    <glyph glyph-name="Tbar" unicode="&#x166;" horiz-adv-x="439" 
d="M364 219h-78v-187c0 -18 -14 -32 -32 -32h-70c-18 0 -31 14 -31 32v187h-81c-18 0 -31 14 -31 32v57c0 18 13 32 31 32h81v107h-112c-18 0 -31 14 -31 32v57c0 18 13 32 31 32h356c18 0 32 -14 32 -32v-57c0 -18 -14 -32 -32 -32h-111v-107h78c18 0 32 -14 32 -32v-57
c0 -18 -14 -32 -32 -32z" />
    <glyph glyph-name="Umacron" unicode="&#x16a;" horiz-adv-x="528" 
d="M264 -5c-137 0 -224 36 -224 259v282c0 18 14 32 32 32h69c18 0 32 -14 32 -32v-289c0 -123 52 -131 91 -131s91 8 91 131v289c0 18 14 32 32 32h69c18 0 32 -14 32 -32v-282c0 -223 -87 -259 -224 -259zM391 618h-251c-18 0 -32 14 -32 32v57c0 18 14 32 32 32h251
c19 0 32 -14 32 -32v-57c0 -18 -13 -32 -32 -32z" />
    <glyph glyph-name="Eng" unicode="&#x14a;" horiz-adv-x="531" 
d="M242 -181c-14 3 -20 21 -20 39l14 57c4 14 16 24 32 24c15 -4 31 -8 42 -8c45 0 48 47 48 72v18c-1 1 -2 2 -2 3c-58 98 -123 193 -183 293v-285c0 -18 -14 -32 -32 -32h-69c-18 0 -32 14 -32 32v504c0 18 14 32 32 32h76c14 0 29 -8 39 -24c59 -97 112 -173 171 -271
v263c0 18 14 32 32 32h69c18 0 32 -14 32 -32v-515c0 -131 -32 -216 -167 -216c-25 0 -53 2 -82 14z" />
    <glyph glyph-name="emacron" unicode="&#x113;" horiz-adv-x="414" 
d="M320 135c4 3 11 4 16 4c11 0 20 -6 26 -18l21 -45c1 -3 2 -7 2 -9c0 -13 -8 -24 -18 -32c-47 -37 -100 -40 -144 -40c-135 0 -198 80 -198 212c0 123 57 204 192 204c108 0 170 -56 170 -131c0 -95 -60 -143 -151 -143c-24 0 -52 3 -76 9c0 -25 26 -35 71 -35
c36 0 63 5 89 24zM217 289c-25 0 -48 -14 -58 -34c14 -9 37 -15 49 -15c30 0 46 7 46 25c0 20 -17 24 -37 24zM335 456h-251c-18 0 -32 14 -32 32v57c0 18 14 32 32 32h251c19 0 32 -14 32 -32v-57c0 -18 -13 -32 -32 -32z" />
    <glyph glyph-name="imacron" unicode="&#x12b;" 
d="M173 373v-341c0 -18 -14 -32 -32 -32h-70c-18 0 -31 14 -31 32v341c0 18 13 32 31 32h70c18 0 32 -14 32 -32zM185 456h-158c-18 0 -32 14 -32 32v57c0 18 14 32 32 32h158c19 0 32 -14 32 -32v-57c0 -18 -13 -32 -32 -32z" />
    <glyph glyph-name="eng" unicode="&#x14b;" horiz-adv-x="427" 
d="M148 -181c-14 3 -20 21 -20 39l14 57c4 14 16 24 32 24c15 -4 31 -8 42 -8c45 0 48 47 48 72v213c0 61 -4 73 -50 73c-7 0 -29 -1 -41 -6v-252c0 -18 -13 -31 -31 -31h-71c-18 0 -31 13 -31 31v325c0 14 7 27 21 33c46 15 106 22 150 22c134 0 186 -61 186 -194v-196
c0 -131 -32 -216 -167 -216c-25 0 -53 2 -82 14z" />
    <glyph glyph-name="Edotaccent" unicode="&#x116;" horiz-adv-x="436" 
d="M389 0h-317c-19 0 -32 14 -32 32v504c0 18 13 32 32 32h317c19 0 32 -14 32 -32v-58c0 -18 -13 -32 -32 -32h-216v-102h156c18 0 31 -14 31 -32v-57c0 -18 -13 -32 -31 -32h-156v-102h216c19 0 32 -14 32 -32v-57c0 -18 -13 -32 -32 -32zM164 690c0 40 31 71 71 71
s72 -31 72 -71s-32 -72 -72 -72s-71 32 -71 72z" />
    <glyph glyph-name="edotaccent" unicode="&#x117;" horiz-adv-x="414" 
d="M320 135c4 3 11 4 16 4c11 0 20 -6 26 -18l21 -45c1 -3 2 -7 2 -9c0 -13 -8 -24 -18 -32c-47 -37 -100 -40 -144 -40c-135 0 -198 80 -198 212c0 123 57 204 192 204c108 0 170 -56 170 -131c0 -95 -60 -143 -151 -143c-24 0 -52 3 -76 9c0 -25 26 -35 71 -35
c36 0 63 5 89 24zM217 289c-25 0 -48 -14 -58 -34c14 -9 37 -15 49 -15c30 0 46 7 46 25c0 20 -17 24 -37 24zM152 528c0 40 31 71 71 71s72 -31 72 -71s-32 -72 -72 -72s-71 32 -71 72z" />
    <glyph glyph-name="Iogonek" unicode="&#x12e;" 
d="M40 37v499c0 18 13 32 31 32h70c18 0 32 -14 32 -32v-490c0 -42 -43 -43 -43 -74c0 -8 1 -17 12 -17h6l13 4c20 0 27 -6 27 -31v-39c0 -19 -45 -32 -86 -32c-49 0 -91 38 -91 87c0 55 29 80 29 93z" />
    <glyph glyph-name="uni0145" unicode="&#x145;" horiz-adv-x="531" 
d="M459 0h-65c-13 0 -28 8 -38 24c-58 98 -123 193 -183 293v-285c0 -18 -14 -32 -32 -32h-69c-18 0 -32 14 -32 32v504c0 18 14 32 32 32h76c14 0 29 -8 39 -24c59 -97 112 -173 171 -271v263c0 18 14 32 32 32h69c18 0 32 -14 32 -32v-504c0 -18 -14 -32 -32 -32z
M171 -219l1 5c18 36 26 51 35 115c3 18 5 33 31 33h75c18 0 31 -14 31 -33c-8 -43 -32 -152 -99 -152h-43c-18 0 -31 14 -31 32z" />
    <glyph glyph-name="Omacron" unicode="&#x14c;" horiz-adv-x="558" 
d="M280 116c38 0 114 10 114 164c0 162 -75 170 -115 170s-115 -8 -115 -170c0 -154 76 -164 116 -164zM280 -5c-136 0 -250 63 -250 285c0 237 115 292 249 292s249 -55 249 -292c0 -222 -114 -285 -248 -285zM405 618h-251c-18 0 -32 14 -32 32v57c0 18 14 32 32 32h251
c19 0 32 -14 32 -32v-57c0 -18 -13 -32 -32 -32z" />
    <glyph glyph-name="iogonek" unicode="&#x12f;" 
d="M35 501c0 40 31 72 71 72s72 -32 72 -72s-32 -71 -72 -71s-71 31 -71 71zM40 37v336c0 18 13 32 31 32h70c18 0 32 -14 32 -32v-327c0 -42 -43 -43 -43 -74c0 -8 1 -17 12 -17h6l13 4c20 0 27 -6 27 -31v-39c0 -19 -45 -32 -86 -32c-49 0 -91 38 -91 87c0 55 29 80 29 93
z" />
    <glyph glyph-name="uni0146" unicode="&#x146;" horiz-adv-x="427" 
d="M40 31v325c0 14 7 27 21 33c46 15 106 22 150 22c134 0 186 -61 186 -194v-186c0 -18 -13 -31 -32 -31h-70c-18 0 -31 13 -31 31v185c0 61 -4 73 -50 73c-7 0 -29 -1 -41 -6v-252c0 -18 -13 -31 -31 -31h-71c-18 0 -31 13 -31 31zM117 -219l1 5c18 36 26 51 35 115
c3 18 5 33 31 33h75c18 0 31 -14 31 -33c-8 -43 -32 -152 -99 -152h-43c-18 0 -31 14 -31 32z" />
    <glyph glyph-name="omacron" unicode="&#x14d;" horiz-adv-x="446" 
d="M223 116c59 0 62 55 62 90s-9 83 -62 83s-62 -48 -62 -83s3 -90 62 -90zM223 -5c-135 0 -198 80 -198 212c0 123 63 204 198 204s198 -81 198 -204c0 -132 -63 -212 -198 -212zM349 456h-251c-18 0 -32 14 -32 32v57c0 18 14 32 32 32h251c19 0 32 -14 32 -32v-57
c0 -18 -13 -32 -32 -32z" />
    <glyph glyph-name="Utilde" unicode="&#x168;" horiz-adv-x="528" 
d="M264 -5c-137 0 -224 36 -224 259v282c0 18 14 32 32 32h69c18 0 32 -14 32 -32v-289c0 -123 52 -131 91 -131s91 8 91 131v289c0 18 14 32 32 32h69c18 0 32 -14 32 -32v-282c0 -223 -87 -259 -224 -259zM330 618c-45 0 -82 33 -128 33c-18 0 -32 -15 -52 -15
c-10 0 -21 6 -26 14l-29 39c-3 5 -6 13 -6 19c0 8 6 19 14 26c29 22 71 38 99 38c44 0 82 -33 128 -33c18 0 32 14 51 14c10 0 21 -6 26 -13l29 -40c3 -5 7 -12 7 -18c0 -9 -7 -20 -14 -26c-29 -23 -72 -38 -99 -38z" />
    <glyph glyph-name="Uogonek" unicode="&#x172;" horiz-adv-x="528" 
d="M488 254c0 -185 -60 -242 -159 -255v-15c0 -21 13 -24 35 -24c11 0 16 2 30 5c19 0 27 -6 27 -31v-40c0 -18 -52 -32 -94 -32c-72 0 -113 29 -113 109v26c-108 10 -174 62 -174 257v282c0 18 14 32 32 32h69c18 0 32 -14 32 -32v-289c0 -123 52 -131 91 -131s91 8 91 131
v289c0 18 14 32 32 32h69c18 0 32 -14 32 -32v-282z" />
    <glyph glyph-name="amacron" unicode="&#x101;" horiz-adv-x="417" 
d="M244 135v154c-71 -4 -91 -48 -91 -98c0 -63 24 -75 51 -75c23 0 40 19 40 19zM356 387c14 -6 21 -19 21 -33v-323c0 -18 -13 -31 -31 -31h-50c-15 0 -23 6 -34 17l-9 11c-41 -31 -78 -33 -92 -33c-111 0 -146 94 -146 197c0 128 76 219 209 219c41 0 82 -7 132 -24z
M332 456h-251c-18 0 -32 14 -32 32v57c0 18 14 32 32 32h251c19 0 32 -14 32 -32v-57c0 -18 -13 -32 -32 -32z" />
    <glyph glyph-name="uogonek" unicode="&#x173;" horiz-adv-x="438" 
d="M265 131v243c0 18 14 31 32 31h69c18 0 32 -13 32 -31v-307c0 -15 -9 -26 -20 -33c-25 -13 -50 -22 -73 -29v-16c0 -21 13 -24 35 -24c11 0 16 2 30 5c19 0 27 -6 27 -31v-40c0 -18 -52 -32 -94 -32c-72 0 -113 29 -113 109v21c-109 9 -160 64 -160 183v194
c0 18 13 31 31 31h71c18 0 31 -13 31 -31v-194c0 -60 15 -64 61 -64c8 0 29 2 41 15z" />
    <glyph glyph-name="utilde" unicode="&#x169;" horiz-adv-x="438" 
d="M265 131v243c0 18 14 31 32 31h69c18 0 32 -13 32 -31v-307c0 -15 -9 -26 -20 -33c-54 -28 -106 -39 -151 -39c-134 0 -197 53 -197 185v194c0 18 13 31 31 31h71c18 0 31 -13 31 -31v-194c0 -60 15 -64 61 -64c8 0 29 2 41 15zM279 457c-45 0 -82 33 -128 33
c-18 0 -32 -15 -52 -15c-10 0 -21 6 -26 14l-29 39c-3 5 -6 13 -6 19c0 8 6 19 14 26c29 22 71 38 99 38c44 0 82 -33 128 -33c18 0 32 14 51 14c10 0 21 -6 26 -13l29 -40c3 -5 7 -12 7 -18c0 -9 -7 -20 -14 -26c-29 -23 -72 -38 -99 -38z" />
    <glyph glyph-name="kgreenlandic" unicode="&#x138;" horiz-adv-x="423" 
d="M268 29l-27 53c-20 41 -29 51 -42 65c-8 -4 -15 -8 -26 -11v-105c0 -18 -13 -31 -31 -31h-71c-18 0 -31 13 -31 31v343c0 18 13 31 31 31h71c18 0 31 -13 31 -31v-96c34 6 77 48 91 97c4 18 14 30 31 30h71c18 0 31 -14 31 -32c-7 -52 -35 -112 -87 -160
c22 -30 35 -48 54 -81l54 -98c0 -19 -13 -34 -31 -34h-77c-17 0 -34 12 -42 29z" />
    <glyph glyph-name="uni03A9" unicode="&#x3a9;" horiz-adv-x="660" 
d="M330 456c-40 0 -116 -14 -116 -176c0 -45 7 -128 29 -173c2 -6 6 -10 6 -22v-28c0 -35 -22 -57 -56 -57h-122c-18 0 -31 14 -31 32v57c0 18 13 32 31 32h30c-14 40 -20 129 -20 159c0 237 115 292 249 292s249 -55 249 -292c0 -30 -6 -119 -20 -159h30
c18 0 31 -14 31 -32v-57c0 -18 -13 -32 -31 -32h-122c-34 0 -56 22 -56 57v28c0 12 4 16 6 22c22 45 29 128 29 173c0 162 -76 176 -116 176z" />
    <glyph glyph-name="uni0219" unicode="&#x219;" horiz-adv-x="380" 
d="M89 121c32 -10 74 -14 91 -14c14 0 52 0 52 20c0 39 -209 1 -209 154c0 69 45 130 175 130c15 0 65 -4 101 -13c15 -2 32 -14 32 -31c0 -8 -1 -21 -5 -53c-5 -20 -12 -26 -23 -26l-12 1c-29 3 -44 5 -64 5c-44 0 -71 -2 -71 -15c0 -41 209 -1 209 -149
c0 -86 -68 -135 -183 -135c-29 0 -88 8 -126 23c-12 6 -25 15 -25 33c2 11 5 24 15 54c4 15 19 17 32 17c3 0 6 0 11 -1zM99 -219l1 5c18 36 26 51 35 115c3 18 5 33 31 33h75c18 0 31 -14 31 -33c-8 -43 -32 -152 -99 -152h-43c-18 0 -31 14 -31 32z" />
    <glyph glyph-name="uni021A" unicode="&#x21a;" horiz-adv-x="439" 
d="M286 447v-415c0 -18 -14 -32 -32 -32h-70c-18 0 -31 14 -31 32v415h-112c-18 0 -31 14 -31 32v57c0 18 13 32 31 32h356c18 0 32 -14 32 -32v-57c0 -18 -14 -32 -32 -32h-111zM119 -219l1 5c18 36 26 51 35 115c3 18 5 33 31 33h75c18 0 31 -14 31 -33
c-8 -43 -32 -152 -99 -152h-43c-18 0 -31 14 -31 32z" />
    <glyph glyph-name="uni021B" unicode="&#x21b;" horiz-adv-x="355" 
d="M264 116c9 0 36 5 40 6c15 0 27 -10 30 -23l16 -51c0 -18 -1 -31 -22 -39c-28 -11 -57 -14 -78 -14c-136 0 -167 85 -167 217v71h-36c-19 0 -32 13 -32 31v60c0 18 13 31 32 31h37l16 133c3 17 13 30 31 30h54c18 0 31 -13 31 -31v-132h81c18 0 32 -13 32 -31v-60
c0 -18 -14 -31 -32 -31h-81v-95c0 -25 2 -72 48 -72zM131 -219l1 5c18 36 26 51 35 115c3 18 5 33 31 33h75c18 0 31 -14 31 -33c-8 -43 -32 -152 -99 -152h-43c-18 0 -31 14 -31 32z" />
    <glyph glyph-name="uni0218" unicode="&#x218;" horiz-adv-x="476" 
d="M105 142c40 -15 96 -26 123 -26c24 0 97 4 97 50c0 98 -300 32 -300 223c0 110 42 183 225 183c21 0 80 -5 131 -21c15 -5 32 -15 32 -32c0 -8 -1 -21 -4 -53c-3 -25 -18 -29 -39 -29l-22 3c-36 4 -81 10 -92 10c-62 0 -95 -7 -95 -43c0 -81 300 1 300 -240
c0 -120 -83 -172 -244 -172c-42 0 -109 12 -154 34c-10 5 -25 19 -25 35c0 3 1 7 2 10l21 49c5 14 19 21 32 21c3 0 6 0 12 -2zM153 -219l1 5c18 36 26 51 35 115c3 18 5 33 31 33h75c18 0 31 -14 31 -33c-8 -43 -32 -152 -99 -152h-43c-18 0 -31 14 -31 32z" />
    <glyph glyph-name="uni0156" unicode="&#x156;" horiz-adv-x="474" 
d="M72 568h176c136 0 206 -59 206 -194c0 -76 -22 -128 -66 -159l33 -83c8 -21 12 -31 17 -33c10 -5 16 -16 16 -28v-34c0 -32 -41 -42 -70 -42c-55 0 -66 32 -79 67l-47 120h-85v-150c0 -18 -13 -32 -32 -32h-69c-18 0 -32 14 -32 32v504c0 18 14 32 32 32zM257 304
c39 0 64 25 64 70c0 44 -26 71 -64 71h-84v-141h84zM153 -219l1 5c18 36 26 51 35 115c3 18 5 33 31 33h75c18 0 31 -14 31 -33c-8 -43 -32 -152 -99 -152h-43c-18 0 -31 14 -31 32z" />
    <glyph glyph-name="uni0157" unicode="&#x157;" horiz-adv-x="331" 
d="M211 411c37 0 78 -6 109 -32c10 -8 16 -21 16 -30c0 -4 -2 -9 -3 -13l-19 -46c-4 -12 -17 -20 -29 -20c-7 0 -14 4 -21 7c-18 8 -36 12 -49 12c-11 0 -36 -5 -42 -16v-242c0 -18 -13 -31 -31 -31h-71c-18 0 -31 13 -31 31v308c0 15 8 23 18 32c42 34 106 40 153 40z
M54 -219l1 5c18 36 26 51 35 115c3 18 5 33 31 33h75c18 0 31 -14 31 -33c-8 -43 -32 -152 -99 -152h-43c-18 0 -31 14 -31 32z" />
    <glyph glyph-name="gbreve" unicode="&#x11f;" horiz-adv-x="417" 
d="M355 387c15 -6 22 -19 22 -33v-370c0 -64 -1 -203 -195 -203c-41 0 -134 26 -134 122c0 47 18 92 53 113c-57 26 -86 108 -86 176c0 128 76 219 209 219c40 0 83 -7 131 -24zM244 -41v52c-59 -29 -68 -56 -68 -73c0 -11 2 -38 31 -38c22 0 37 27 37 59zM244 125v164
c-71 -3 -91 -48 -91 -98c0 -64 24 -85 51 -85c23 0 40 19 40 19zM196 456c-114 0 -175 34 -175 169c0 19 13 32 32 32h67c18 0 32 -13 32 -32c0 -33 11 -49 44 -49c34 0 45 16 45 49c0 19 14 32 32 32h67c19 0 32 -13 32 -32c0 -135 -61 -169 -176 -169z" />
    <glyph glyph-name="Idotaccent" unicode="&#x130;" 
d="M173 536v-504c0 -18 -14 -32 -32 -32h-70c-18 0 -31 14 -31 32v504c0 18 13 32 31 32h70c18 0 32 -14 32 -32zM35 689c0 40 31 72 71 72s72 -32 72 -72s-32 -71 -72 -71s-71 31 -71 71z" />
    <glyph glyph-name="Gbreve" unicode="&#x11e;" horiz-adv-x="515" 
d="M296 327h152c18 0 32 -13 32 -31v-264c0 -18 -14 -32 -32 -32h-27c-19 0 -30 8 -38 18l-6 7c-37 -27 -71 -30 -96 -30c-135 0 -256 69 -256 285c0 237 121 292 256 292c43 0 118 -10 163 -42c11 -6 19 -19 19 -32c0 -4 -1 -6 -23 -52c-5 -13 -17 -19 -29 -19
c-5 0 -12 3 -16 5c-33 14 -85 18 -106 18c-41 0 -131 -8 -131 -170c0 -86 44 -164 134 -164c13 0 36 1 55 13v77h-51c-18 0 -32 13 -32 32v58c0 18 14 31 32 31zM260 618c-114 0 -175 34 -175 169c0 19 13 32 32 32h67c18 0 32 -13 32 -32c0 -33 11 -49 44 -49
c34 0 45 16 45 49c0 19 14 32 32 32h67c19 0 32 -13 32 -32c0 -135 -61 -169 -176 -169z" />
    <glyph glyph-name="Numero" unicode="&#x2116;" horiz-adv-x="991" 
d="M459 0h-65c-13 0 -28 8 -38 24c-58 98 -123 193 -183 293v-285c0 -18 -14 -32 -32 -32h-69c-18 0 -32 14 -32 32v504c0 18 14 32 32 32h76c14 0 29 -8 39 -24c59 -97 112 -173 171 -271v263c0 18 14 32 32 32h69c18 0 32 -14 32 -32v-504c0 -18 -14 -32 -32 -32zM753 277
c59 0 62 55 62 90s-9 83 -62 83s-62 -48 -62 -83s3 -90 62 -90zM753 156c-135 0 -198 80 -198 212c0 123 63 204 198 204s198 -81 198 -204c0 -132 -63 -212 -198 -212zM919 0h-332c-18 0 -32 14 -32 32v57c0 18 14 32 32 32h332c19 0 32 -14 32 -32v-57
c0 -18 -13 -32 -32 -32z" />
    <glyph glyph-name="Cdotaccent" unicode="&#x10a;" horiz-adv-x="456" 
d="M421 530c11 -7 20 -19 20 -32c0 -4 -1 -5 -23 -51c-5 -13 -18 -19 -29 -19c-5 0 -13 3 -17 5c-32 14 -62 17 -82 17c-42 0 -132 -8 -132 -170c0 -133 90 -164 132 -164c22 0 40 5 82 20c5 2 11 5 17 5c11 0 24 -6 29 -18l23 -53c0 -13 -10 -25 -20 -32
c-47 -31 -95 -43 -140 -43c-134 0 -256 73 -256 285c0 237 122 292 256 292c45 0 94 -12 140 -42zM183 690c0 40 31 71 71 71s72 -31 72 -71s-32 -72 -72 -72s-71 32 -71 72z" />
    <glyph glyph-name="ccircumflex" unicode="&#x109;" horiz-adv-x="407" 
d="M366 370c11 -8 19 -19 19 -32c0 -4 -1 -6 -23 -52c-5 -13 -16 -18 -28 -18c-5 0 -13 2 -17 5c-34 16 -58 16 -80 16c-39 0 -79 -24 -79 -85c0 -62 40 -88 79 -88c22 0 46 0 80 17c4 3 11 4 17 4c11 0 23 -5 28 -18l23 -52c0 -13 -8 -25 -19 -32c-46 -32 -93 -40 -137 -40
c-134 0 -204 77 -204 209c0 131 70 207 204 207c45 0 92 -8 137 -41zM158 650h96c16 0 28 -12 35 -28l71 -132c0 -19 -14 -34 -32 -34h-67c-19 0 -29 12 -34 29l-21 48l-20 -48c-5 -17 -15 -29 -34 -29h-68c-18 0 -32 15 -32 34l71 132c7 16 19 28 35 28z" />
    <glyph glyph-name="cdotaccent" unicode="&#x10b;" horiz-adv-x="407" 
d="M366 370c11 -8 19 -19 19 -32c0 -4 -1 -6 -23 -52c-5 -13 -16 -18 -28 -18c-5 0 -13 2 -17 5c-34 16 -58 16 -80 16c-39 0 -79 -24 -79 -85c0 -62 40 -88 79 -88c22 0 46 0 80 17c4 3 11 4 17 4c11 0 23 -5 28 -18l23 -52c0 -13 -8 -25 -19 -32c-46 -32 -93 -40 -137 -40
c-134 0 -204 77 -204 209c0 131 70 207 204 207c45 0 92 -8 137 -41zM145 528c0 40 31 71 71 71s72 -31 72 -71s-32 -72 -72 -72s-71 32 -71 72z" />
    <glyph glyph-name="Hcircumflex" unicode="&#x124;" horiz-adv-x="511" 
d="M338 227h-165v-195c0 -18 -13 -32 -31 -32h-70c-18 0 -32 14 -32 32v504c0 18 14 32 32 32h70c18 0 31 -14 31 -32v-188h165v188c0 18 13 32 31 32h70c18 0 32 -14 32 -32v-504c0 -18 -14 -32 -32 -32h-70c-18 0 -31 14 -31 32v195zM207 812h96c16 0 28 -12 35 -28
l71 -132c0 -19 -14 -34 -32 -34h-67c-19 0 -29 12 -34 29l-21 48l-20 -48c-5 -17 -15 -29 -34 -29h-68c-18 0 -32 15 -32 34l71 132c7 16 19 28 35 28z" />
    <glyph glyph-name="hbar" unicode="&#x127;" horiz-adv-x="462" 
d="M75 31v406h-48c-18 0 -32 13 -32 32v30c0 18 14 31 32 31h48v7c0 18 14 31 32 31h70c18 0 32 -13 32 -31v-7h64c18 0 31 -13 31 -31v-30c0 -19 -13 -32 -31 -32h-65v-54c38 27 70 28 83 28c110 0 141 -80 141 -184v-196c0 -18 -13 -31 -32 -31h-70c-18 0 -31 13 -31 31
v192c0 62 -23 66 -51 66c-23 0 -40 -19 -40 -19v-239c0 -18 -13 -31 -31 -31h-71c-18 0 -31 13 -31 31z" />
    <glyph glyph-name="hcircumflex" unicode="&#x125;" horiz-adv-x="427" 
d="M40 537v-506c0 -18 13 -31 31 -31h71c18 0 31 13 31 31v239s17 19 40 19c28 0 51 -4 51 -66v-192c0 -18 13 -31 31 -31h70c19 0 32 13 32 31v196c0 104 -31 184 -141 184c-13 0 -45 -1 -83 -28v154c0 18 -13 31 -31 31h-71c-18 0 -31 -13 -31 -31zM146 812h96
c16 0 28 -12 35 -28l71 -132c0 -19 -14 -34 -32 -34h-67c-19 0 -29 12 -34 29l-21 48l-20 -48c-5 -17 -15 -29 -34 -29h-68c-18 0 -32 15 -32 34l71 132c7 16 19 28 35 28z" />
    <glyph glyph-name="jcircumflex" unicode="&#x135;" horiz-adv-x="212" 
d="M-77 -181c-14 3 -20 21 -20 39l14 57c4 14 16 24 32 24c15 -4 31 -8 42 -8c45 0 48 47 48 72v371c0 18 14 31 32 31h69c18 0 32 -13 32 -31v-353c0 -131 -32 -216 -167 -216c-25 0 -53 2 -82 14zM57 650h96c16 0 28 -12 35 -28l71 -132c0 -19 -14 -34 -32 -34h-67
c-19 0 -29 12 -34 29l-21 48l-20 -48c-5 -17 -15 -29 -34 -29h-68c-18 0 -32 15 -32 34l71 132c7 16 19 28 35 28z" />
    <glyph glyph-name="Scircumflex" unicode="&#x15c;" horiz-adv-x="476" 
d="M105 142c-6 2 -9 2 -12 2c-13 0 -27 -7 -32 -21l-21 -49c-1 -3 -2 -7 -2 -10c0 -16 15 -30 25 -35c45 -22 112 -34 154 -34c161 0 244 52 244 172c0 241 -300 159 -300 240c0 36 33 43 95 43c11 0 56 -6 92 -10l22 -3c21 0 36 4 39 29c3 32 4 45 4 53c0 17 -17 27 -32 32
c-51 16 -110 21 -131 21c-183 0 -225 -73 -225 -183c0 -191 300 -125 300 -223c0 -46 -73 -50 -97 -50c-27 0 -83 11 -123 26zM194 812h96c16 0 28 -12 35 -28l71 -132c0 -19 -14 -34 -32 -34h-67c-19 0 -29 12 -34 29l-21 48l-20 -48c-5 -17 -15 -29 -34 -29h-68
c-18 0 -32 15 -32 34l71 132c7 16 19 28 35 28z" />
    <glyph glyph-name="Ubreve" unicode="&#x16c;" horiz-adv-x="528" 
d="M264 -5c-137 0 -224 36 -224 259v282c0 18 14 32 32 32h69c18 0 32 -14 32 -32v-289c0 -123 52 -131 91 -131s91 8 91 131v289c0 18 14 32 32 32h69c18 0 32 -14 32 -32v-282c0 -223 -87 -259 -224 -259zM263 618c-114 0 -175 34 -175 169c0 19 13 32 32 32h67
c18 0 32 -13 32 -32c0 -33 11 -49 44 -49c34 0 45 16 45 49c0 19 14 32 32 32h67c19 0 32 -13 32 -32c0 -135 -61 -169 -176 -169z" />
    <glyph glyph-name="Gcircumflex" unicode="&#x11c;" horiz-adv-x="515" 
d="M296 327h152c18 0 32 -13 32 -31v-264c0 -18 -14 -32 -32 -32h-27c-19 0 -30 8 -38 18l-6 7c-37 -27 -71 -30 -96 -30c-135 0 -256 69 -256 285c0 237 121 292 256 292c43 0 118 -10 163 -42c11 -6 19 -19 19 -32c0 -4 -1 -6 -23 -52c-5 -13 -17 -19 -29 -19
c-5 0 -12 3 -16 5c-33 14 -85 18 -106 18c-41 0 -131 -8 -131 -170c0 -86 44 -164 134 -164c13 0 36 1 55 13v77h-51c-18 0 -32 13 -32 32v58c0 18 14 31 32 31zM222 812h96c16 0 28 -12 35 -28l71 -132c0 -19 -14 -34 -32 -34h-67c-19 0 -29 12 -34 29l-21 48l-20 -48
c-5 -17 -15 -29 -34 -29h-68c-18 0 -32 15 -32 34l71 132c7 16 19 28 35 28z" />
    <glyph glyph-name="Gdotaccent" unicode="&#x120;" horiz-adv-x="515" 
d="M296 327h152c18 0 32 -13 32 -31v-264c0 -18 -14 -32 -32 -32h-27c-19 0 -30 8 -38 18l-6 7c-37 -27 -71 -30 -96 -30c-135 0 -256 69 -256 285c0 237 121 292 256 292c43 0 118 -10 163 -42c11 -6 19 -19 19 -32c0 -4 -1 -6 -23 -52c-5 -13 -17 -19 -29 -19
c-5 0 -12 3 -16 5c-33 14 -85 18 -106 18c-41 0 -131 -8 -131 -170c0 -86 44 -164 134 -164c13 0 36 1 55 13v77h-51c-18 0 -32 13 -32 32v58c0 18 14 31 32 31zM204 690c0 40 31 71 71 71s72 -31 72 -71s-32 -72 -72 -72s-71 32 -71 72z" />
    <glyph glyph-name="Jcircumflex" unicode="&#x134;" horiz-adv-x="423" 
d="M20 30c39 -24 91 -35 133 -35c135 0 230 22 230 246v295c0 18 -14 32 -32 32h-69c-19 0 -32 -14 -32 -32v-297c0 -114 -49 -123 -90 -123c-19 0 -61 10 -84 20c-5 3 -12 4 -17 4c-12 0 -22 -4 -30 -18c-18 -33 -25 -44 -27 -50c-1 -3 -2 -7 -2 -10c0 -15 10 -25 20 -32z
M180 812h96c16 0 28 -12 35 -28l71 -132c0 -19 -14 -34 -32 -34h-67c-19 0 -29 12 -34 29l-21 48l-20 -48c-5 -17 -15 -29 -34 -29h-68c-18 0 -32 15 -32 34l71 132c7 16 19 28 35 28z" />
    <glyph glyph-name="Ccircumflex" unicode="&#x108;" horiz-adv-x="456" 
d="M421 530c11 -7 20 -19 20 -32c0 -4 -1 -5 -23 -51c-5 -13 -18 -19 -29 -19c-5 0 -13 3 -17 5c-32 14 -62 17 -82 17c-42 0 -132 -8 -132 -170c0 -133 90 -164 132 -164c22 0 40 5 82 20c5 2 11 5 17 5c11 0 24 -6 29 -18l23 -53c0 -13 -10 -25 -20 -32
c-47 -31 -95 -43 -140 -43c-134 0 -256 73 -256 285c0 237 122 292 256 292c45 0 94 -12 140 -42zM192 812h96c16 0 28 -12 35 -28l71 -132c0 -19 -14 -34 -32 -34h-67c-19 0 -29 12 -34 29l-21 48l-20 -48c-5 -17 -15 -29 -34 -29h-68c-18 0 -32 15 -32 34l71 132
c7 16 19 28 35 28z" />
    <glyph glyph-name="gdotaccent" unicode="&#x121;" horiz-adv-x="417" 
d="M355 387c15 -6 22 -19 22 -33v-370c0 -64 -1 -203 -195 -203c-41 0 -134 26 -134 122c0 47 18 92 53 113c-57 26 -86 108 -86 176c0 128 76 219 209 219c40 0 83 -7 131 -24zM244 -41v52c-59 -29 -68 -56 -68 -73c0 -11 2 -38 31 -38c22 0 37 27 37 59zM244 125v164
c-71 -3 -91 -48 -91 -98c0 -64 24 -85 51 -85c23 0 40 19 40 19zM149 528c0 40 31 71 71 71s72 -31 72 -71s-32 -72 -72 -72s-71 32 -71 72z" />
    <glyph glyph-name="gcircumflex" unicode="&#x11d;" horiz-adv-x="417" 
d="M355 387c15 -6 22 -19 22 -33v-370c0 -64 -1 -203 -195 -203c-41 0 -134 26 -134 122c0 47 18 92 53 113c-57 26 -86 108 -86 176c0 128 76 219 209 219c40 0 83 -7 131 -24zM244 -41v52c-59 -29 -68 -56 -68 -73c0 -11 2 -38 31 -38c22 0 37 27 37 59zM244 125v164
c-71 -3 -91 -48 -91 -98c0 -64 24 -85 51 -85c23 0 40 19 40 19zM158 650h96c16 0 28 -12 35 -28l71 -132c0 -19 -14 -34 -32 -34h-67c-19 0 -29 12 -34 29l-21 48l-20 -48c-5 -17 -15 -29 -34 -29h-68c-18 0 -32 15 -32 34l71 132c7 16 19 28 35 28z" />
    <glyph glyph-name="ubreve" unicode="&#x16d;" horiz-adv-x="438" 
d="M265 131v243c0 18 14 31 32 31h69c18 0 32 -13 32 -31v-307c0 -15 -9 -26 -20 -33c-54 -28 -106 -39 -151 -39c-134 0 -197 53 -197 185v194c0 18 13 31 31 31h71c18 0 31 -13 31 -31v-194c0 -60 15 -64 61 -64c8 0 29 2 41 15zM213 456c-114 0 -175 34 -175 169
c0 19 13 32 32 32h67c18 0 32 -13 32 -32c0 -33 11 -49 44 -49c34 0 45 16 45 49c0 19 14 32 32 32h67c19 0 32 -13 32 -32c0 -135 -61 -169 -176 -169z" />
    <glyph glyph-name="scircumflex" unicode="&#x15d;" horiz-adv-x="380" 
d="M89 121c-5 1 -8 1 -11 1c-13 0 -28 -2 -32 -17c-10 -30 -13 -43 -15 -54c0 -18 13 -27 25 -33c38 -15 97 -23 126 -23c115 0 183 49 183 135c0 148 -209 108 -209 149c0 13 27 15 71 15c20 0 35 -2 64 -5l12 -1c11 0 18 6 23 26c4 32 5 45 5 53c0 17 -17 29 -32 31
c-36 9 -86 13 -101 13c-130 0 -175 -61 -175 -130c0 -153 209 -115 209 -154c0 -20 -38 -20 -52 -20c-17 0 -59 4 -91 14zM145 651h96c16 0 28 -12 35 -28l71 -132c0 -19 -14 -34 -32 -34h-67c-19 0 -29 12 -34 29l-21 48l-20 -48c-5 -17 -15 -29 -34 -29h-68
c-18 0 -32 15 -32 34l71 132c7 16 19 28 35 28z" />
    <glyph glyph-name="Hbar" unicode="&#x126;" horiz-adv-x="597" 
d="M560 388h-46v-356c0 -18 -14 -32 -32 -32h-70c-18 0 -31 14 -31 32v195h-165v-195c0 -18 -13 -32 -31 -32h-70c-18 0 -32 14 -32 32v356h-46c-18 0 -32 14 -32 32v59c0 18 14 32 32 32h46v25c0 18 14 32 32 32h70c18 0 31 -14 31 -32v-25h165v25c0 18 13 32 31 32h70
c18 0 32 -14 32 -32v-25h46c18 0 32 -14 32 -32v-59c0 -18 -14 -32 -32 -32zM216 348h165v40h-165v-40z" />
    </font>
</defs>
</svg>
