<svg xmlns="http://www.w3.org/2000/svg" width="30" height="30" viewBox="0 0 30 30">
  <g id="Grupo_719" data-name="Grupo 719" transform="translate(-1002 -7292.267)">
    <path id="Exclusión_2" data-name="Exclusión 2" d="M15,29A15,15,0,0,1,4.393,3.394,15,15,0,1,1,25.606,24.606,14.9,14.9,0,0,1,15,29Zm0-6.729c.368.008.729.013,1.074.013a43.98,43.98,0,0,0,6.433-.474.744.744,0,0,0,.076-.014,3.647,3.647,0,0,0,2.5-2.006c.013-.027.024-.055.035-.083A14.486,14.486,0,0,0,26,14a14.483,14.483,0,0,0-.883-5.705.967.967,0,0,0-.054-.121,3.942,3.942,0,0,0-2.441-1.958,1.04,1.04,0,0,0-.117-.025,44.1,44.1,0,0,0-6.433-.473c-.381,0-.743,0-1.074.013-.331-.008-.692-.013-1.073-.013a44.085,44.085,0,0,0-6.433.473L7.418,6.2a3.649,3.649,0,0,0-2.5,2.007c-.013.029-.025.056-.034.083A14.483,14.483,0,0,0,4,14a14.486,14.486,0,0,0,.883,5.706,1.112,1.112,0,0,0,.053.121,3.943,3.943,0,0,0,2.442,1.958.866.866,0,0,0,.117.024,43.962,43.962,0,0,0,6.433.474C14.271,22.283,14.631,22.279,15,22.271Zm1.074-1.987c-.349,0-.7,0-1.049-.014h-.049c-.347.009-.7.014-1.049.014a42.1,42.1,0,0,1-6.075-.443,1.924,1.924,0,0,1-1.118-.894A12.5,12.5,0,0,1,6,14.049a.887.887,0,0,0,0-.1,12.508,12.508,0,0,1,.742-4.919,1.665,1.665,0,0,1,1.087-.869,42.033,42.033,0,0,1,6.1-.446c.336,0,.689,0,1.049.013h.049c.36-.008.712-.013,1.049-.013a41.976,41.976,0,0,1,6.075.443,1.951,1.951,0,0,1,1.118.894,12.494,12.494,0,0,1,.735,4.9.887.887,0,0,0,0,.1,12.508,12.508,0,0,1-.743,4.919,1.664,1.664,0,0,1-1.087.868A42.027,42.027,0,0,1,16.073,20.283ZM13.129,9.914a1.6,1.6,0,0,0-1.6,1.626v4.92a1.6,1.6,0,0,0,2.426,1.4l.005,0,4.12-2.52.009-.006a1.591,1.591,0,0,0,0-2.695l-.01-.006-.005,0-4.119-2.48A1.594,1.594,0,0,0,13.129,9.914Zm.4,5.859V12.221l2.926,1.761-2.924,1.789Z" transform="translate(1002 7293.267)" fill="#fff"/>
  </g>
</svg>
