<svg xmlns="http://www.w3.org/2000/svg" width="24" height="24" viewBox="0 0 24 24">
  <g id="Icons_Contact_ic-contact-phone" data-name="Icons / Contact / ic-contact-phone" transform="translate(0 24) rotate(-90)">
    <rect id="Rectángulo_193" data-name="Rectángulo 193" width="24" height="24" fill="none"/>
    <g id="ic-contact-phone" transform="translate(-0.109 0.252)">
      <path id="Trazado_89" data-name="Trazado 89" d="M3.75,17.41,6.14,19.8A2,2,0,0,0,9,19.8l1.36-1.36a2,2,0,0,0,0-2.83l-.89-.9h0a16.48,16.48,0,0,1,5.64-5.65h0l.89.9a2,2,0,0,0,2.83,0l1.34-1.33a2,2,0,0,0,0-2.83L17.78,3.39a1,1,0,0,0-1.26-.13h0A46,46,0,0,0,3.63,16.15h0a1,1,0,0,0,.12,1.26Z" fill="none" stroke="#fff" stroke-linecap="round" stroke-linejoin="round" stroke-width="2"/>
    </g>
  </g>
</svg>
