<svg xmlns="http://www.w3.org/2000/svg" width="30" height="30" viewBox="0 0 30 30">
  <g id="Grupo_718" data-name="Grupo 718" transform="translate(-964 -7292.267)">
    <path id="Exclusión_1" data-name="Exclusión 1" d="M15,29A15,15,0,0,1,4.393,3.394,15,15,0,1,1,25.606,24.606,14.9,14.9,0,0,1,15,29ZM13.7,11.408a8.263,8.263,0,0,0-4.245,1.116,5.844,5.844,0,0,0-2.7,5.313,5.852,5.852,0,0,0,2.757,5.37,7.824,7.824,0,0,0,3.8,1.039c.077,0,.157,0,.252,0a6.272,6.272,0,0,0,2.684-.5,6.175,6.175,0,0,0,2.889-2.632,8.72,8.72,0,0,0,.715-4.062V12.691a14.578,14.578,0,0,0,3.588.8l.061,0a.755.755,0,0,0,.748-.689A.75.75,0,0,0,23.561,12a12.963,12.963,0,0,1-4.132-1.1.751.751,0,0,0-.726.038.745.745,0,0,0-.353.636v5.483c0,3.1-.575,4.206-2.8,5.363a4.949,4.949,0,0,1-1.985.328,6.553,6.553,0,0,1-3.284-.82A4.421,4.421,0,0,1,8.25,17.837c0-3.858,2.945-4.72,4.7-4.892v1.77a3.2,3.2,0,0,0-2.688,1.977,3.015,3.015,0,0,0,1.087,3.666,2.959,2.959,0,0,0,1.742.573,3.051,3.051,0,0,0,1.4-.343,4.427,4.427,0,0,0,2.163-4.122V6.25h1.392a5.265,5.265,0,0,0,2.206,3.557,5.682,5.682,0,0,0,3.106.951c.063,0,.123,0,.179,0a.75.75,0,0,0-.033-1.5h-.033l-.13,0a4.174,4.174,0,0,1-2.245-.691,3.968,3.968,0,0,1-1.644-3.13A.745.745,0,0,0,18.7,4.75H15.9a.751.751,0,0,0-.751.75V16.466a2.977,2.977,0,0,1-1.345,2.785,1.557,1.557,0,0,1-.713.179,1.466,1.466,0,0,1-.862-.287,1.534,1.534,0,0,1-.579-1.883A1.7,1.7,0,0,1,13.259,16.2a2.221,2.221,0,0,1,.329.025.751.751,0,0,0,.862-.742V12.158A.751.751,0,0,0,13.7,11.408Z" transform="translate(964 7293.267)" fill="#fff"/>
  </g>
</svg>
