<svg xmlns="http://www.w3.org/2000/svg" width="30" height="30" viewBox="0 0 30 30">
  <path id="Exclusión_3" data-name="Exclusión 3" d="M15,29A15,15,0,0,1,4.393,3.394,15,15,0,1,1,25.606,24.606,14.9,14.9,0,0,1,15,29ZM12,4a7.008,7.008,0,0,0-7,7v6a7.008,7.008,0,0,0,7,7h6a7.007,7.007,0,0,0,7-7V11a7.008,7.008,0,0,0-7-7Zm6,18H12a5.006,5.006,0,0,1-5-5V11a5.006,5.006,0,0,1,5-5h6a5.006,5.006,0,0,1,5,5v6A5.005,5.005,0,0,1,18,22ZM15,9a5,5,0,1,0,5,5A5.005,5.005,0,0,0,15,9Zm5-1.111a1,1,0,1,0,1,1A1,1,0,0,0,20,7.889ZM15,17a3,3,0,1,1,3-3A3,3,0,0,1,15,17Z" transform="translate(0 1)" fill="#fff"/>
</svg>
