<svg xmlns="http://www.w3.org/2000/svg" width="30" height="30" viewBox="0 0 30 30">
  <g id="Grupo_720" data-name="Grupo 720" transform="translate(-889 -7292.267)">
    <path id="Exclusión_4" data-name="Exclusión 4" d="M15,29A15,15,0,0,1,4.393,3.394,15,15,0,1,1,25.606,24.606,14.9,14.9,0,0,1,15,29ZM12,4a7.008,7.008,0,0,0-7,7v6a7.008,7.008,0,0,0,7,7h6a7.007,7.007,0,0,0,7-7V11a7.008,7.008,0,0,0-7-7Zm2,18H12a5.006,5.006,0,0,1-5-5V11a5.006,5.006,0,0,1,5-5h6a5.006,5.006,0,0,1,5,5v6a5.005,5.005,0,0,1-5,5H16V16h2.03a1,1,0,0,0,0-2H16V12.89a3,3,0,0,1,3-3,1,1,0,0,0,0-2,5,5,0,0,0-5,5V14h-1.97a1,1,0,0,0,0,2H14v6Z" transform="translate(889 7293.267)" fill="#fff"/>
  </g>
</svg>
