<?xml version="1.0" encoding="utf-8"?>
<!-- Generator: Adobe Illustrator 25.2.3, SVG Export Plug-In . SVG Version: 6.00 Build 0)  -->
<svg version="1.1" id="Layer_1" xmlns="http://www.w3.org/2000/svg" xmlns:xlink="http://www.w3.org/1999/xlink" x="0px" y="0px"
	 viewBox="0 0 579.7 181.4" style="enable-background:new 0 0 579.7 181.4;" xml:space="preserve">
<style type="text/css">
	.st0{fill:#0075C9;}
</style>
<g>
	<g>
		<g>
			<g>
				<g>
					<g>
						<path class="st0" d="M86.2,82.5c2-17.4,16.8-30.9,34.7-30.9c0,0,0.1,0,0.1,0c17.9,0.1,32.6,13.6,34.6,30.9h12.9
							C166.4,58.1,146,38.8,121,38.7c0,0-0.1,0-0.1,0c-25,0-45.5,19.3-47.6,43.7H86.2z"/>
					</g>
					<g>
						<path class="st0" d="M60.8,86.4c0-33.1,27-60.1,60.1-60.1s60.1,27,60.1,60.1c0,0.8,0,1.6-0.1,2.5h12.8c0-0.8,0.1-1.6,0.1-2.5
							c0-40.2-32.7-72.9-72.9-72.9S47.9,46.2,47.9,86.4c0,0.8,0,1.6,0.1,2.5h12.8C60.8,88.1,60.8,87.2,60.8,86.4z"/>
						<path class="st0" d="M94.2,140.2H71.7h-8c-5.3,0-9.5,4.3-9.5,9.5s4.3,9.5,9.5,9.5h57.1c18.9,0,36.2-7.2,49.1-19.1H94.2z"/>
						<path class="st0" d="M185.8,114.5h-11.9H67.8H53.6H22.2c-5.3,0-9.5,4.3-9.5,9.5c0,5.3,4.3,9.5,9.5,9.5h43.2h18.4h74.2h18.4
							c4.8-5.6,8.8-11.9,11.7-18.8C187.3,114.6,186.6,114.5,185.8,114.5z"/>
						<path class="st0" d="M180.9,88.9H60.8H48h-4.8c-5.3,0-9.5,4.3-9.5,9.5s4.3,9.5,9.5,9.5h8h13.6h112.1h13.6
							c1.9-6.1,3-12.5,3.2-19.1H180.9z"/>
					</g>
				</g>
			</g>
		</g>
	</g>
	<g>
		<g>
			<path class="st0" d="M282.2,43.6v48.2h-9.4V60.6l-13.6,22.4l-1.1,0l-13.5-22.3v31.2H235V43.6h9.8l13.8,22.8l13.8-22.8H282.2z"/>
			<path class="st0" d="M321.3,82.7h20.3v9.1h-29.8V43.6h29.5v9.1h-20V63h18.3v9h-18.3V82.7z"/>
			<path class="st0" d="M396.9,43.6h9.5v48.2h-7.2l-20.7-29.5v29.5H369V43.6h7.2L396.9,73V43.6z"/>
			<path class="st0" d="M436,43.6h9.5v48.2H436V43.6z"/>
			<path class="st0" d="M507.1,43.6v9.1h-13v39.1h-9.5V52.7h-13v-9.1H507.1z"/>
			<path class="st0" d="M561.2,91.8l-3.1-8.7h-19.8l-2.9,8.7h-10.3l16.9-48.2h11.8l17,48.2H561.2z M541.4,74.3H555l-7-19.7
				L541.4,74.3z"/>
		</g>
		<g>
			<path class="st0" d="M351,112.2h-8.4v6.1h8v2.4h-8v8h-2.5v-18.9H351V112.2z"/>
			<path class="st0" d="M387.8,126.1c-1.9,1.9-4.2,2.9-6.9,2.9c-2.7,0-5-1-6.9-2.9c-1.9-1.9-2.8-4.2-2.8-6.9c0-2.7,0.9-5,2.8-6.9
				c1.9-1.9,4.2-2.8,6.9-2.8c2.7,0,5,0.9,6.9,2.8c1.9,1.9,2.8,4.2,2.8,6.9C390.6,121.9,389.7,124.2,387.8,126.1z M375.7,124.4
				c1.4,1.4,3.1,2.1,5.2,2.1c2.1,0,3.8-0.7,5.2-2.1c1.4-1.4,2.1-3.1,2.1-5.2c0-2.1-0.7-3.8-2.1-5.2c-1.4-1.4-3.1-2.1-5.2-2.1
				c-2.1,0-3.8,0.7-5.2,2.1c-1.4,1.4-2.1,3.2-2.1,5.2C373.6,121.3,374.3,123,375.7,124.4z"/>
			<path class="st0" d="M427.4,126.1c-1.9,1.9-4.2,2.9-6.9,2.9c-2.7,0-5-1-6.9-2.9c-1.9-1.9-2.8-4.2-2.8-6.9c0-2.7,0.9-5,2.8-6.9
				c1.9-1.9,4.2-2.8,6.9-2.8c2.7,0,5,0.9,6.9,2.8c1.9,1.9,2.8,4.2,2.8,6.9C430.3,121.9,429.3,124.2,427.4,126.1z M415.3,124.4
				c1.4,1.4,3.1,2.1,5.2,2.1c2.1,0,3.8-0.7,5.2-2.1c1.4-1.4,2.1-3.1,2.1-5.2c0-2.1-0.7-3.8-2.1-5.2c-1.4-1.4-3.1-2.1-5.2-2.1
				c-2.1,0-3.8,0.7-5.2,2.1c-1.4,1.4-2.1,3.2-2.1,5.2C413.2,121.3,413.9,123,415.3,124.4z"/>
			<path class="st0" d="M458.7,109.8c2.6,0,4.7,0.9,6.4,2.7c1.7,1.8,2.5,4.1,2.5,6.7s-0.8,4.9-2.5,6.7c-1.7,1.8-3.8,2.7-6.4,2.7
				h-7.4v-18.9H458.7z M458.7,126.3c1.9,0,3.5-0.7,4.7-2c1.2-1.3,1.8-3,1.8-5c0-2-0.6-3.7-1.8-5c-1.2-1.3-2.8-2-4.7-2h-4.9v14.1
				H458.7z"/>
		</g>
	</g>
</g>
</svg>
